<svg width="393" height="445" viewBox="0 0 393 445" fill="none" xmlns="http://www.w3.org/2000/svg">
<path d="M-5 49.9144C12.6871 59.4061 32.0977 65.255 52.0843 67.1153L56.5652 67.5323C66.6967 68.4753 76.8918 68.5193 87.0311 67.6638L101.204 66.468C118.326 65.0232 135.286 62.0567 151.882 57.6035C170.937 52.4909 189.418 45.4437 207.039 36.5718L213.897 33.1189C232.495 23.7552 252.017 16.3531 272.147 11.0323L302.685 2.96103L313.161 1.65259C321.953 0.554461 330.842 0.464806 339.655 1.38537C349.668 2.43138 359.503 4.77336 368.914 8.35258L397 19.0352V445H-5V49.9144Z" fill="black"/>
</svg>
