<svg width="378" height="89" viewBox="0 0 378 89" fill="none" xmlns="http://www.w3.org/2000/svg">
<g opacity="0.3">
<path d="M80.2559 0.256187C74.6335 1.05525 69.5664 2.8271 62.3821 6.5445C54.0526 10.8873 46.0007 16.8629 37.3935 25.1662C15.945 45.803 2.27064 71.3732 0.188256 94.7198C-0.436459 101.981 0.500614 109.103 2.89536 115.148C6.57424 124.39 15.6326 130.991 26.9469 132.623C30.9034 133.214 37.4282 132.867 43.6407 131.755C49.159 130.782 63.0763 127.516 72.0305 125.154C85.7743 121.471 96.568 120.047 105.245 120.811C116.455 121.784 124.541 125.779 129.574 132.832L131.17 135.055L132.524 133.318C134.849 130.365 138.354 128.072 142.38 126.856C145.539 125.883 154.319 125.988 159.109 126.995C165.807 128.454 173.304 131.442 177.885 134.499C178.857 135.16 179.69 135.576 179.69 135.438C179.69 134.951 173.408 128.941 170.493 126.613C159.768 118.067 151.369 113.689 142.033 111.813C128.671 109.103 114.268 110.319 91.362 116.086C57.8703 124.494 50.3737 125.953 42.4607 125.571C36.7688 125.293 32.9858 124.146 27.8493 121.228C14.3485 113.481 15.0773 90.2034 29.6887 62.2708C39.1636 44.1007 56.7944 22.6301 69.9481 13.215C73.0023 11.0262 78.59 8.03841 81.4707 7.03089C83.796 6.23182 86.7113 6.02337 88.2037 6.50976C89.7655 7.03089 90.8414 8.59428 90.8414 10.4009C90.8414 12.3812 90.5985 12.6938 88.8284 12.9718C86.8155 13.2497 85.0454 14.1183 83.8654 15.4385C80.4295 19.1559 79.4577 23.985 81.6442 26.1738C82.6854 27.216 84.8372 27.2855 86.8502 26.3475C89.349 25.2357 92.5073 20.9277 94.2426 16.307C95.4921 13.0413 95.5268 8.5248 94.3467 5.91914C92.2297 1.22896 87.3361 -0.751332 80.2559 0.256187Z" fill="#E61D2A"/>
<path d="M278.95 0.638227C275.584 1.22884 268.816 3.69553 263.471 6.33592C253.407 11.304 244.799 17.7661 234.318 28.2234C224.427 38.0902 218.943 44.7954 211.03 56.6077C202.666 69.1148 197.182 80.3018 193.434 92.392C191.317 99.2014 190.657 103.753 190.9 109.694C191.213 117.754 193.191 122.861 197.737 127.447C201.867 131.651 206.275 133.283 212.071 132.866C217.798 132.415 221.72 130.956 227.758 126.891C238.205 119.908 246.882 109.659 253.094 97.0474C255.871 91.4192 257.016 88.2229 257.953 83.8107C258.682 80.406 258.786 75.0557 258.161 72.6238C256.391 65.6059 250.179 64.0425 241.294 68.3852C229.737 74.0134 221.407 87.8408 218.77 105.698L218.561 107.088L221.372 104.413C224.878 101.043 229.286 97.7075 233.034 95.5883C234.63 94.7197 235.914 93.7817 235.914 93.5385C235.914 92.3573 237.823 86.729 239.038 84.2971C243.376 75.6116 248.756 71.1299 252.712 72.9017C255.35 74.1177 255.211 81.3093 252.4 89.1957C247.819 101.911 236.366 116.017 226.613 120.95C222.171 123.208 218.596 123.347 214.987 121.436C211.689 119.665 209.607 116.295 208.809 111.465C207.768 105.212 210.891 91.8361 216.062 80.0933C223.594 63.0697 237.858 42.6414 252.99 27.1812C261.077 18.9125 267.289 13.9097 274.786 9.7059C280.72 6.33592 284.469 5.29366 287.558 6.12747L289.05 6.54438L286.169 8.48993C275.549 15.5773 267.428 24.7145 262.465 35.0676C259.758 40.7306 259.341 42.2592 259.341 46.1156C259.341 48.9992 259.445 49.6245 260.209 50.9447C261.493 53.2377 262.604 53.8978 265.38 54.0368C267.393 54.1757 268.087 54.0368 270.343 53.064C274.855 51.1879 278.812 48.0264 282.907 42.9888C290.994 33.0526 295.922 21.0318 295.957 11.1303V8.6289L297.275 8.28148C300.815 7.27396 306.507 8.59416 313.935 12.1031C318.273 14.1529 319.383 14.813 330.524 22.0046C335.314 25.0966 339.895 27.9802 340.693 28.3971L342.186 29.1267L344.303 26.7643C345.483 25.4788 347.739 23.0816 349.3 21.4487L352.181 18.4609L346.524 15.1257C338.229 10.227 328.581 4.87676 325.874 3.73027C319.73 1.12462 312.997 0.0128701 307.063 0.638227C303.314 1.02039 302.343 1.22884 297.275 2.89646L293.562 4.11243L292.417 3.27862C288.842 0.603485 284.469 -0.265066 278.95 0.638227ZM291.688 13.5275C291.063 23.7764 285.371 35.2761 276.868 43.4752C270.309 49.7982 265.588 51.6048 263.68 48.4433C262.743 46.9494 262.812 44.9691 263.853 41.7033C266.213 34.1991 274.751 22.6299 282.699 16.0984C285.128 14.1529 290.959 10.3313 291.549 10.3313C291.757 10.3313 291.827 11.5125 291.688 13.5275Z" fill="#E61D2A"/>
<path d="M413.958 2.54916C407.121 9.53232 396.466 16.585 387.304 20.2329C381.89 22.3521 377.482 23.2207 371.096 23.3944L365.543 23.5334L363.842 25.34C361.864 27.4592 356.346 34.3381 356.346 34.6856C356.346 35.0677 361.448 35.6931 364.779 35.6931C374.532 35.6931 385.43 31.7325 395.321 24.6799C398.653 22.2827 405.282 15.9943 408.093 12.5549C410.696 9.35861 416.457 0.603607 415.971 0.603607C415.902 0.603607 415 1.47216 413.958 2.54916Z" fill="#E61D2A"/>
<path d="M378.384 2.13227C372.102 4.14731 362.037 11.86 350.966 23.2207C335.036 39.5495 321.049 59.8736 308.346 85.131C306.299 89.1959 304.563 92.2184 304.112 92.5311C303.245 93.087 298.108 94.2335 297.796 93.9555C297.692 93.8513 298.177 92.4616 298.837 90.8635C302.169 83.116 303.036 79.5723 302.828 74.6737C302.655 70.9563 302.065 69.3234 300.225 67.5516C298.941 66.3703 297.449 65.9187 294.637 65.9187C287.488 65.9187 277.284 72.9366 268.365 83.9846C257.085 97.9509 250.352 113.133 250.907 123.243C251.463 133.04 258.439 135.715 268.156 129.879C276.972 124.563 285.163 115.287 293.492 101.147L295.332 97.9856L298.837 97.6034C300.746 97.3602 302.377 97.256 302.446 97.3255C302.55 97.395 301.718 100.174 300.642 103.51C295.956 117.893 295.262 124.216 297.865 128.663C302.273 136.202 310.88 133.596 321.327 121.61L323.201 119.421V123.347C323.235 126.717 323.34 127.482 324.034 128.906C325.283 131.477 327.747 132.971 330.732 132.971C334.029 132.971 339.374 129.914 344.545 125.05L347.495 122.305V125.64C347.495 129.427 347.946 130.643 349.821 131.998C350.758 132.658 351.417 132.797 353.395 132.797C355.582 132.797 356.137 132.658 358.775 131.268C365.82 127.655 371.824 122.027 379.599 111.604C382.965 107.123 387.789 100.07 388.171 99.0973C388.31 98.6804 387.963 98.5762 386.297 98.5762H384.249L381.473 102.641C377.794 108.13 374.011 112.855 370.992 115.669C368.215 118.275 365.161 120.464 364.258 120.464C363.46 120.464 362.627 119.178 362.835 118.275C363.183 116.781 366.41 110.458 369.291 105.698C371.582 101.877 378.662 89.4043 390.948 67.5516C391.017 67.4126 388.136 67.3084 384.492 67.3084H377.898L376.926 69.0107L375.989 70.7478L374.115 68.698C372.137 66.4746 370.922 65.9187 368.111 65.9187C364.085 65.9187 359.018 68.6286 352.632 74.222C345.586 80.4061 339.096 88.7442 328.58 105.177C324.936 110.875 322.333 114.419 319.765 117.267C317.856 119.352 315.288 121.159 314.247 121.159C313.171 121.159 311.713 119.387 311.47 117.754C310.949 114.627 313.552 105.316 317.474 96.1443L319.626 91.1067L324.207 87.7714C335.973 79.1207 347.495 68.1074 360.371 53.2378C365.473 47.3317 372.276 38.2987 371.894 37.9166C371.755 37.8124 370.818 37.8124 369.777 37.9513L367.868 38.1945L364.744 42.2593C355.721 53.8284 341.213 69.0455 331.01 77.592C327.643 80.4061 324.415 82.6991 324.138 82.4212C323.895 82.2127 327.817 74.5347 331.218 68.6633C340.554 52.3693 351.278 36.5269 360.198 25.7916C363.599 21.7268 372.067 13.2845 375.781 10.2619C378.835 7.76048 381.855 6.23183 382.688 6.75296C384.076 7.62151 383.312 11.2347 380.605 16.6544C379.564 18.7042 379.078 20.0592 379.321 20.0592C379.564 20.0592 380.57 19.8507 381.508 19.6075L383.243 19.1906L384.805 16.0291C386.609 12.4507 387.234 10.1577 387.234 7.13512C387.234 3.17453 385.742 1.64588 381.959 1.68062C380.779 1.68062 379.148 1.88907 378.384 2.13227ZM297.379 72.3807C299.08 73.9441 299.149 79.3986 297.518 84.1583C296.095 88.3273 293.631 93.0175 292.902 93.0175C291.896 93.0175 288.876 91.0719 287.488 89.5433C285.648 87.4935 284.85 85.6174 284.85 83.0813C284.85 80.3019 285.648 78.1131 287.349 76.1676C290.82 72.207 295.332 70.5046 297.379 72.3807ZM372.796 73.6662L373.525 74.6389L372.796 75.9244C370.575 79.885 358.636 100.522 357.387 102.572C355.304 106.011 350.758 112.647 348.953 114.94C346.801 117.615 343.435 120.116 341.908 120.116C340.311 120.116 339.339 119.109 339.339 117.406C339.339 109.138 353.708 85.6522 364.467 76.2718C368.909 72.4154 371.304 71.6511 372.796 73.6662ZM284.885 93.0175C286.03 93.9555 287.87 95.241 289.015 95.8663C291.444 97.2213 291.444 97.0128 288.876 101.425C284.642 108.756 278.256 116.295 274.265 118.692C270.725 120.846 267.809 120.221 266.768 117.059C265.31 112.612 269.857 101.495 277.666 90.4813L280.061 87.0419L281.449 89.1959C282.212 90.3771 283.774 92.0795 284.885 93.0175Z" fill="#E61D2A"/>
<path d="M84.4207 33.4349C75.6747 35.8321 63.0416 47.019 54.2261 60.1863C51.519 64.2511 47.5278 72.1028 46.2784 75.9244C43.3283 84.7489 43.2242 92.6701 46.0007 96.6654C46.556 97.4992 47.736 98.472 48.8119 99.0626C54.2955 102.016 62.0351 98.6457 71.6835 89.0917C78.2083 82.6991 81.4707 78.3216 88.0302 67.4474L90.5637 63.2783L93.6873 62.514C95.4226 62.0623 96.8803 61.7844 96.9497 61.8192C96.9844 61.8886 95.7697 64.4943 94.2079 67.6558C90.2514 75.6117 89.0714 79.2944 88.8631 84.1583C88.5161 91.9753 90.9455 97.1171 96.0126 99.3753C97.2621 99.9312 98.3033 100.07 100.733 100.07C107.674 100.001 114.199 96.4917 123.014 88.0841C125.097 86.1038 127.179 84.1583 127.665 83.7066L128.602 82.9076L127.908 85.6175C127.491 87.2851 127.179 89.6128 127.179 91.6278C127.144 94.4419 127.248 95.1368 127.908 96.3875C129.886 100.105 134.884 101.112 139.951 98.7847C142.727 97.534 144.775 96.0053 148.246 92.6701L151.335 89.717L151.126 91.7668C150.814 94.7546 151.369 96.8739 152.827 98.3678C154.25 99.827 155.083 100.105 157.755 99.8964C165.148 99.3753 178.406 86.8682 190.379 69.115L191.872 66.961H189.651C187.568 66.961 187.36 67.0305 186.805 67.899C183.473 73.0756 174.38 83.0465 170.909 85.3743C167.924 87.3893 166.258 87.1114 166.571 84.6099C166.64 83.9151 172.228 73.9094 180.662 59.2482C188.332 45.942 194.614 34.9635 194.614 34.8593C194.614 34.7551 191.733 34.6509 188.228 34.6509H181.842L181.078 35.8321L180.349 37.0481L179.065 35.6236C175.49 31.663 170.284 32.0452 163.1 36.8396C155.881 41.6688 148.107 50.1458 138.563 63.6257C129.192 76.8972 120.168 86.3818 114.338 89.1264C110.312 91.0372 107.778 90.8982 105.8 88.6748C102.676 85.0963 103.613 79.3639 109.236 67.8295C113.609 58.8661 118.19 52.3346 124.854 45.7336C129.504 41.1129 131.795 39.5842 134.676 39.2716C137.209 38.9936 138.944 41.1476 138.077 43.4406C137.764 44.2049 137.487 44.3786 136.55 44.3786C131.76 44.3786 126.45 52.821 129.157 56.1562C129.921 57.129 131.621 57.5806 133.044 57.1985C135.057 56.6426 138.285 53.2031 140.02 49.6942C143.456 42.8847 142.762 36.9438 138.285 34.1645C136.932 33.3307 136.133 33.1222 133.947 32.9832C126.971 32.6011 121.73 35.5542 111.006 45.942C104.342 52.3693 101.288 54.836 97.2621 56.9205C94.3467 58.4144 93.0626 58.6576 93.375 57.6501C93.5138 57.3374 94.312 54.9402 95.2144 52.3693C96.6721 48.1655 96.8803 47.2622 97.0191 43.927C97.1233 41.5298 97.0191 39.6537 96.7415 38.6462C96.1862 36.7006 94.2426 34.4077 92.4379 33.5739C90.7373 32.8095 87.0237 32.74 84.4207 33.4349ZM90.2861 39.3063C93.6179 40.696 93.1667 48.4435 89.349 56.1909C88.2731 58.3797 88.2037 58.4492 87.0237 58.3449C84.0042 58.067 80.3253 55.5308 79.0065 52.8557C77.5141 49.6942 78.8677 45.4904 82.5466 41.8772C85.2884 39.2021 87.9261 38.3335 90.2861 39.3063ZM177.156 39.8969C177.399 40.1054 177.607 40.6265 177.607 41.0087C177.607 41.773 169.972 55.3224 162.198 68.3507C155.291 79.9545 152.549 83.4287 147.933 86.5208C146.268 87.6325 145.365 87.702 144.15 86.7292C143.456 86.1733 143.248 85.7217 143.248 84.6099C143.248 81.3789 147.031 72.5892 151.612 65.2586C155.256 59.3525 165.634 45.8378 168.896 42.711C171.985 39.6885 175.49 38.5072 177.156 39.8969ZM74.7029 55.0097C75.7441 56.9553 78.8677 59.5609 81.9566 61.0548C83.5183 61.8192 85.0107 62.4445 85.219 62.4445C86.0866 62.4445 85.5313 63.7647 82.616 68.4896C77.7918 76.3413 72.5511 82.5254 68.3516 85.3048C66.061 86.8334 63.1457 87.2503 62.0004 86.2081C59.2586 83.7414 59.8486 78.1827 63.7357 69.914C66.1998 64.7027 73.0023 53.759 73.7658 53.759C73.9047 53.759 74.3211 54.3149 74.7029 55.0097Z" fill="#E61D2A"/>
<path d="M201.069 40.0011C199.23 42.9542 197.737 45.4556 197.737 45.5598C197.737 45.664 200.444 45.7683 203.776 45.7683H209.85L213.147 40.418C214.986 37.4649 216.479 34.9635 216.479 34.8593C216.479 34.755 213.772 34.6508 210.44 34.6508H204.366L201.069 40.0011Z" fill="#E61D2A"/>
</g>
</svg>
