<svg width="116" height="38" viewBox="0 0 116 38" fill="none" xmlns="http://www.w3.org/2000/svg">
<path d="M22.3791 0.071361C20.8113 0.293949 19.3983 0.787514 17.395 1.82303C15.0724 3.03275 12.8271 4.69733 10.427 7.01031C4.44619 12.7589 0.633159 19.8817 0.0524945 26.3852C-0.121705 28.4078 0.139594 30.3918 0.807359 32.0757C1.8332 34.65 4.35909 36.4887 7.51404 36.9436C8.6173 37.1081 10.4367 37.0113 12.169 36.7016C13.7078 36.4307 17.5886 35.521 20.0854 34.8629C23.9178 33.837 26.9276 33.4402 29.347 33.6532C32.473 33.9241 34.7279 35.0371 36.1311 37.0017L36.5763 37.621L36.9538 37.1371C37.6022 36.3145 38.5796 35.6758 39.7022 35.3371C40.5829 35.0661 43.0314 35.0951 44.3669 35.3758C46.2347 35.7823 48.3251 36.6145 49.6026 37.4662C49.8735 37.6501 50.1058 37.7662 50.1058 37.7275C50.1058 37.592 48.3541 35.9177 47.5412 35.2693C44.5508 32.8886 42.2088 31.6692 39.6055 31.1466C35.8795 30.3918 31.8633 30.7305 25.4759 32.337C16.1369 34.679 14.0465 35.0855 11.84 34.979C10.2528 34.9016 9.19797 34.5822 7.76566 33.7693C4.00102 31.6111 4.20425 25.1271 8.27858 17.3461C10.9206 12.2847 15.8369 6.30383 19.5048 3.68116C20.3564 3.07146 21.9145 2.23918 22.7178 1.95852C23.3662 1.73593 24.1791 1.67787 24.5953 1.81336C25.0308 1.95852 25.3308 2.39402 25.3308 2.89726C25.3308 3.4489 25.263 3.536 24.7695 3.61342C24.2082 3.69084 23.7146 3.93278 23.3855 4.30054C22.4275 5.33606 22.1565 6.68126 22.7662 7.29096C23.0565 7.5813 23.6565 7.60065 24.2178 7.33935C24.9146 7.02966 25.7953 5.82962 26.2792 4.54248C26.6276 3.63277 26.6373 2.37467 26.3082 1.64883C25.7179 0.342338 24.3533 -0.209294 22.3791 0.071361Z" fill="#E61D2A"/>
<path d="M77.7842 0.177788C76.8455 0.34231 74.9583 1.02943 73.468 1.76494C70.6614 3.14886 68.2613 4.94892 65.3386 7.86192C62.5805 10.6104 61.0514 12.4782 58.8449 15.7686C56.5125 19.2526 54.9835 22.3689 53.9383 25.7367C53.3479 27.6336 53.164 28.9013 53.2318 30.5562C53.3189 32.8015 53.8705 34.2241 55.1383 35.5016C56.29 36.6726 57.519 37.1274 59.1352 37.0113C60.732 36.8855 61.8256 36.479 63.5096 35.3467C66.4226 33.4015 68.842 30.5466 70.5743 27.0335C71.3485 25.4657 71.6679 24.5754 71.9292 23.3463C72.1324 22.3979 72.1615 20.9075 71.9873 20.2301C71.4937 18.2752 69.7614 17.8397 67.2839 19.0494C64.0612 20.6172 61.7385 24.4689 61.003 29.4433L60.9449 29.8304L61.7288 29.0852C62.7063 28.1465 63.9354 27.2174 64.9806 26.6271C65.4257 26.3851 65.7838 26.1238 65.7838 26.0561C65.7838 25.727 66.3161 24.1593 66.6548 23.4818C67.8645 21.0624 69.3646 19.8139 70.4679 20.3075C71.2034 20.6462 71.1647 22.6495 70.3808 24.8464C69.1033 28.3884 65.9096 32.3176 63.1902 33.6918C61.9514 34.3209 60.9546 34.3596 59.9481 33.8273C59.0288 33.3338 58.4481 32.395 58.2255 31.0498C57.9352 29.3078 58.8062 25.5819 60.2482 22.3108C62.3482 17.5687 66.3258 11.8782 70.5453 7.57159C72.8002 5.26828 74.5325 3.87469 76.6229 2.70368C78.2778 1.76494 79.323 1.47461 80.1843 1.70687L80.6005 1.82301L79.7972 2.36496C76.8358 4.33922 74.5712 6.88447 73.1873 9.76844C72.4324 11.3459 72.3163 11.7717 72.3163 12.846C72.3163 13.6492 72.3453 13.8234 72.5583 14.1912C72.9163 14.8299 73.226 15.0138 74.0002 15.0525C74.5615 15.0912 74.7551 15.0525 75.3842 14.7815C76.6423 14.2589 77.7455 13.3782 78.8875 11.975C81.1424 9.20713 82.5167 5.85863 82.5263 3.10047V2.40367L82.8941 2.30689C83.8812 2.02624 85.4684 2.39399 87.5394 3.37145C88.7491 3.94243 89.0588 4.12631 92.1654 6.1296C93.5009 6.99092 94.7784 7.79418 95.001 7.91031L95.4171 8.11354L96.0074 7.45546C96.3365 7.09738 96.9655 6.42961 97.401 5.97476L98.2043 5.14247L96.6268 4.21341C94.3138 2.84885 91.6234 1.35847 90.8686 1.03911C89.1556 0.313277 87.2781 0.00358886 85.6232 0.177788C84.578 0.284244 84.307 0.34231 82.8941 0.806842L81.8586 1.14556L81.5392 0.913297C80.5424 0.168111 79.323 -0.0738331 77.7842 0.177788ZM81.336 3.76823C81.1618 6.62317 79.5746 9.82651 77.2036 12.1105C75.3745 13.8718 74.0583 14.375 73.526 13.4944C73.2647 13.0782 73.2841 12.5266 73.5744 11.6169C74.2325 9.52649 76.6132 6.3038 78.8294 4.48439C79.5069 3.94243 81.1327 2.87788 81.2973 2.87788C81.3553 2.87788 81.3747 3.20692 81.336 3.76823Z" fill="#E61D2A"/>
<path d="M115.431 0.710084C113.524 2.65531 110.553 4.61989 107.998 5.63606C106.488 6.2264 105.259 6.46835 103.479 6.51673L101.93 6.55544L101.456 7.05869C100.904 7.64903 99.3656 9.56523 99.3656 9.662C99.3656 9.76846 100.788 9.94266 101.717 9.94266C104.437 9.94266 107.476 8.83939 110.234 6.87481C111.163 6.20705 113.011 4.45537 113.795 3.49728C114.521 2.60692 116.127 0.16813 115.992 0.16813C115.973 0.16813 115.721 0.410074 115.431 0.710084Z" fill="#E61D2A"/>
<path d="M105.511 0.593965C103.759 1.15527 100.953 3.30373 97.8655 6.46836C93.4234 11.0169 89.5233 16.6784 85.9812 23.7141C85.4102 24.8464 84.9263 25.6884 84.8005 25.7755C84.5586 25.9303 83.1263 26.2497 83.0392 26.1723C83.0102 26.1432 83.1456 25.7561 83.3295 25.3109C84.2586 23.1528 84.5005 22.1657 84.4425 20.8011C84.3941 19.7656 84.2295 19.3107 83.7166 18.8172C83.3586 18.4881 82.9424 18.3623 82.1585 18.3623C80.1649 18.3623 77.3196 20.3172 74.8325 23.3947C71.6872 27.2852 69.8097 31.5144 69.9645 34.3306C70.1194 37.0597 72.0646 37.8049 74.7744 36.1791C77.2325 34.6984 79.5165 32.1144 81.8391 28.1756L82.3521 27.2949L83.3295 27.1884C83.8618 27.1207 84.3166 27.0916 84.336 27.111C84.365 27.1304 84.1328 27.9046 83.8328 28.8336C82.5263 32.8402 82.3327 34.6016 83.0585 35.8403C84.2876 37.9404 86.6877 37.2146 89.6007 33.8758L90.1233 33.2661V34.3596C90.133 35.2984 90.162 35.5113 90.3556 35.9081C90.704 36.6242 91.3911 37.0404 92.2234 37.0404C93.1428 37.0404 94.6331 36.1887 96.0751 34.8338L96.8977 34.0693V34.9984C96.8977 36.0532 97.0235 36.392 97.5461 36.7694C97.8074 36.9533 97.9913 36.992 98.5429 36.992C99.1526 36.992 99.3075 36.9533 100.043 36.5662C102.008 35.5597 103.682 33.9919 105.85 31.0886C106.788 29.8401 108.134 27.8755 108.24 27.6046C108.279 27.4884 108.182 27.4594 107.717 27.4594H107.146L106.372 28.5917C105.346 30.1208 104.292 31.437 103.45 32.2209C102.675 32.9467 101.824 33.5564 101.572 33.5564C101.349 33.5564 101.117 33.1983 101.175 32.9467C101.272 32.5305 102.172 30.7692 102.975 29.4433C103.614 28.3788 105.588 24.9045 109.014 18.8172C109.034 18.7785 108.23 18.7494 107.214 18.7494H105.375L105.104 19.2236L104.843 19.7075L104.321 19.1365C103.769 18.5172 103.43 18.3623 102.646 18.3623C101.524 18.3623 100.111 19.1172 98.33 20.6753C96.3654 22.3979 94.5557 24.7206 91.6233 29.2982C90.6072 30.8853 89.8814 31.8725 89.1652 32.666C88.6329 33.2467 87.9168 33.7499 87.6264 33.7499C87.3264 33.7499 86.92 33.2564 86.8522 32.8015C86.7071 31.9305 87.4329 29.3369 88.5265 26.782L89.1265 25.3787L90.404 24.4496C93.6847 22.0399 96.8977 18.972 100.488 14.8299C101.911 13.1847 103.808 10.6685 103.701 10.562C103.662 10.533 103.401 10.533 103.111 10.5717L102.579 10.6395L101.708 11.7718C99.1913 14.9945 95.146 19.2333 92.3008 21.614C91.3621 22.3979 90.462 23.0367 90.3846 22.9592C90.3169 22.9012 91.4104 20.7624 92.3589 19.1269C94.9622 14.588 97.9526 10.1749 100.44 7.18451C101.388 6.05222 103.75 3.70052 104.785 2.85856C105.637 2.16176 106.479 1.73594 106.711 1.88111C107.098 2.12305 106.885 3.12954 106.13 4.63926C105.84 5.21025 105.704 5.58768 105.772 5.58768C105.84 5.58768 106.121 5.52962 106.382 5.46187L106.866 5.34574L107.301 4.46506C107.805 3.46826 107.979 2.82953 107.979 1.98756C107.979 0.884297 107.563 0.458476 106.508 0.468154C106.179 0.468154 105.724 0.52622 105.511 0.593965ZM82.9231 20.1624C83.3973 20.5979 83.4166 22.1173 82.9618 23.4431C82.565 24.6045 81.8779 25.911 81.6746 25.911C81.394 25.911 80.552 25.369 80.1649 24.9432C79.652 24.3722 79.4294 23.8496 79.4294 23.1431C79.4294 22.3689 79.652 21.7592 80.1262 21.2173C81.094 20.114 82.3521 19.6398 82.9231 20.1624ZM103.953 20.5205L104.156 20.7914L103.953 21.1495C103.333 22.2528 100.004 28.0014 99.6559 28.5723C99.0752 29.5304 97.8074 31.3789 97.3042 32.0176C96.7042 32.7628 95.7654 33.4596 95.3396 33.4596C94.8944 33.4596 94.6235 33.179 94.6235 32.7047C94.6235 30.4014 98.63 23.8593 101.63 21.2463C102.869 20.1721 103.537 19.9591 103.953 20.5205ZM79.4391 25.911C79.7584 26.1723 80.2714 26.5303 80.5907 26.7045C81.2682 27.082 81.2682 27.0239 80.552 28.253C79.3713 30.295 77.5906 32.3951 76.4777 33.0628C75.4905 33.6628 74.6776 33.4886 74.3873 32.608C73.9808 31.3692 75.2486 28.2723 77.4261 25.2045L78.0939 24.2464L78.481 24.8464C78.6939 25.1755 79.1294 25.6497 79.4391 25.911Z" fill="#E61D2A"/>
<path d="M23.5404 9.31364C21.1016 9.98141 17.5789 13.0976 15.1207 16.7655C14.3659 17.8978 13.2529 20.085 12.9045 21.1495C12.0819 23.6077 12.0529 25.8142 12.8271 26.9271C12.982 27.1594 13.311 27.4304 13.611 27.5949C15.1401 28.4175 17.2982 27.4788 19.9887 24.8174C21.8081 23.0367 22.7178 21.8173 24.5469 18.7882L25.2534 17.6268L26.1243 17.4139C26.6082 17.2881 27.0147 17.2107 27.0341 17.2204C27.0437 17.2397 26.705 17.9656 26.2695 18.8462C25.1663 21.0624 24.8372 22.0883 24.7791 23.4432C24.6824 25.6207 25.3598 27.053 26.7728 27.682C27.1212 27.8369 27.4115 27.8756 28.0889 27.8756C30.0245 27.8562 31.8439 26.8788 34.302 24.5367C34.8827 23.9851 35.4634 23.4432 35.5989 23.3173L35.8602 23.0948L35.6666 23.8496C35.5505 24.3142 35.4634 24.9626 35.4634 25.5239C35.4537 26.3078 35.4827 26.5013 35.6666 26.8497C36.2182 27.8852 37.6118 28.1659 39.0248 27.5175C39.799 27.1691 40.37 26.7433 41.3378 25.8142L42.1991 24.9916L42.141 25.5626C42.0539 26.3949 42.2088 26.9852 42.6152 27.4014C43.012 27.8078 43.2443 27.8852 43.9895 27.8272C46.0508 27.682 49.7477 24.198 53.0866 19.2527L53.5027 18.6527H52.8833C52.3027 18.6527 52.2446 18.672 52.0898 18.914C51.1607 20.356 48.6251 23.1335 47.6573 23.7819C46.8251 24.3432 46.3605 24.2658 46.4476 23.569C46.467 23.3754 48.0251 20.5882 50.3768 16.5042C52.5156 12.7976 54.2672 9.73947 54.2672 9.71043C54.2672 9.6814 53.464 9.65236 52.4865 9.65236H50.7058L50.4929 9.98141L50.2897 10.3201L49.9316 9.92334C48.9348 8.82008 47.4831 8.92653 45.4798 10.2621C43.4669 11.6073 41.2991 13.9686 38.6377 17.7236C36.0247 21.4205 33.5085 24.0625 31.8826 24.8271C30.76 25.3594 30.0535 25.3206 29.5019 24.7013C28.6309 23.7045 28.8922 22.1076 30.46 18.8946C31.6794 16.3978 32.9568 14.5783 34.815 12.7396C36.1118 11.4524 36.7505 11.0266 37.5538 10.9395C38.2602 10.8621 38.7441 11.4621 38.5022 12.1008C38.4151 12.3137 38.3377 12.3621 38.0764 12.3621C36.7408 12.3621 35.2601 14.7138 36.015 15.6429C36.2279 15.9139 36.7021 16.0397 37.0989 15.9332C37.6602 15.7784 38.5603 14.8203 39.0441 13.8428C40.0022 11.946 39.8087 10.2911 38.5603 9.51688C38.1828 9.28461 37.9602 9.22654 37.3505 9.18783C35.4053 9.08138 33.944 9.90399 30.9535 12.7976C29.0954 14.588 28.2438 15.2751 27.1212 15.8558C26.3082 16.2719 25.9502 16.3397 26.0372 16.059C26.076 15.9719 26.2985 15.3042 26.5502 14.588C26.9566 13.417 27.0147 13.1654 27.0534 12.2363C27.0824 11.5686 27.0534 11.046 26.976 10.7653C26.8211 10.2234 26.2792 9.58462 25.776 9.35235C25.3017 9.13944 24.2662 9.12009 23.5404 9.31364ZM25.1759 10.9492C26.105 11.3363 25.9792 13.4944 24.9146 15.6526C24.6146 16.2623 24.5953 16.2816 24.2662 16.2526C23.4243 16.1752 22.3984 15.4687 22.0307 14.7235C21.6145 13.8428 21.992 12.6718 23.0178 11.6653C23.7823 10.9202 24.5178 10.6782 25.1759 10.9492ZM49.3993 11.1137C49.4671 11.1718 49.5251 11.3169 49.5251 11.4234C49.5251 11.6363 47.396 15.4106 45.2282 19.0398C43.3024 22.2721 42.5378 23.2399 41.2507 24.1012C40.7861 24.4109 40.5345 24.4303 40.1958 24.1593C40.0022 24.0045 39.9442 23.8787 39.9442 23.569C39.9442 22.6689 40.9991 20.2205 42.2765 18.1785C43.2927 16.5332 46.1863 12.7686 47.096 11.8976C47.9574 11.0556 48.9348 10.7266 49.3993 11.1137ZM20.8306 15.3235C21.121 15.8655 21.992 16.5913 22.8533 17.0075C23.2888 17.2204 23.7049 17.3946 23.763 17.3946C24.0049 17.3946 23.8501 17.7623 23.0371 19.0785C21.6919 21.2657 20.2306 22.9883 19.0596 23.7625C18.4209 24.1883 17.6079 24.3045 17.2886 24.0141C16.524 23.327 16.6885 21.7786 17.7725 19.4753C18.4596 18.0236 20.3564 14.9751 20.5693 14.9751C20.608 14.9751 20.7242 15.13 20.8306 15.3235Z" fill="#E61D2A"/>
<path d="M56.0673 11.1427C55.5544 11.9653 55.1382 12.6621 55.1382 12.6911C55.1382 12.7202 55.8931 12.7492 56.8222 12.7492H58.5158L59.4351 11.2588C59.9481 10.4362 60.3642 9.73943 60.3642 9.71039C60.3642 9.68136 59.6093 9.65233 58.6803 9.65233H56.9867L56.0673 11.1427Z" fill="#E61D2A"/>
</svg>
