<svg width="267" height="87" viewBox="0 0 267 87" fill="none" xmlns="http://www.w3.org/2000/svg">
<path d="M51.5104 0.164213C47.9018 0.67655 44.6496 1.8126 40.0385 4.19608C34.6924 6.98052 29.5245 10.8119 24.0002 16.1358C10.2339 29.3674 1.45736 45.7622 0.120828 60.7313C-0.280131 65.3869 0.321307 69.9534 1.85832 73.8293C4.21952 79.7546 10.0334 83.987 17.2952 85.0339C19.8347 85.4126 24.0224 85.1898 28.0098 84.477C31.5516 83.8533 40.4841 81.7594 46.2311 80.2447C55.0522 77.8835 61.9799 76.9702 67.5488 77.4602C74.7438 78.084 79.934 80.6456 83.1639 85.1676L84.1886 86.5932L85.0573 85.4794C86.5498 83.586 88.7996 82.1158 91.3836 81.3362C93.4107 80.7125 99.0464 80.7793 102.12 81.4253C106.42 82.3608 111.231 84.2765 114.171 86.2368C114.795 86.66 115.33 86.9273 115.33 86.8382C115.33 86.5264 111.298 82.6727 109.427 81.1802C102.544 75.7005 97.1529 72.8938 91.1608 71.6909C82.5848 69.9534 73.3404 70.733 58.6386 74.4308C37.1427 79.8214 32.3312 80.757 27.2524 80.512C23.5992 80.3338 21.1712 79.5987 17.8744 77.7275C9.20924 72.7601 9.67702 57.8355 19.055 39.926C25.1362 28.2759 36.4522 14.5096 44.8946 8.47298C46.8548 7.06962 50.4412 5.15393 52.2901 4.50794C53.7825 3.9956 55.6537 3.86195 56.6115 4.1738C57.6139 4.50794 58.3045 5.51034 58.3045 6.66866C58.3045 7.93837 58.1485 8.13885 57.0125 8.31705C55.7205 8.49525 54.5844 9.05214 53.8271 9.89861C51.6218 12.2821 50.9981 15.3784 52.4014 16.7817C53.0697 17.45 54.4508 17.4946 55.7428 16.8931C57.3466 16.1803 59.3737 13.4181 60.4875 10.4555C61.2894 8.3616 61.3117 5.46578 60.5543 3.79512C59.1955 0.787927 56.0546 -0.481777 51.5104 0.164213Z" fill="#E61D2A"/>
<path d="M179.038 0.409207C176.877 0.787891 172.533 2.36945 169.103 4.06239C162.643 7.24779 157.119 11.391 150.391 18.096C144.043 24.4222 140.523 28.7214 135.445 36.2951C130.076 44.3142 126.557 51.4869 124.151 59.2388C122.792 63.6048 122.369 66.5229 122.525 70.332C122.725 75.4999 123.995 78.7744 126.913 81.7148C129.564 84.4102 132.393 85.4571 136.113 85.1898C139.788 84.9002 142.305 83.9646 146.181 81.3584C152.886 76.881 158.455 70.3098 162.443 62.2237C164.225 58.6151 164.96 56.5658 165.561 53.7368C166.029 51.5538 166.096 48.1233 165.695 46.5641C164.559 42.0644 160.571 41.062 154.869 43.8464C147.451 47.4551 142.105 56.3207 140.412 67.7703L140.278 68.6614L142.083 66.9462C144.333 64.7854 147.162 62.647 149.567 61.2882C150.592 60.7313 151.416 60.1298 151.416 59.9739C151.416 59.2165 152.641 55.6079 153.421 54.0486C156.205 48.4798 159.658 45.6062 162.197 46.7423C163.89 47.5219 163.801 52.1329 161.997 57.1895C159.057 65.3423 151.706 74.3862 145.446 77.5493C142.595 78.9972 140.301 79.0863 137.984 77.8612C135.868 76.7251 134.531 74.5644 134.019 71.4681C133.351 67.4585 135.356 58.8824 138.675 51.3533C143.508 40.4383 152.664 27.3403 162.376 17.4277C167.566 12.1261 171.553 8.91845 176.365 6.22312C180.174 4.06239 182.58 3.39413 184.562 3.92874L185.52 4.19604L183.671 5.44347C176.855 9.98768 171.642 15.8461 168.457 22.4842C166.719 26.1151 166.452 27.0953 166.452 29.5678C166.452 31.4167 166.519 31.8177 167.009 32.6641C167.833 34.1343 168.546 34.5576 170.328 34.6467C171.62 34.7358 172.066 34.6467 173.513 34.023C176.409 32.8201 178.949 30.793 181.577 27.5631C186.767 21.1923 189.931 13.4849 189.953 7.13641V5.53257L190.799 5.30982C193.071 4.66383 196.725 5.5103 201.491 7.76013C204.276 9.07438 204.989 9.49762 212.139 14.1086C215.213 16.0912 218.154 17.94 218.666 18.2073L219.624 18.6751L220.983 17.1604C221.74 16.3362 223.188 14.7992 224.19 13.7522L226.039 11.8365L222.408 9.69809C217.084 6.55725 210.892 3.12682 209.154 2.39173C205.212 0.721065 200.89 0.00824825 197.081 0.409207C194.675 0.654238 194.051 0.787891 190.799 1.85712L188.416 2.63676L187.681 2.10215C185.386 0.386932 182.58 -0.169956 179.038 0.409207ZM187.213 8.67342C186.812 15.2447 183.159 22.6179 177.701 27.8749C173.491 31.9291 170.462 33.0874 169.237 31.0603C168.635 30.1025 168.68 28.8328 169.348 26.7389C170.863 21.9273 176.342 14.5096 181.444 10.3218C183.003 9.07438 186.745 6.62407 187.124 6.62407C187.257 6.62407 187.302 7.38144 187.213 8.67342Z" fill="#E61D2A"/>
<path d="M265.69 1.63442C261.301 6.11179 254.463 10.6337 248.582 12.9727C245.107 14.3315 242.278 14.8883 238.179 14.9997L234.615 15.0888L233.524 16.2472C232.254 17.606 228.712 22.0165 228.712 22.2393C228.712 22.4843 231.987 22.8853 234.125 22.8853C240.385 22.8853 247.379 20.3458 253.728 15.8239C255.866 14.2869 260.121 10.255 261.925 8.04976C263.596 6.00042 267.293 0.386988 266.981 0.386988C266.937 0.386988 266.358 0.943875 265.69 1.63442Z" fill="#E61D2A"/>
<path d="M242.857 1.36714C238.825 2.65912 232.365 7.60428 225.259 14.8884C215.035 25.3579 206.058 38.389 197.905 54.5833C196.591 57.1896 195.477 59.1275 195.187 59.328C194.63 59.6844 191.334 60.4195 191.133 60.2413C191.066 60.1745 191.378 59.2835 191.801 58.2588C193.94 53.2914 194.497 51.0193 194.363 47.8784C194.252 45.4949 193.873 44.448 192.693 43.3119C191.868 42.5546 190.91 42.265 189.106 42.265C184.517 42.265 177.968 46.7646 172.244 53.8482C165.004 62.803 160.683 72.5374 161.039 79.0196C161.395 85.3013 165.873 87.0165 172.11 83.2742C177.768 79.866 183.025 73.9185 188.371 64.8523L189.552 62.8253L191.801 62.5802C193.027 62.4243 194.074 62.3575 194.118 62.402C194.185 62.4466 193.65 64.2286 192.96 66.3671C189.953 75.5891 189.507 79.6433 191.178 82.4946C194.007 87.3283 199.531 85.6577 206.236 77.9726L207.439 76.5693V79.0864C207.461 81.2471 207.528 81.7372 207.974 82.6505C208.775 84.2989 210.357 85.2567 212.273 85.2567C214.389 85.2567 217.819 83.2965 221.138 80.1779L223.032 78.4181V80.5566C223.032 82.9846 223.321 83.7643 224.524 84.633C225.126 85.0562 225.549 85.1453 226.819 85.1453C228.222 85.1453 228.578 85.0562 230.271 84.1652C234.793 81.8486 238.647 78.2399 243.637 71.5573C245.797 68.6837 248.894 64.1618 249.139 63.5381C249.228 63.2708 249.005 63.204 247.936 63.204H246.622L244.839 65.8102C242.478 69.3297 240.05 72.3592 238.112 74.1635C236.33 75.8342 234.37 77.2375 233.791 77.2375C233.278 77.2375 232.744 76.4133 232.878 75.8342C233.1 74.8763 235.172 70.8222 237.021 67.7704C238.491 65.3201 243.035 57.3232 250.921 43.3119C250.965 43.2228 249.116 43.156 246.777 43.156H242.545L241.921 44.2475L241.32 45.3613L240.117 44.047C238.847 42.6214 238.068 42.265 236.263 42.265C233.679 42.265 230.427 44.0025 226.329 47.5888C221.807 51.5539 217.641 56.9 210.892 67.4363C208.553 71.0895 206.882 73.3616 205.234 75.1882C204.008 76.5247 202.36 77.683 201.692 77.683C201.001 77.683 200.066 76.547 199.91 75.5C199.576 73.4952 201.246 67.5254 203.763 61.6447L205.145 58.4147L208.085 56.2763C215.636 50.7297 223.032 43.6683 231.296 34.1344C234.57 30.3476 238.936 24.5559 238.691 24.3109C238.602 24.2441 238.001 24.2441 237.333 24.3332L236.107 24.4891L234.103 27.0954C228.311 34.5131 219 44.2698 212.451 49.7495C210.29 51.5539 208.219 53.024 208.04 52.8458C207.884 52.7122 210.402 47.7893 212.585 44.0247C218.577 33.5775 225.46 23.4199 231.185 16.5368C233.368 13.9305 238.803 8.51758 241.186 6.57961C243.147 4.97577 245.085 3.99565 245.619 4.32978C246.51 4.88667 246.02 7.20332 244.283 10.6783C243.614 11.9926 243.302 12.8613 243.458 12.8613C243.614 12.8613 244.26 12.7276 244.862 12.5717L245.976 12.3044L246.978 10.2773C248.136 7.98297 248.537 6.51278 248.537 4.57481C248.537 2.0354 247.579 1.05528 245.151 1.07756C244.394 1.07756 243.347 1.21121 242.857 1.36714ZM190.866 46.4082C191.957 47.4106 192.002 50.9079 190.955 53.9596C190.042 56.6327 188.46 59.6399 187.992 59.6399C187.346 59.6399 185.408 58.3924 184.517 57.4123C183.337 56.0981 182.824 54.8952 182.824 53.2691C182.824 51.487 183.337 50.0837 184.428 48.8363C186.656 46.2968 189.552 45.2053 190.866 46.4082ZM239.271 47.2324L239.738 47.8561L239.271 48.6803C237.845 51.2197 230.182 64.4514 229.38 65.7656C228.044 67.9709 225.126 72.2255 223.967 73.6957C222.586 75.4109 220.426 77.0148 219.445 77.0148C218.421 77.0148 217.797 76.3688 217.797 75.2773C217.797 69.9757 227.019 54.9175 233.924 48.9031C236.776 46.4305 238.313 45.9404 239.271 47.2324ZM182.847 59.6399C183.582 60.2413 184.762 61.0655 185.498 61.4665C187.057 62.3352 187.057 62.2016 185.408 65.0305C182.691 69.7307 178.592 74.5645 176.03 76.1015C173.758 77.4826 171.887 77.0816 171.219 75.0545C170.283 72.2033 173.201 65.0751 178.213 58.0138L179.75 55.8085L180.641 57.1896C181.132 57.9469 182.134 59.0384 182.847 59.6399Z" fill="#E61D2A"/>
<path d="M54.1834 21.4374C48.5699 22.9744 40.4616 30.1471 34.8037 38.5895C33.0662 41.1958 30.5045 46.23 29.7026 48.6803C27.8092 54.3383 27.7423 59.4171 29.5244 61.9788C29.8808 62.5134 30.6381 63.1371 31.3287 63.5158C34.8482 65.4092 39.8157 63.2485 46.0082 57.1227C50.196 53.0241 52.2899 50.2173 56.5 43.2451L58.1261 40.572L60.1309 40.082C61.2447 39.7924 62.1803 39.6142 62.2248 39.6365C62.2471 39.681 61.4674 41.3517 60.465 43.3788C57.9256 48.4799 57.1683 50.8411 57.0346 53.9596C56.8119 58.9716 58.3712 62.2684 61.6234 63.7163C62.4253 64.0727 63.0936 64.1618 64.6528 64.1618C69.1079 64.1173 73.2957 61.8674 78.9537 56.4768C80.2903 55.2071 81.6268 53.9596 81.9386 53.67L82.5401 53.1577L82.0946 54.8952C81.8273 55.9644 81.6268 57.4569 81.6268 58.7489C81.6045 60.5532 81.6713 60.9987 82.0946 61.8006C83.3643 64.1841 86.572 64.8301 89.8242 63.3376C91.6062 62.5357 92.9205 61.5556 95.148 59.4171L97.1305 57.5237L96.9969 58.838C96.7964 60.7537 97.1528 62.1125 98.0884 63.0703C99.0017 64.0059 99.5363 64.1841 101.252 64.0504C105.996 63.7163 114.505 55.6971 122.19 44.3143L123.148 42.9333H121.723C120.386 42.9333 120.253 42.9778 119.896 43.5347C117.758 46.8537 111.921 53.2468 109.694 54.7393C107.778 56.0312 106.709 55.853 106.909 54.2492C106.954 53.8037 110.54 47.3884 115.953 37.9881C120.876 29.4566 124.908 22.4175 124.908 22.3507C124.908 22.2839 123.059 22.217 120.809 22.217H116.711L116.221 22.9744L115.753 23.754L114.929 22.8407C112.634 20.3013 109.293 20.5464 104.682 23.6204C100.049 26.7167 95.0589 32.1519 88.9332 40.7948C82.9188 49.304 77.1271 55.3853 73.3848 57.145C70.8009 58.3702 69.1748 58.2811 67.9051 56.8554C65.9003 54.5611 66.5017 50.8856 70.1103 43.4901C72.9171 37.7431 75.8574 33.5553 80.1343 29.3229C83.1192 26.3603 84.5894 25.3801 86.4383 25.1797C88.0644 25.0015 89.1782 26.3825 88.6213 27.8527C88.4208 28.3428 88.2426 28.4542 87.6412 28.4542C84.5672 28.4542 81.159 33.8671 82.8965 36.0056C83.3866 36.6293 84.4781 36.9189 85.3913 36.6738C86.6833 36.3174 88.7549 34.1122 89.8687 31.8623C92.074 27.4963 91.6285 23.6872 88.755 21.9052C87.8862 21.3706 87.3739 21.2369 85.9705 21.1478C81.4931 20.9028 78.1295 22.7962 71.2464 29.4566C66.9695 33.5775 65.0093 35.1591 62.4253 36.4956C60.5542 37.4535 59.73 37.6094 59.9304 36.9634C60.0195 36.7629 60.5319 35.2259 61.111 33.5775C62.0466 30.8822 62.1803 30.303 62.2694 28.1646C62.3362 26.6276 62.2694 25.4247 62.0912 24.7787C61.7348 23.5313 60.4873 22.0611 59.329 21.5265C58.2375 21.0364 55.854 20.9919 54.1834 21.4374ZM57.9479 25.2019C60.0864 26.093 59.7968 31.0604 57.3465 36.0278C56.6559 37.4312 56.6114 37.4758 55.854 37.4089C53.9161 37.2307 51.5548 35.6046 50.7084 33.8894C49.7505 31.8623 50.6193 29.167 52.9805 26.8503C54.7402 25.1351 56.4332 24.5782 57.9479 25.2019ZM113.704 25.5806C113.859 25.7143 113.993 26.0484 113.993 26.2934C113.993 26.7835 109.092 35.471 104.103 43.8243C99.6699 51.2643 97.9102 53.4918 94.9475 55.4744C93.8783 56.1872 93.2992 56.2317 92.5195 55.608C92.074 55.2516 91.9403 54.962 91.9403 54.2492C91.9403 52.1776 94.3684 46.5419 97.3087 41.8418C99.6477 38.0549 106.308 29.3897 108.402 27.3849C110.384 25.447 112.634 24.6896 113.704 25.5806ZM47.9462 35.2705C48.6145 36.5179 50.6193 38.1886 52.6018 39.1464C53.6042 39.6365 54.562 40.0374 54.6957 40.0374C55.2526 40.0374 54.8962 40.8839 53.025 43.9134C49.9287 48.9476 46.5651 52.9127 43.8698 54.6947C42.3996 55.6748 40.5285 55.9421 39.7934 55.2739C38.0336 53.6923 38.4123 50.1282 40.9072 44.8267C42.4887 41.4853 46.8547 34.4686 47.3448 34.4686C47.4339 34.4686 47.7012 34.825 47.9462 35.2705Z" fill="#E61D2A"/>
<path d="M129.052 25.6474C127.871 27.5408 126.913 29.1446 126.913 29.2114C126.913 29.2783 128.651 29.3451 130.789 29.3451H134.687L136.803 25.9147C137.984 24.0212 138.942 22.4174 138.942 22.3506C138.942 22.2838 137.204 22.2169 135.066 22.2169H131.168L129.052 25.6474Z" fill="#E61D2A"/>
</svg>
