<svg width="23" height="23" viewBox="0 0 23 23" fill="none" xmlns="http://www.w3.org/2000/svg">
<path d="M17.1333 11.5L17.3926 11.2407L17.6518 11.5L17.3926 11.7592L17.1333 11.5ZM1.73331 11.8666C1.5308 11.8666 1.36664 11.7025 1.36664 11.5C1.36664 11.2975 1.5308 11.1333 1.73331 11.1333V11.8666ZM12.2592 6.10737L17.3926 11.2407L16.874 11.7592L11.7407 6.62591L12.2592 6.10737ZM17.3926 11.7592L12.2592 16.8926L11.7407 16.374L16.874 11.2407L17.3926 11.7592ZM17.1333 11.8666H1.73331V11.1333H17.1333V11.8666Z" fill="#222222"/>
<path d="M1.36666 11.5C1.36666 17.3726 6.12737 22.1333 12 22.1333C17.8726 22.1333 22.6333 17.3726 22.6333 11.5C22.6333 5.62737 17.8726 0.866667 12 0.866667C6.12737 0.866667 1.36666 5.62737 1.36666 11.5Z" stroke="black" stroke-width="0.733333"/>
</svg>
