<svg width="393" height="415" viewBox="0 0 393 415" fill="none" xmlns="http://www.w3.org/2000/svg">
<path d="M302.764 2.28129C302.432 3.48905 302.3 6.84394 302.3 9.66204L302.432 14.7615L303.029 9.72914C303.294 6.97813 303.493 3.62325 303.427 2.34839L303.228 -3.43323e-05L302.764 2.28129Z" fill="#9E020D" fill-opacity="0.3"/>
<path d="M354.741 6.911C350.166 9.39362 345.459 13.2182 343.006 16.5731C341.946 18.0492 340.156 20.0622 339.161 21.0686C330.808 29.0533 329.879 30.1939 327.692 34.7566C326.432 37.4405 325.04 41.6005 324.509 43.949C324.045 46.3645 322.852 49.5181 321.857 50.9271C318.94 55.3556 317.813 60.1866 317.813 68.4396C317.88 74.6126 318.145 76.3572 319.338 79.1082C321.261 83.4024 321.725 82.8657 320.134 78.1688C318.344 73.0023 318.344 63.0047 320.134 57.1672C321.924 51.2626 322.985 50.5245 324.377 54.0136C325.106 55.8924 325.835 56.6975 326.764 56.6975C328.487 56.6975 329.614 54.3491 329.15 51.7994C328.62 49.1826 327.625 47.9748 325.968 47.9748C324.775 47.9748 324.708 47.7064 325.106 45.4922C326.299 38.8495 329.548 32.1398 334.123 26.9732C337.437 23.0816 338.366 23.0145 338.366 26.5035C338.366 29.59 340.156 32.0056 341.482 30.6636C342.476 29.6571 342.476 24.1551 341.415 22.8803C340.686 22.008 340.819 21.4041 342.012 19.5254C345.26 14.1575 356.398 5.83743 359.316 6.57551C360.111 6.7768 360.575 6.57551 360.575 5.97163C360.575 4.56258 358.586 4.83096 354.741 6.911ZM341.349 26.9061C341.349 28.5165 341.084 29.1875 340.553 29.0533C339.559 28.7178 339.095 26.2351 339.625 24.759C340.288 23.0816 341.349 24.4235 341.349 26.9061ZM327.029 49.7194C328.288 50.9271 328.421 54.4162 327.294 55.0872C325.703 56.0937 323.78 50.5245 325.239 49.1155C325.835 48.5116 325.835 48.5116 327.029 49.7194Z" fill="#9E020D" fill-opacity="0.3"/>
<path d="M187.34 10.1991C185.218 13.6882 184.091 36.7698 185.55 46.6332C185.881 49.0487 186.213 51.1958 186.213 51.4642C186.213 51.7997 186.478 52.001 186.81 52.001C187.141 52.001 187.075 50.7261 186.743 49.1158C186.345 47.5725 186.014 40.2589 186.014 32.8781C185.948 22.2096 186.147 18.5192 187.075 14.8288C188.136 10.6017 188.202 8.72292 187.34 10.1991Z" fill="#9E020D" fill-opacity="0.3"/>
<path d="M318.079 12.5473C313.504 18.8545 310.72 26.9733 309.858 36.5012C309.526 40.0574 309.592 41.3323 310.123 40.9968C310.521 40.7284 310.852 38.9167 310.852 36.9709C310.852 29.5902 314.963 18.0493 319.471 12.8828C321.592 10.4002 321.857 9.72922 320.797 9.72922C320.465 9.72922 319.206 11.0041 318.079 12.5473Z" fill="#9E020D" fill-opacity="0.3"/>
<path d="M59.7176 18.1164C59.8502 18.4519 61.1098 20.599 62.3695 22.8132C63.6954 25.0275 65.4192 28.7849 66.2147 31.2005C68.0048 36.2999 69.1981 38.0444 68.6015 34.5553C67.9385 31.2676 62.6347 20.3306 60.8447 18.7874C60.0491 18.0493 59.5187 17.7138 59.7176 18.1164Z" fill="#9E020D" fill-opacity="0.3"/>
<path d="M250.19 20.1965C235.406 21.7397 226.058 24.5578 213.793 31.0663C207.296 34.5554 199.804 41.0639 198.412 44.4188C196.821 48.2433 197.218 70.1843 199.141 87.6297C200.069 95.8157 200.666 102.66 200.533 102.861C200.334 102.995 199.34 102.123 198.345 100.915C192.776 94.1382 186.876 89.7769 176.202 84.6104C160.224 76.8941 148.689 73.8076 136.158 73.8747C123.098 74.0089 117.33 76.4244 112.689 83.8723C110.435 87.4955 100.689 107.558 95.5845 119.099C91.7392 127.821 81.5294 153.453 79.9383 158.351C71.6511 183.781 69.8611 214.31 75.43 234.842C78.3471 245.444 84.115 259.601 87.8277 265.238C92.3359 272.014 92.4022 271.478 86.8995 287.514C84.7117 293.955 78.8112 311.736 73.8389 327.035C64.2258 356.491 58.259 372.997 56.6016 374.674C56.0049 375.345 53.5519 375.815 49.5078 376.15C46.1266 376.351 39.0328 377.224 33.729 377.962C28.4252 378.7 21.1988 379.639 17.6187 379.975C14.105 380.31 10.989 380.78 10.7901 380.981C9.66303 382.122 12.0497 384.604 19.1436 389.637C39.8283 404.13 58.5905 410.907 86.7006 413.993C91.9381 414.53 97.6397 415 99.4297 415C103.076 415 105.993 414.06 105.993 412.853C105.993 412.45 98.7004 404.801 89.7503 395.944L73.5074 379.773L75.1649 374.07C76.093 370.917 79.0764 361.724 81.7946 353.605C84.4465 345.486 88.8221 332.067 91.4077 323.747C97.706 303.617 103.872 284.629 105.396 280.402C106.656 277.047 106.855 276.845 111.695 274.698C119.385 271.343 134.899 262.419 139.076 258.93C146.037 253.227 157.175 241.552 162.081 235.044C169.838 224.509 181.572 200.086 185.484 186.196C186.544 182.305 188.202 176.736 189.064 173.783C192.843 161.37 197.484 139.295 198.81 127.419C200.732 110.309 200.931 108.9 201.528 109.504C201.793 109.772 203.384 116.549 205.108 124.466C210.61 149.896 216.511 164.993 227.649 181.835C236.268 194.852 239.384 198.341 249.527 206.594C260.864 215.854 263.516 217.665 270.477 221.087C273.527 222.563 276.179 223.972 276.444 224.308C276.775 224.576 278.035 229.877 279.361 236.184C280.687 242.424 283.272 253.63 285.062 261.01C286.786 268.391 290.698 285.3 293.615 298.585C296.532 311.87 299.383 324.284 299.847 326.229C300.576 328.846 300.576 329.987 299.979 330.658C299.184 331.731 292.289 337.569 287.648 341.192C285.991 342.467 282.742 345.151 280.355 347.231C277.969 349.311 274.72 351.995 273.063 353.27C265.637 358.906 264.179 361.389 267.626 362.731C270.013 363.737 301.106 362.395 308.863 360.919C319.338 359.04 335.979 352.934 349.636 345.956C359.78 340.723 362.299 339.179 362.431 337.972C362.63 336.898 362.166 336.294 360.774 335.757C359.05 335.086 330.94 328.913 320.465 326.967L315.824 326.095L313.968 317.373C312.907 312.541 310.123 300.665 307.802 290.869C305.416 281.073 302.764 269.599 301.836 265.372C300.245 257.857 295.537 238.935 292.952 229.474C291.029 222.362 291.162 221.423 294.676 217.531C296.664 215.317 299.184 211.023 301.703 205.655C303.891 201.025 306.941 194.516 308.532 191.229C313.04 181.835 314.034 177.541 317.482 153.184C318.609 145.334 316.156 121.917 312.443 105.746C307.869 85.3484 296.863 54.1479 286.388 31.7373L283.604 25.8327L278.698 23.4843C273.328 20.8675 266.433 19.1229 261.792 19.19C260.135 19.2571 254.963 19.6597 250.19 20.1965ZM275.516 23.0817C278.499 24.2895 281.217 25.6314 281.615 26.1011C284.134 29.1205 265.836 40.7284 249.859 46.1633C233.284 51.8666 211.273 53.0073 202.787 48.6459C199.075 46.7672 198.677 45.8949 200.069 43.5465C201.528 41.0639 207.229 36.0987 211.738 33.3477C216.644 30.3954 230.5 24.6249 235.737 23.4843C243.494 21.7397 255.162 20.532 262.786 20.7333C269.217 20.8675 270.742 21.2029 275.516 23.0817ZM294.609 53.0073C298.189 62.0655 303.029 76.2231 307.073 89.5756C309.261 96.8221 312.841 111.047 312.841 112.523C312.841 112.859 311.847 112.59 310.719 111.852C303.559 107.356 287.714 104.941 262.786 104.538C246.875 104.203 243.627 104.337 234.279 105.612C217.174 108.027 209.483 110.107 205.97 113.529L204.246 115.207L203.517 112.657C202.721 109.638 201.925 104.404 200.003 87.8981C198.677 76.156 197.749 47.975 198.677 47.975C198.942 47.975 200.533 48.713 202.257 49.5853C211.141 54.1479 232.82 53.0744 249.925 47.304C262.19 43.211 275.847 35.6961 281.018 30.1941L283.339 27.7785L287.184 36.0316C289.372 40.5942 292.687 48.1763 294.609 53.0073ZM149.617 76.156C160.689 78.6386 174.478 84.0736 183.826 89.6427C188.997 92.7292 199.008 102.391 199.671 104.874C200.202 107.222 197.682 108.43 190.655 109.168C177.727 110.577 167.915 108.967 150.678 102.593C136.424 97.426 127.606 92.2595 122.435 86.0865C119.717 82.7987 117.927 80.1148 117.927 79.2425C117.927 78.5715 122.236 76.5586 125.551 75.7534C130.855 74.4115 142.921 74.6128 149.617 76.156ZM118.789 83.4026C123.032 89.5085 129.396 94.4066 139.606 99.3719C146.302 102.525 162.611 108.095 169.108 109.369C176.136 110.711 190.655 110.711 195.76 109.369C197.948 108.766 199.738 108.43 199.87 108.497C200.003 108.698 197.948 127.217 196.821 135.135C195.826 142.247 189.196 171.099 187.539 175.662C186.743 177.742 185.815 179.487 185.484 179.487C185.152 179.487 183.76 178.95 182.368 178.212C178.058 176.065 169.572 173.515 161.683 172.106C144.313 169.019 108.977 168.617 95.9159 171.435C90.2807 172.643 80.8664 175.528 77.2201 177.138C76.093 177.675 76.0267 177.474 76.4245 175.058C76.6897 173.649 77.9493 168.684 79.209 164.054C84.8443 144.059 113.153 80.8529 116.534 80.8529C116.866 80.8529 117.86 81.9935 118.789 83.4026ZM287.714 107.021C298.72 108.564 304.753 109.973 308.068 111.651C316.288 115.878 313.438 119.501 299.117 123.057C286.72 126.077 283.67 126.479 265.438 126.882C238.787 127.553 214.522 124.869 208.423 120.575C203.185 116.884 205.041 113.395 213.66 110.644C218.102 109.235 229.77 107.155 243.229 105.411C248.798 104.74 278.963 105.813 287.714 107.021ZM315.559 130.841C317.349 146.474 316.288 161.974 312.443 177.474C310.985 183.177 306.941 192.839 299.847 207.332C294.874 217.531 290.366 221.825 283.339 223.033C279.228 223.771 278.83 223.704 274.389 221.825C267.891 219.074 260.864 214.512 251.516 206.997C241.505 198.878 236.798 193.711 229.174 182.238C222.146 171.636 215.914 159.089 212.4 148.555C210.08 141.308 205.174 121.179 205.638 120.642C205.771 120.508 207.229 121.179 208.82 122.051C212.202 123.997 218.699 125.406 230.5 126.882C240.378 128.09 276.775 128.291 285.328 127.15C296.333 125.674 308.399 121.984 312.51 118.897C313.769 117.891 313.835 117.958 314.233 120.306C314.432 121.648 315.029 126.412 315.559 130.841ZM139.473 170.764C156.976 171.77 169.705 174.052 179.252 177.943C186.014 180.694 185.815 182.976 178.589 185.123C173.55 186.666 163.274 188.88 157.705 189.618C150.412 190.625 130.125 190.424 120.579 189.216C116.004 188.679 109.971 188.209 107.187 188.209C97.3745 188.209 76.1593 182.909 76.1593 180.493C76.1593 178.145 80.2035 176.4 91.9381 173.515C105.065 170.294 118.192 169.556 139.473 170.764ZM79.872 183.915C85.6398 186.532 97.7723 188.88 108.314 189.551C113.418 189.887 121.507 190.491 126.214 190.893C140.07 192.235 156.644 191.43 168.246 188.947C173.484 187.807 179.451 186.129 181.373 185.19L184.953 183.512L184.556 185.727C182.5 195.456 168.512 224.509 160.954 234.708C154.987 242.827 142.788 254.904 135.164 260.339C132.247 262.419 124.623 266.848 118.192 270.136C107.783 275.503 106.258 276.107 102.943 276.107C98.6341 276.107 94.59 274.296 92.9989 271.545C92.4022 270.538 90.811 268.056 89.4188 266.043C85.8387 260.675 84.5128 257.857 80.4687 246.584C75.6952 233.366 74.3693 227.059 73.4411 213.908C72.7781 204.514 72.7781 201.763 73.7726 193.778C74.8334 184.989 75.2974 182.171 75.7615 182.171C75.8941 182.171 77.7505 182.976 79.872 183.915ZM290.698 224.241C290.897 225.314 292.223 230.414 293.615 235.58C295.007 240.814 297.394 250.61 298.919 257.387C300.443 264.164 303.162 275.906 305.018 283.488C309.858 303.819 314.83 325.76 314.83 326.699C314.83 328.108 309.725 330.524 305.946 330.926L302.366 331.329L301.703 329.048C301.305 327.773 298.454 315.427 295.339 301.605C292.223 287.782 287.979 269.331 285.991 260.675C279.891 234.44 277.902 225.113 278.234 224.778C278.433 224.576 279.825 224.442 281.283 224.375C282.808 224.375 285.062 223.972 286.322 223.503C289.77 222.161 290.234 222.228 290.698 224.241ZM95.8496 275.503C97.4408 276.309 100.225 277.114 102.015 277.382L105.198 277.785L101.883 287.514C100.026 292.882 97.4408 300.866 96.1811 305.295C94.9215 309.723 89.6177 326.297 84.4465 342.199C79.209 358.034 74.6345 372.661 74.1704 374.607C73.0433 379.438 72.0489 380.377 68.1373 379.908C64.8225 379.505 60.3805 377.559 58.9883 375.815C58.3253 375.009 58.9883 372.728 62.8335 362.865C65.3528 356.289 68.3362 347.768 69.5296 343.876C70.6566 339.984 73.5737 330.926 76.093 323.747C78.6123 316.5 81.7283 306.838 83.0542 302.276C85.6398 293.284 92.2033 274.094 92.6674 274.094C92.8663 274.094 94.2585 274.765 95.8496 275.503ZM326.167 329.048C329.946 329.786 337.106 331.262 342.012 332.402C346.918 333.476 352.818 334.751 355.072 335.221C360.177 336.16 361.901 337.233 360.708 338.71C359.117 340.588 337.04 351.19 328.156 354.276C310.918 360.315 305.747 361.187 283.869 361.791C271.737 362.127 268.289 361.993 267.427 361.322C266.499 360.516 266.499 360.315 267.56 359.107C268.223 358.369 270.543 356.423 272.731 354.746C274.919 353.069 281.615 347.566 287.648 342.534C293.681 337.435 299.25 333.006 300.046 332.537C300.841 332.134 303.228 331.799 305.349 331.799C308.399 331.799 309.858 331.396 312.51 329.786C316.487 327.437 317.217 327.437 326.167 329.048ZM59.1872 377.358C60.8446 379.17 65.7506 380.78 69.7948 380.78L73.1759 380.847L88.9547 396.548C99.0319 406.545 104.601 412.517 104.269 413.054C103.673 414.127 87.894 413.457 78.1482 411.98C55.8723 408.625 38.635 401.849 20.6684 389.368C13.7735 384.537 11.3205 382.39 12.0497 381.719C12.2486 381.518 15.7624 381.048 19.9391 380.713C24.0496 380.377 32.5356 379.371 38.7013 378.431C44.9332 377.559 51.2978 376.687 52.9552 376.553C54.6127 376.419 56.4027 376.284 56.9994 376.217C57.596 376.15 58.5905 376.687 59.1872 377.358Z" fill="#9E020D" fill-opacity="0.3"/>
<path d="M254.168 24.2894C248.997 24.8933 243.162 25.9669 243.428 26.2352C243.892 26.7049 259.339 25.0275 260.466 24.4236C261.461 23.8197 258.079 23.7526 254.168 24.2894Z" fill="#9E020D" fill-opacity="0.3"/>
<path d="M266.101 25.0945C266.499 25.43 268.422 25.8997 270.411 26.101C272.665 26.3694 273.659 26.3023 273.063 25.9668C271.67 25.0945 265.306 24.2894 266.101 25.0945Z" fill="#9E020D" fill-opacity="0.3"/>
<path d="M284.399 40.5942C285.46 43.211 287.25 47.6395 288.245 50.5247C291.361 58.979 291.626 59.5829 292.024 59.1803C292.819 58.4422 284.002 35.8974 282.941 35.8974C282.676 35.8974 283.272 38.0445 284.399 40.5942Z" fill="#9E020D" fill-opacity="0.3"/>
<path d="M293.615 63.2062C293.615 63.5417 294.079 64.414 294.609 65.1521C295.471 66.3598 295.537 66.3598 295.14 64.8837C294.808 63.4075 293.615 62.1327 293.615 63.2062Z" fill="#9E020D" fill-opacity="0.3"/>
<path d="M237.594 65.4205C236.599 66.5611 236.533 67.0308 237.13 68.4399C238.455 71.3251 242.566 70.3186 242.566 67.0979C242.566 64.0785 239.649 63.1391 237.594 65.4205ZM241.638 66.4269C242.102 67.6347 240.776 69.4463 239.45 69.4463C238.323 69.4463 237.66 67.836 238.19 66.4269C238.654 65.085 241.174 65.1521 241.638 66.4269Z" fill="#9E020D" fill-opacity="0.3"/>
<path d="M232.024 79.0412C231.428 79.7793 231.494 80.1819 232.29 80.8529C233.085 81.5238 233.35 81.4567 233.682 80.5174C234.279 78.9741 233.019 77.8335 232.024 79.0412Z" fill="#9E020D" fill-opacity="0.3"/>
<path d="M281.748 79.1083C280.422 80.7186 281.151 82.5303 283.007 82.5303C284.399 82.5303 284.665 82.1948 284.665 80.5173C284.665 78.236 283.073 77.4979 281.748 79.1083ZM284.333 80.1148C284.333 81.0541 283.14 81.658 282.344 81.1883C281.946 80.9199 281.814 80.4502 282.013 80.1148C282.543 79.3096 284.333 79.3096 284.333 80.1148Z" fill="#9E020D" fill-opacity="0.3"/>
<path d="M126.015 79.5111C122.634 80.3162 122.501 81.0543 125.882 80.4504C127.54 80.182 131.319 79.9807 134.368 80.0478C137.882 80.1149 139.739 79.9136 139.473 79.5111C139.009 78.7059 129.264 78.7059 126.015 79.5111Z" fill="#9E020D" fill-opacity="0.3"/>
<path d="M144.777 80.8528C145.506 81.1883 146.7 81.4567 147.429 81.4567C148.556 81.5238 148.556 81.3896 147.761 80.8528C147.23 80.5173 146.037 80.249 145.109 80.249C143.584 80.249 143.584 80.3161 144.777 80.8528Z" fill="#9E020D" fill-opacity="0.3"/>
<path d="M183.959 96.1511C184.29 96.4195 186.279 98.0299 188.401 99.5731C190.522 101.183 192.511 102.995 192.843 103.599C193.108 104.203 193.572 104.471 193.837 104.27C194.5 103.532 191.053 99.9086 187.672 97.6944C184.754 95.8157 182.368 94.8092 183.959 96.1511Z" fill="#9E020D" fill-opacity="0.3"/>
<path d="M115.407 89.7097C114.943 90.1794 114.612 90.7162 114.612 90.9846C114.612 91.253 111.297 98.7679 107.319 107.759C103.275 116.683 100.093 124.466 100.159 124.936C100.292 125.406 102.148 121.782 104.269 116.884C106.457 112.053 110.104 103.8 112.424 98.7008C114.744 93.6014 116.534 89.3072 116.402 89.173C116.269 89.0388 115.805 89.3072 115.407 89.7097Z" fill="#9E020D" fill-opacity="0.3"/>
<path d="M179.384 130.572C177.859 131.445 177.992 132.988 179.649 133.86C181.174 134.732 182.898 133.793 182.898 132.116C182.898 130.774 180.777 129.834 179.384 130.572ZM181.572 132.183C181.572 132.72 181.108 133.189 180.578 133.189C180.047 133.189 179.583 132.72 179.583 132.183C179.583 131.646 180.047 131.176 180.578 131.176C181.108 131.176 181.572 131.646 181.572 132.183Z" fill="#9E020D" fill-opacity="0.3"/>
<path d="M105.728 132.25C105.463 132.921 105.596 133.726 105.927 134.062C106.921 135.068 108.977 134.263 108.977 132.854C108.977 131.109 106.325 130.64 105.728 132.25ZM107.982 132.854C107.982 133.391 107.717 133.86 107.319 133.86C106.988 133.86 106.656 133.391 106.656 132.854C106.656 132.317 106.988 131.847 107.319 131.847C107.717 131.847 107.982 132.317 107.982 132.854Z" fill="#9E020D" fill-opacity="0.3"/>
<path d="M107.982 146.609C107.982 146.944 108.314 147.28 108.645 147.28C109.043 147.28 109.308 146.944 109.308 146.609C109.308 146.206 109.043 145.938 108.645 145.938C108.314 145.938 107.982 146.206 107.982 146.609Z" fill="#9E020D" fill-opacity="0.3"/>
<path d="M211.406 128.022C211.406 129.633 215.45 142.113 215.848 141.71C216.246 141.241 212.732 128.425 211.936 127.486C211.605 127.15 211.406 127.352 211.406 128.022Z" fill="#9E020D" fill-opacity="0.3"/>
<path d="M298.786 135.94C298.123 136.276 297.593 137.282 297.593 138.087C297.593 141.375 301.106 142.382 302.366 139.496C303.692 136.611 301.372 134.33 298.786 135.94ZM301.57 137.886C301.57 138.624 301.106 139.429 300.51 139.698C299.184 140.234 298.123 138.557 299.051 137.416C300.112 136.074 301.57 136.41 301.57 137.886Z" fill="#9E020D" fill-opacity="0.3"/>
<path d="M271.206 143.657C271.471 145.066 272.665 145.2 272.93 143.724C273.063 143.053 272.731 142.583 272.068 142.583C271.405 142.583 271.074 142.986 271.206 143.657Z" fill="#9E020D" fill-opacity="0.3"/>
<path d="M216.71 145.602C216.71 146.609 222.942 160.028 223.406 160.028C224.268 160.028 224.201 159.693 222.08 155.466C221.085 153.386 219.693 150.232 219.03 148.42C218.367 146.676 217.572 145.267 217.307 145.267C216.975 145.267 216.71 145.401 216.71 145.602Z" fill="#9E020D" fill-opacity="0.3"/>
<path d="M233.947 147.951C233.947 148.286 234.411 148.622 234.942 148.622C235.472 148.622 235.936 148.286 235.936 147.951C235.936 147.548 235.472 147.28 234.942 147.28C234.411 147.28 233.947 147.548 233.947 147.951Z" fill="#9E020D" fill-opacity="0.3"/>
<path d="M247.737 159.089C246.743 161.303 247.671 162.981 250.057 163.249C252.312 163.517 253.704 160.968 252.577 158.753C251.45 156.741 248.731 156.875 247.737 159.089ZM251.516 158.753C252.312 160.028 251.251 162.846 249.991 162.578C248.002 162.175 248.135 158.015 250.124 158.015C250.654 158.015 251.317 158.351 251.516 158.753Z" fill="#9E020D" fill-opacity="0.3"/>
<path d="M295.604 170.495C295.604 171.032 295.935 171.301 296.267 171.099C296.665 170.831 296.797 170.361 296.598 170.026C296.002 169.086 295.604 169.288 295.604 170.495Z" fill="#9E020D" fill-opacity="0.3"/>
<path d="M306.278 177.943C306.278 179.621 306.344 179.688 306.874 178.48C307.67 176.668 307.67 176.132 306.874 176.132C306.543 176.132 306.211 176.937 306.278 177.943Z" fill="#9E020D" fill-opacity="0.3"/>
<path d="M288.046 180.627C287.781 181.231 288.046 182.17 288.643 182.774C289.504 183.714 289.77 183.714 290.698 182.707C291.294 182.103 291.626 181.097 291.427 180.56C290.897 179.151 288.576 179.218 288.046 180.627ZM290.3 181.499C290.3 181.835 290.035 182.17 289.637 182.17C289.306 182.17 288.974 181.835 288.974 181.499C288.974 181.097 289.306 180.828 289.637 180.828C290.035 180.828 290.3 181.097 290.3 181.499Z" fill="#9E020D" fill-opacity="0.3"/>
<path d="M303.559 187.203C300.576 196.328 291.825 206.863 285.261 209.278C280.024 211.157 278.963 211.761 281.615 211.358C288.112 210.352 294.41 205.655 299.316 198.207C303.162 192.369 307.073 182.842 305.615 182.842C305.283 182.842 304.355 184.787 303.559 187.203Z" fill="#9E020D" fill-opacity="0.3"/>
<path d="M238.522 187.337C239.781 189.753 247.074 197.737 252.179 202.367C257.814 207.466 259.803 208.808 259.803 207.668C259.803 207.332 259.538 206.997 259.207 206.997C258.212 206.997 245.218 194.181 241.903 189.954C239.052 186.331 237.196 184.922 238.522 187.337Z" fill="#9E020D" fill-opacity="0.3"/>
<path d="M263.98 209.479C264.643 210.553 269.947 211.693 273.858 211.626C277.306 211.559 277.306 211.559 272.068 210.687C269.151 210.15 266.035 209.546 265.173 209.278C264.113 208.942 263.715 209.01 263.98 209.479Z" fill="#9E020D" fill-opacity="0.3"/>
<path d="M79.4742 188.612C77.7504 193.174 76.8223 212.23 78.1482 215.384C78.4797 216.256 78.7449 213.103 78.8112 206.997C78.8112 201.629 79.2753 194.986 79.7394 192.235C80.7338 186.8 80.6012 185.525 79.4742 188.612Z" fill="#9E020D" fill-opacity="0.3"/>
<path d="M164.998 200.287C164.998 200.623 165.329 200.958 165.727 200.958C166.059 200.958 166.191 200.623 165.992 200.287C165.793 199.884 165.462 199.616 165.263 199.616C165.131 199.616 164.998 199.884 164.998 200.287Z" fill="#9E020D" fill-opacity="0.3"/>
<path d="M143.517 213.371C142.191 214.78 142.191 215.988 143.517 217.33C144.777 218.605 145.175 218.672 146.7 217.531C148.357 216.256 147.893 212.767 146.037 212.499C145.241 212.365 144.114 212.767 143.517 213.371ZM146.832 214.445C147.495 215.585 145.307 217.531 144.379 216.592C143.915 216.122 143.783 215.317 143.981 214.78C144.446 213.572 146.169 213.371 146.832 214.445Z" fill="#9E020D" fill-opacity="0.3"/>
<path d="M79.2091 224.107C79.872 228.065 80.9328 229.474 80.4024 225.784C80.2035 224.107 79.7394 222.429 79.3417 222.094C78.9439 221.624 78.8776 222.362 79.2091 224.107Z" fill="#9E020D" fill-opacity="0.3"/>
<path d="M98.0375 223.436C98.0375 224.04 98.369 224.442 98.7667 224.308C99.1645 224.174 99.496 223.771 99.496 223.436C99.496 223.1 99.1645 222.698 98.7667 222.563C98.369 222.429 98.0375 222.832 98.0375 223.436Z" fill="#9E020D" fill-opacity="0.3"/>
<path d="M119.452 231.555C119.253 232.091 119.452 232.964 119.849 233.366C120.512 233.97 120.91 233.903 121.573 232.897C122.103 232.226 122.369 231.353 122.17 231.085C121.573 230.078 119.916 230.414 119.452 231.555Z" fill="#9E020D" fill-opacity="0.3"/>
<path d="M83.452 239.673C83.452 240.881 87.0984 249.604 88.9547 252.824C91.2088 256.716 93.9933 259.065 99.3634 261.614C103.474 263.627 104.071 263.694 111.96 263.694C119.319 263.694 120.579 263.493 123.429 262.151C127.672 260.004 127.407 258.997 123.098 261.01C115.871 264.298 106.457 263.761 98.3689 259.736C92.8663 256.917 89.1536 252.355 86.3691 244.907C84.6454 240.277 83.452 238.197 83.452 239.673Z" fill="#9E020D" fill-opacity="0.3"/>
<path d="M104.733 251.013C104.733 251.751 104.932 251.952 105.131 251.415C105.33 250.946 105.264 250.342 105.065 250.14C104.866 249.872 104.667 250.275 104.733 251.013Z" fill="#9E020D" fill-opacity="0.3"/>
<path d="M133.904 254.435C132.645 255.307 132.114 255.978 132.645 255.978C133.772 255.978 137.02 253.562 136.49 253.093C136.291 252.959 135.164 253.562 133.904 254.435Z" fill="#9E020D" fill-opacity="0.3"/>
<path d="M284.002 226.858L280.687 227.73L283.869 227.462C285.659 227.26 287.582 226.858 288.178 226.455C289.77 225.516 288.178 225.65 284.002 226.858Z" fill="#9E020D" fill-opacity="0.3"/>
<path d="M93.3967 276.711C93.3967 277.718 98.8994 280.133 101.087 280.066C102.877 280.066 102.811 279.999 100.358 279.194C98.8994 278.724 96.7116 277.852 95.5845 277.181C94.3912 276.577 93.3967 276.376 93.3967 276.711Z" fill="#9E020D" fill-opacity="0.3"/>
<path d="M317.614 331.53C318.078 331.933 337.172 336.495 338.299 336.428C339.957 336.361 335.912 335.086 327.824 333.141C319.537 331.195 316.885 330.725 317.614 331.53Z" fill="#9E020D" fill-opacity="0.3"/>
<path d="M348.973 340.723C346.653 341.93 335.382 346.829 330.808 348.64C329.946 348.976 329.415 349.445 329.614 349.647C330.012 350.116 351.161 341.259 351.691 340.387C352.421 339.246 351.625 339.314 348.973 340.723Z" fill="#9E020D" fill-opacity="0.3"/>
<path d="M320.996 352.397C320.134 352.532 319.471 353.001 319.471 353.337C319.471 354.008 321.592 353.605 323.449 352.532C324.311 352.062 324.311 351.995 323.449 352.062C322.918 352.062 321.791 352.263 320.996 352.397Z" fill="#9E020D" fill-opacity="0.3"/>
<path d="M40.4914 380.444C34.1932 381.249 28.8231 382.122 28.6242 382.39C28.359 382.591 28.7568 382.793 29.486 382.793C31.6739 382.793 55.8061 379.438 56.1376 379.102C56.7343 378.498 52.1598 378.901 40.4914 380.444Z" fill="#9E020D" fill-opacity="0.3"/>
<path d="M28.7568 391.314C32.2043 394.065 51.6294 402.318 51.6294 400.976C51.6294 400.708 49.972 399.97 47.9167 399.299C45.9278 398.628 40.6903 396.347 36.381 394.132C28.4916 390.106 26.3038 389.301 28.7568 391.314Z" fill="#9E020D" fill-opacity="0.3"/>
<path d="M61.9054 404.599C64.0932 405.673 67.3418 406.008 65.5518 405.002C65.0214 404.667 63.4966 404.264 62.2369 403.996L59.9165 403.593L61.9054 404.599Z" fill="#9E020D" fill-opacity="0.3"/>
<path d="M171.097 39.655C173.219 43.9493 176.202 50.7932 177.727 54.8191C179.252 58.845 180.644 61.8644 180.777 61.4618C181.373 59.7172 170.302 34.4214 168.18 32.7439C167.65 32.2742 168.976 35.4278 171.097 39.655Z" fill="#9E020D" fill-opacity="0.3"/>
<path d="M362.564 36.7697C362.564 38.9169 362.299 39.3866 360.774 39.9904C355.338 42.1376 355.47 42.0034 356.929 42.6073C357.658 42.9427 359.382 43.3453 360.774 43.6137C363.095 44.0163 363.227 44.1505 363.227 46.4989C363.227 48.8473 364.155 51.33 364.752 50.659C364.951 50.4577 365.68 49.0486 366.476 47.4383C367.868 44.6873 367.934 44.6202 370.52 45.0228C373.636 45.5596 373.901 44.8215 371.448 42.6073C370.255 41.3995 369.923 40.5272 370.188 39.4537C370.52 38.1117 370.321 37.9104 368.398 37.9104C367.006 37.9104 365.68 37.3065 364.421 36.0988L362.564 34.2871V36.7697ZM367.669 39.2524C368.73 39.2524 368.995 39.5879 368.73 40.5272C368.531 41.1982 368.73 42.0034 369.128 42.2047C370.188 42.8756 369.99 43.9492 368.929 43.5466C368.332 43.3453 367.338 44.1505 366.343 45.6938L364.619 48.1764L364.421 45.5596C364.222 43.144 364.023 42.9427 362.1 42.7414C359.382 42.4731 359.249 41.3324 361.901 40.7956C363.492 40.5272 363.89 40.0575 363.89 38.7156C363.89 37.1052 363.956 37.1052 365.084 38.1117C365.746 38.7827 366.94 39.2524 367.669 39.2524Z" fill="#9E020D" fill-opacity="0.3"/>
<path d="M84.5791 42.6743C85.1095 51.3971 83.9825 60.5894 79.7394 82.7988C77.7505 93.2661 76.2257 101.922 76.4246 102.123C76.5572 102.257 76.8886 101.855 77.0875 101.184C77.9494 98.0971 84.1151 65.1521 84.778 60.0527C85.5736 53.0745 85.6399 38.5814 84.8443 37.3065C84.4466 36.6355 84.314 38.7156 84.5791 42.6743Z" fill="#9E020D" fill-opacity="0.3"/>
<path d="M49.6403 43.9491C49.6403 46.0291 49.3089 46.8343 47.9829 47.7065C45.7951 49.1156 45.8614 49.7195 48.3144 50.1892C50.1044 50.5917 50.3033 50.8601 50.3033 53.3427C50.3033 56.8318 51.8945 56.966 53.0878 53.6111L53.9497 51.1956L57.7286 51.5982C59.8501 51.7995 61.5739 51.7995 61.5739 51.5311C61.5739 51.2627 60.4468 49.9208 59.1209 48.5117C56.8668 46.2304 56.7342 45.8278 57.5297 44.2175C58.5242 41.9361 58.1264 41.5335 55.6071 42.6071C53.8834 43.3452 53.4193 43.2781 52.3585 42.3387C50.4359 40.5942 49.6403 41.0639 49.6403 43.9491ZM52.69 44.0162C52.8889 44.4187 53.8171 44.5529 54.7452 44.2846C56.1375 43.9491 56.3364 44.0833 56.0049 44.9555C55.806 45.6265 56.2038 46.8343 56.9994 47.8407L58.3916 49.6524L56.0712 49.8537C54.4801 49.9879 53.5519 50.5246 52.9552 51.6653C52.0271 53.4769 50.9663 53.2757 50.9663 51.3298C50.9663 50.6588 50.4359 49.7866 49.8392 49.384C48.7122 48.7801 48.7122 48.713 49.8392 47.5052C50.4359 46.7672 50.9663 45.5594 50.9663 44.7542C50.9663 43.211 51.8945 42.8084 52.69 44.0162Z" fill="#9E020D" fill-opacity="0.3"/>
<path d="M5.55267 48.713C5.28748 49.0485 5.68526 49.3169 6.34824 49.3169C10.1272 49.384 17.0221 54.4834 19.2099 58.9118C20.4696 61.2603 20.4696 61.5957 19.5414 62.6693C18.0829 64.2797 18.1492 68.7081 19.5414 69.2449C21 69.7817 22.4585 67.7687 22.4585 65.2861C22.4585 62.6022 25.1104 62.7364 27.4308 65.4874C30.9446 69.7817 32.7346 74.143 32.7346 78.8399C32.7346 83.4696 33.8617 85.1471 34.392 81.3896C34.6572 79.578 35.055 79.1754 36.3147 79.1754C37.2428 79.1754 38.4362 79.8463 39.0992 80.8528C40.6903 82.9999 41.8836 89.6426 41.3533 93.0646C40.9555 95.1446 41.0881 95.6814 41.6848 95.2788C42.2814 94.9433 42.414 93.1988 42.2151 89.3071C41.8173 82.7986 40.2262 78.9741 37.7069 78.4373C34.7898 77.7663 34.392 77.565 33.9943 76.3573C31.3424 68.1042 26.9667 62.0654 23.5856 62.0654C22.1933 62.0654 21.5966 61.5957 20.8011 59.5157C19.6077 56.6976 16.4917 53.2085 13.4421 51.2627C10.3924 49.384 6.01675 47.9078 5.55267 48.713ZM21.1326 65.3532C21.1326 67.5004 20.2044 68.641 19.4751 67.4333C18.8784 66.4268 19.674 63.4074 20.4696 63.4074C20.8674 63.4074 21.1326 64.2797 21.1326 65.3532Z" fill="#9E020D" fill-opacity="0.3"/>
<path d="M354.608 52.4706C347.382 60.7236 338.233 77.498 333.791 90.6492C330.476 100.513 327.161 117.086 328.686 116.079C329.084 115.878 329.415 114.804 329.415 113.664C329.415 110.376 331.935 99.7745 334.785 91.2531C339.493 77.1625 346.785 63.6759 355.205 53.477C359.183 48.646 358.719 47.7737 354.608 52.4706Z" fill="#9E020D" fill-opacity="0.3"/>
<path d="M101.087 57.9727C99.0319 61.9985 97.3745 65.6889 97.3745 66.1586C97.3745 66.6954 98.5679 64.7496 99.9601 61.9314C101.352 59.1804 103.341 55.4901 104.336 53.7455C105.33 52.0681 105.794 50.659 105.463 50.659C105.065 50.659 103.142 53.9468 101.087 57.9727Z" fill="#9E020D" fill-opacity="0.3"/>
<path d="M397.039 54.5506C395.779 55.1545 393.658 56.832 392.332 58.1739C390.608 59.9856 389.348 60.7236 387.956 60.7236C386.63 60.7236 384.774 61.7972 381.923 64.0785C379.205 66.2927 377.216 67.4334 375.956 67.4334C374.962 67.4334 372.774 68.3057 371.117 69.3121C367.868 71.3922 361.636 78.3703 362.034 79.511C362.1 79.8465 363.492 78.5716 365.017 76.5587C367.934 72.667 372.509 69.1108 375.492 68.3728C377.15 67.9702 377.282 68.0373 376.818 69.1779C375.89 71.3922 375.757 73.1367 376.42 74.1432C377.481 75.6864 379.934 73.0696 379.801 70.4528C379.735 69.3792 379.669 68.1044 379.735 67.7689C379.801 66.8295 385.702 62.334 387.625 61.7972C388.884 61.3275 389.083 61.5288 389.083 63.3404C389.083 64.7495 389.415 65.4205 390.078 65.4205C391.006 65.4205 391.404 64.2127 391.072 62.1327C390.939 60.992 394.785 56.8991 397.171 55.6242C398.166 55.0874 400.089 54.4164 401.481 54.0809L404 53.4771L401.68 53.41C400.42 53.41 398.298 53.8797 397.039 54.5506ZM377.879 73.0025C377.017 73.8748 376.884 72.2644 377.614 70.3186C378.078 69.245 378.144 69.3121 378.343 70.7212C378.476 71.5935 378.277 72.5999 377.879 73.0025Z" fill="#9E020D" fill-opacity="0.3"/>
<path d="M62.5683 63.7429C67.2091 73.0695 67.8721 76.894 67.8721 93.6014C67.8721 104.941 67.6069 108.833 66.745 111.852C66.1483 113.999 65.9494 115.744 66.2146 115.744C68.8665 115.744 70.2588 84.409 68.0047 75.1495C66.8113 70.3185 61.3086 58.0396 60.3142 58.0396C59.9827 58.0396 61.0434 60.5893 62.5683 63.7429Z" fill="#9E020D" fill-opacity="0.3"/>
<path d="M345.062 105.142C337.504 113.932 331.205 131.981 331.471 144.26C331.537 146.877 331.736 146.206 332.465 140.905C333.592 132.518 334.918 127.016 337.504 120.306C339.758 114.2 345.062 105.813 348.178 103.331C349.636 102.19 349.968 101.653 349.172 101.653C348.575 101.653 346.719 103.263 345.062 105.142Z" fill="#9E020D" fill-opacity="0.3"/>
<path d="M45.6625 111.584C45.6625 113.194 44.4028 114.335 41.8835 115.006L40.0272 115.543L42.215 116.817C44.4028 118.092 44.4028 118.159 44.0051 121.783L43.541 125.473L45.6625 122.588C46.7896 121.045 47.9829 119.77 48.1818 119.77C48.447 119.77 50.0381 120.306 51.7619 120.91C53.4856 121.514 55.0767 121.85 55.3419 121.581C55.6071 121.38 54.8115 119.971 53.6845 118.495C51.6293 115.878 51.563 115.744 52.69 114.066C54.0823 111.919 53.5519 111.382 51.0326 112.255C49.7729 112.724 48.8448 112.724 48.6459 112.322C48.3807 111.986 47.6514 111.382 46.9222 111.047C45.8614 110.443 45.6625 110.577 45.6625 111.584ZM48.0492 113.127C48.2481 113.53 49.1763 113.664 50.0381 113.463C51.6293 113.06 52.2259 113.932 50.9663 114.737C50.5022 115.006 50.7674 116.012 51.6293 117.488C53.1541 119.904 52.7563 120.239 50.0381 118.965C48.6459 118.361 48.1155 118.428 47.121 119.3C45.4636 120.843 44.8006 120.709 45.1984 119.099C45.4636 118.159 45.1321 117.488 44.1377 117.019C42.8117 116.281 42.8117 116.214 44.5354 115.274C45.5299 114.804 46.3255 113.932 46.3255 113.395C46.3255 112.255 47.3862 112.053 48.0492 113.127Z" fill="#9E020D" fill-opacity="0.3"/>
<path d="M-10.9554 120.977C-11.2206 121.447 -10.2925 121.648 -8.43613 121.648C-3.26493 121.648 3.09962 126.278 5.55262 131.847C6.67968 134.397 6.67968 134.598 5.55262 135.873C4.29297 137.282 4.49186 139.295 6.083 141.509C7.40895 143.321 8.53601 142.247 8.53601 139.161C8.53601 136.879 8.7349 136.544 10.1271 136.544C12.1824 136.544 15.8287 139.094 17.2873 141.576C19.0773 144.663 20.4032 150.702 19.7403 152.513C19.011 154.526 19.674 157.344 20.8673 157.344C21.5303 157.344 21.7955 156.539 21.7955 154.727C21.7955 152.916 22.127 151.976 22.9225 151.708C25.707 150.634 30.3478 158.753 30.9445 165.731C31.276 169.892 32.4031 171.972 32.4031 168.348C32.4031 166.872 32.6683 166.671 34.1931 166.872C36.5798 167.141 38.5024 171.032 40.6902 179.755C42.4803 186.867 43.4747 189.081 42.7455 184.318C42.0825 179.755 38.5024 169.086 37.0439 167.208C36.3146 166.268 34.9224 165.396 33.9279 165.262C32.4031 165.128 32.0053 164.591 31.4086 162.041C29.6849 155.197 26.4363 150.634 23.254 150.634C21.5303 150.634 21.3314 150.366 19.9392 145.736C18.2817 139.832 14.9006 136.141 10.5912 135.47C8.27081 135.068 7.87303 134.732 6.94487 132.25C5.48632 128.291 2.56924 125.07 -1.27601 122.923C-4.92237 120.91 -10.2262 119.837 -10.9554 120.977ZM7.27635 140.1C6.34819 141.039 5.55262 138.959 6.2156 137.349C6.61338 136.343 6.74598 136.41 7.27635 137.819C7.67414 138.892 7.67414 139.698 7.27635 140.1Z" fill="#9E020D" fill-opacity="0.3"/>
<path d="M51.1653 126.815C51.3642 127.553 52.4249 131.31 53.552 135.202C55.7398 142.918 57.2646 151.44 57.9939 160.364C58.2591 163.517 58.7232 166.067 59.0547 166.067C59.3862 166.067 59.4525 164.658 59.2536 162.846C58.0602 151.909 57.3972 146.609 56.8669 143.925C55.8061 138.959 52.1597 126.882 51.4968 126.144C51.0327 125.674 50.9664 125.942 51.1653 126.815Z" fill="#9E020D" fill-opacity="0.3"/>
<path d="M205.837 190.021C205.572 193.846 204.378 198.207 201.727 205.99C197.749 217.598 196.622 221.96 198.876 217.061C202.323 209.412 206.168 196.328 206.566 190.625C206.765 187.471 206.831 184.855 206.633 184.855C206.434 184.855 206.102 187.203 205.837 190.021Z" fill="#9E020D" fill-opacity="0.3"/>
<path d="M216.113 201.428C216.047 203.239 218.765 210.888 221.748 217.598C224.467 223.637 230.036 233.165 230.765 233.165C231.096 233.165 230.566 231.89 229.638 230.28C226.058 224.375 221.019 213.774 218.632 206.997C217.24 203.105 216.113 200.622 216.113 201.428Z" fill="#9E020D" fill-opacity="0.3"/>
</svg>
