<svg width="25" height="25" viewBox="0 0 25 25" fill="none" xmlns="http://www.w3.org/2000/svg">
<g filter="url(#filter0_b_255_4788)">
<g clip-path="url(#clip0_255_4788)">
<rect x="3.83337" y="4.87207" width="18" height="16" rx="3" fill="url(#paint0_linear_255_4788)" fill-opacity="0.2"/>
<path fill-rule="evenodd" clip-rule="evenodd" d="M3.83337 6.87207C3.83337 6.80303 3.83687 6.73482 3.8437 6.66758C3.94612 5.65907 4.79784 4.87207 5.83337 4.87207H19.8334C20.9379 4.87207 21.8334 5.7675 21.8334 6.87207V14.8721C21.8334 15.9766 20.9379 16.8721 19.8334 16.8721H5.83337C4.7288 16.8721 3.83337 15.9766 3.83337 14.8721V6.87207ZM4.83337 13.1396V8.60451C5.12755 8.77468 5.46909 8.87207 5.83337 8.87207C6.93794 8.87207 7.83337 7.97664 7.83337 6.87207C7.83337 6.50778 7.73598 6.16624 7.56581 5.87207H18.1009C17.9308 6.16624 17.8334 6.50778 17.8334 6.87207C17.8334 7.97664 18.7288 8.87207 19.8334 8.87207C20.1977 8.87207 20.5392 8.77468 20.8334 8.60451V13.1396C20.5392 12.9695 20.1977 12.8721 19.8334 12.8721C18.7288 12.8721 17.8334 13.7675 17.8334 14.8721C17.8334 15.2364 17.9308 15.5779 18.1009 15.8721H7.56581C7.73598 15.5779 7.83337 15.2364 7.83337 14.8721C7.83337 13.7675 6.93794 12.8721 5.83337 12.8721C5.46909 12.8721 5.12755 12.9695 4.83337 13.1396ZM14.8334 10.8721C14.8334 11.9766 13.9379 12.8721 12.8334 12.8721C11.7288 12.8721 10.8334 11.9766 10.8334 10.8721C10.8334 9.7675 11.7288 8.87207 12.8334 8.87207C13.9379 8.87207 14.8334 9.7675 14.8334 10.8721Z" fill="black"/>
</g>
<rect x="4.33337" y="5.37207" width="17" height="15" rx="2.5" stroke="black" stroke-linecap="round" stroke-linejoin="round"/>
</g>
<defs>
<filter id="filter0_b_255_4788" x="-0.166626" y="0.87207" width="26" height="24" filterUnits="userSpaceOnUse" color-interpolation-filters="sRGB">
<feFlood flood-opacity="0" result="BackgroundImageFix"/>
<feGaussianBlur in="BackgroundImageFix" stdDeviation="2"/>
<feComposite in2="SourceAlpha" operator="in" result="effect1_backgroundBlur_255_4788"/>
<feBlend mode="normal" in="SourceGraphic" in2="effect1_backgroundBlur_255_4788" result="shape"/>
</filter>
<linearGradient id="paint0_linear_255_4788" x1="12.8334" y1="4.87207" x2="12.8334" y2="20.8721" gradientUnits="userSpaceOnUse">
<stop/>
<stop offset="1" stop-color="#707070"/>
</linearGradient>
<clipPath id="clip0_255_4788">
<rect x="3.83337" y="4.87207" width="18" height="16" rx="3" fill="white"/>
</clipPath>
</defs>
</svg>
