<svg width="42" height="40" viewBox="0 0 42 40" fill="none" xmlns="http://www.w3.org/2000/svg">
<circle cx="20" cy="20" r="20" transform="matrix(-1 0 0 1 41.8333 0)" fill="#E61D2B"/>
<path d="M31.1667 20L32.2273 18.9393L33.288 20L32.2273 21.0606L31.1667 20ZM3.16669 21.5C2.33826 21.5 1.66669 20.8284 1.66669 20C1.66669 19.1715 2.33826 18.5 3.16669 18.5V21.5ZM22.894 9.60597L32.2273 18.9393L30.106 21.0606L20.7727 11.7273L22.894 9.60597ZM32.2273 21.0606L22.894 30.394L20.7727 28.2726L30.106 18.9393L32.2273 21.0606ZM31.1667 21.5H3.16669V18.5H31.1667V21.5Z" fill="white"/>
</svg>
