<svg width="353" height="325" viewBox="0 0 353 325" fill="none" xmlns="http://www.w3.org/2000/svg">
<path d="M219.168 1.74685C216.495 4.41963 216.762 9.14154 219.702 11.4579C222.464 13.5962 223.533 13.7744 226.652 12.3489C229.414 11.1016 231.017 6.91422 229.859 3.97417C228.255 -0.124095 222.286 -1.37139 219.168 1.74685ZM226.295 3.88507C226.83 4.59781 227.186 6.11239 227.008 7.27059C226.473 11.0125 220.059 10.1216 220.059 6.29057C220.059 2.99415 224.157 1.39048 226.295 3.88507Z" fill="#E61D2B"/>
<path d="M178.631 6.20145C178.363 6.64691 179.433 7.71603 181.036 8.51786C185.847 10.9234 189.678 15.1998 191.727 20.3672C193.331 24.4654 193.687 27.4055 193.866 36.4929C193.955 45.224 194.311 47.6295 195.202 47.6295C197.251 47.6295 196.895 25.8018 194.756 19.6544C191.816 11.0125 181.125 2.10319 178.631 6.20145Z" fill="#E61D2B"/>
<path d="M235.65 28.6528C226.295 30.4347 211.06 40.1458 213.555 42.8185C214.357 43.6204 215.337 43.264 217.831 41.0367C226.919 33.1074 233.779 30.791 246.43 31.3256C253.468 31.682 255.696 31.5038 255.696 30.6129C255.696 29.3656 248.212 27.4946 243.401 27.6728C241.619 27.7619 238.145 28.2074 235.65 28.6528Z" fill="#E61D2B"/>
<path d="M153.774 35.6914C149.141 39.3442 151.992 47.1843 158.05 47.1843C161.079 47.1843 164.821 43.5315 164.821 40.5024C164.821 37.5623 161.168 33.8204 158.318 33.8204C157.159 33.8204 155.11 34.6223 153.774 35.6914ZM160.367 38.2751C161.881 39.7896 161.97 40.4133 161.258 41.9279C159.832 44.5115 157.872 44.957 155.912 43.1752C153.774 41.2151 153.685 40.2351 155.645 38.0969C157.516 36.0478 158.139 36.0478 160.367 38.2751Z" fill="#E61D2B"/>
<path d="M260.596 40.3238C256.587 41.5711 255.963 42.9966 255.785 51.2822C255.696 57.6078 256.943 65.4479 259.081 71.5062C260.15 74.6245 261.13 75.8718 262.645 76.3172C265.941 77.1191 274.049 75.9608 282.334 73.5553C290.353 71.2389 294.54 68.7443 294.362 66.4279C294.273 65.6261 294.54 65.1806 294.897 65.4479C296.144 66.1607 297.569 61.3497 297.569 56.4496C297.569 51.2822 294.718 43.9766 293.026 44.9566C292.58 45.313 292.313 45.0457 292.402 44.333C292.58 43.7093 290.887 42.2838 288.66 41.2147C285.185 39.4329 283.404 39.1656 274.405 39.2547C268.792 39.2547 262.556 39.7892 260.596 40.3238ZM277.791 40.6802C275.92 40.8584 272.891 40.8584 271.109 40.6802C269.238 40.502 270.752 40.3238 274.405 40.3238C278.058 40.3238 279.573 40.502 277.791 40.6802ZM288.304 44.1548C292.224 47.0057 294.184 50.2131 294.629 54.5786C295.253 59.9242 293.56 64.557 290.086 67.2298C287.145 69.4571 271.109 73.9117 265.763 73.9117C263.001 73.9117 262.823 73.7335 260.952 67.5861C259.081 61.3497 258.012 45.4912 259.438 44.0657C260.863 42.6402 266.476 41.9275 275.92 42.1057C284.384 42.2838 286.255 42.5511 288.304 44.1548Z" fill="#E61D2B"/>
<path d="M171.058 64.9135C157.961 78.2773 150.745 83.6229 134.886 91.4631C128.472 94.5813 122.146 98.2341 120.899 99.3923C118.048 102.065 117.87 105.183 120.275 109.103C121.255 110.707 122.77 115.34 123.571 119.438C125.442 129.06 128.026 132 135.866 133.515C138.806 134.138 143.261 135.475 145.666 136.455C148.161 137.435 151.19 138.682 152.527 139.217C154.665 140.108 155.288 139.929 157.783 137.613C159.298 136.098 162.95 130.04 165.801 124.071C168.741 118.102 172.929 110.44 175.245 107.143C181.214 98.3232 192.529 85.4938 198.677 80.5938C204.468 75.9609 205.18 74.8027 204.378 71.4172C201.973 61.617 194.846 54.7569 186.025 53.866L182.194 53.5096L171.058 64.9135ZM194.044 60.1915C196.627 62.2407 200.458 68.1208 200.458 70.259C200.458 71.3281 195.736 69.8135 192.707 67.8535C190.48 66.5171 187.718 62.2407 186.649 58.8552C186.025 56.8951 186.204 56.806 188.52 57.3406C189.945 57.697 192.44 59.0333 194.044 60.1915ZM184.333 61.5279C185.847 66.428 191.104 71.5063 196.271 72.9318C198.587 73.6445 200.458 74.3573 200.458 74.7136C200.369 74.9809 198.587 76.6737 196.36 78.3664C191.46 82.1083 179.789 95.0268 173.998 103.134C171.681 106.431 167.138 114.449 163.841 121.131C160.545 127.813 156.981 133.96 155.912 134.94C154.13 136.544 154.041 136.544 150.032 134.584C147.805 133.515 143.083 132.089 139.608 131.287C129.362 129.149 128.561 128.258 126.066 116.587C125.353 113.113 123.928 108.925 122.859 107.143L120.899 104.025L123.037 101.976C124.195 100.818 130.432 97.2541 136.757 94.0467C143.172 90.9285 151.19 86.2957 154.576 83.8902C162.861 78.0101 175.245 66.9626 179.076 61.9734C180.769 59.7461 182.462 57.9642 182.729 57.8751C182.996 57.8751 183.709 59.4788 184.333 61.5279Z" fill="#E61D2B"/>
<path d="M216.317 65.5369C214.446 67.4079 215.96 68.2097 221.662 68.2988C234.224 68.477 243.223 74.5353 251.776 88.701C252.578 90.0374 253.112 90.1265 253.914 89.3247C254.805 88.4337 254.27 87.0083 251.152 82.2863C246.608 75.248 240.639 70.2588 233.69 67.6752C228.255 65.626 217.386 64.2896 216.317 65.5369Z" fill="#E61D2B"/>
<path d="M231.017 95.2942C227.097 96.8978 225.939 102.956 228.968 105.985C233.334 110.351 241.352 106.253 240.194 100.194C239.837 98.7688 239.125 97.076 238.501 96.4524C236.986 94.9378 233.245 94.3142 231.017 95.2942ZM236.986 99.6597C238.234 102.154 235.383 105.54 232.71 104.738C230.394 103.936 229.324 100.996 230.75 99.3034C232.354 97.4324 235.828 97.6997 236.986 99.6597Z" fill="#E61D2B"/>
<path d="M103.347 107.143C92.4781 111.509 82.9452 116.765 74.7487 122.913C67.4431 128.347 23.1641 173.25 13.8094 184.654C4.45463 196.058 0 203.363 0 207.462C0.0890926 211.471 3.11824 219.133 7.12741 224.924C11.8493 231.962 29.1333 248.533 35.637 252.364C43.8336 257.086 50.07 258.868 53.7228 257.354C62.8103 253.79 77.6888 241.228 106.822 212.451C131.946 187.683 138.004 180.467 144.508 167.905C149.319 158.461 154.13 146.79 154.13 144.295C154.13 140.375 151.725 142.959 149.319 149.373C146.023 158.283 140.677 168.974 135.777 176.368C128.739 187.06 86.4198 229.2 67.354 244.524C56.9302 252.81 52.6537 255.126 48.6446 254.414C33.4988 251.563 6.23648 224.122 3.29643 208.798C2.31641 203.453 10.5129 192.316 33.8552 167.637C52.921 147.413 71.4523 129.417 78.3124 124.338C86.3307 118.458 93.9927 114.36 105.04 109.905C110.742 107.589 114.573 105.54 114.751 104.738C115.197 102.6 113.593 102.956 103.347 107.143Z" fill="#E61D2B"/>
<path d="M66.8195 139.484C66.8195 143.137 84.638 166.034 93.4582 173.607C100.764 179.843 116.979 191.514 118.404 191.514C118.939 191.514 119.384 190.802 119.384 189.911C119.295 189.02 116.444 186.436 111.989 183.496C96.0419 172.805 85.1726 161.847 73.8578 145.275C69.225 138.415 66.8195 136.455 66.8195 139.484Z" fill="#E61D2B"/>
<path d="M279.751 159.441C268.703 164.252 259.17 168.528 258.458 168.973C257.389 169.686 257.656 171.379 260.507 179.575C269.416 205.234 283.047 224.567 300.064 235.526C307.815 240.515 312.982 245.059 316.19 249.78C318.15 252.72 332.315 284.437 334.365 290.585C335.345 293.347 333.206 298.336 329.91 301.009C327.594 302.969 326.881 304.038 327.504 304.661C328.841 305.998 352.361 295.841 352.361 293.97C352.361 292.901 351.292 292.723 347.194 292.901C342.294 293.258 341.848 293.079 339.265 290.228C337.661 288.447 333.474 280.072 328.484 268.579C320.555 250.048 320.466 249.78 320.021 241.406C319.842 235.882 320.199 230.358 321.09 225.458C324.653 206.749 320.912 186.525 309.686 163.895C303.717 152.046 302.826 150.531 301.133 150.62C300.42 150.62 290.798 154.63 279.751 159.441ZM305.32 162.202C317.526 185.901 321.892 208.531 317.704 226.973C316.902 230.536 316.279 235.971 316.279 239V244.435L312.537 240.782C310.399 238.822 305.231 234.902 300.955 232.14C292.402 226.527 284.74 218.865 278.949 210.134C271.376 198.641 259.883 172.626 261.665 170.933C263.001 169.775 299.797 154.184 300.598 154.362C301.044 154.54 303.182 158.015 305.32 162.202ZM340.779 296.554C340.601 297 339.532 297.534 338.463 297.801C337.126 298.158 336.77 297.98 337.126 296.91C337.394 296.198 337.661 295.218 337.661 294.772C337.661 294.238 338.374 294.327 339.443 294.861C340.423 295.396 341.047 296.198 340.779 296.554Z" fill="#E61D2B"/>
<path d="M275.653 194.276C274.316 196.503 277.434 196.86 294.54 196.681C310.577 196.414 312.27 196.236 312.537 194.811C312.804 193.385 311.468 193.296 294.54 193.296C282.334 193.296 276.098 193.652 275.653 194.276Z" fill="#E61D2B"/>
<path d="M201.349 169.775C197.607 179.665 194.846 198.374 194.846 213.342C194.935 227.686 196.271 234.1 202.062 247.642C208.12 261.808 208.299 264.659 203.933 289.338C201.973 301.009 199.746 311.344 199.033 312.413C197.162 315.353 193.598 317.402 189.945 317.58C186.738 317.847 185.224 319.095 187.005 320.164C188.431 321.055 212.308 325.064 213.11 324.618C214.535 323.727 213.733 322.48 210.971 321.322C207.318 319.807 205.002 317.224 204.111 313.927C203.666 312.235 204.646 304.394 206.962 290.852C211.149 266.174 212.664 262.432 222.732 251.652C226.473 247.731 230.75 242.742 232.264 240.515C238.857 230.804 244.203 217.351 247.143 202.651C248.925 194.009 250.528 177.081 249.637 176.19C249.281 175.834 239.392 173.963 227.632 171.914C215.871 169.954 205.358 167.994 204.289 167.726C202.686 167.37 202.062 167.815 201.349 169.775ZM227.632 175.121C237.877 176.814 246.519 178.507 246.697 178.685C247.677 179.576 244.826 199.265 242.421 208.798C239.748 219.311 234.67 231.338 230.037 238.02C228.612 240.159 224.424 245.059 220.771 249.068C217.119 253.077 213.377 257.532 212.397 259.046C210.437 262.432 209.368 262.699 209.368 259.67C209.368 257.532 207.14 251.206 202.686 240.693C199.478 233.031 197.786 223.32 197.786 212.629C197.786 203.631 199.567 188.485 201.438 181.357C201.973 179.397 202.775 176.19 203.22 174.319C204.022 171.201 204.378 170.934 206.517 171.379C207.853 171.646 217.297 173.339 227.632 175.121ZM201.795 319.629C200.993 319.807 199.746 319.718 198.944 319.451C197.696 318.916 197.696 318.738 199.211 317.58C200.726 316.511 201.082 316.511 202.062 317.847C203.042 319.095 202.953 319.451 201.795 319.629Z" fill="#E61D2B"/>
<path d="M201.795 204.076C200.369 206.304 203.487 206.66 220.593 206.482C235.65 206.215 238.323 206.037 238.323 204.878C238.323 203.72 235.65 203.542 220.326 203.275C207.942 203.096 202.151 203.364 201.795 204.076Z" fill="#E61D2B"/>
<path d="M28.866 178.595C28.1533 180.377 35.637 191.514 44.5463 201.938C53.0992 212.005 76.976 230.804 79.2924 229.378C81.0743 228.309 80.0942 227.151 72.8777 222.073C56.3956 210.491 46.8627 201.047 36.4389 185.99C30.5588 177.348 29.6678 176.457 28.866 178.595Z" fill="#E61D2B"/>
</svg>
