<svg width="361" height="139" viewBox="0 0 361 139" fill="none" xmlns="http://www.w3.org/2000/svg">
<path d="M242.802 1.16962C242.802 1.8468 243.11 2.58553 243.418 2.77022C243.787 3.01647 244.033 2.46241 244.033 1.60055C244.033 0.73869 243.787 -4.74453e-05 243.418 -4.74453e-05C243.11 -4.74453e-05 242.802 0.554006 242.802 1.16962Z" fill="#E61D2B"/>
<path d="M236.03 2.27779C236.03 2.5856 236.276 3.20122 236.646 3.69371C237.323 4.80181 238.185 4.12464 237.692 2.77029C237.323 1.84686 236.03 1.47749 236.03 2.27779Z" fill="#E61D2B"/>
<path d="M249.328 2.8312C249.081 3.38544 249.081 4.00127 249.204 4.12444C249.697 4.6171 250.806 3.63177 250.806 2.70803C250.806 1.53796 249.82 1.59955 249.328 2.8312Z" fill="#E61D2B"/>
<path d="M124.604 3.69359C124.604 4.06296 126.389 4.3092 128.667 4.3092C131.191 4.3092 132.545 4.06296 132.299 3.69359C132.115 3.32422 130.268 3.07797 128.236 3.07797C126.205 3.07797 124.604 3.32422 124.604 3.69359Z" fill="#E61D2B"/>
<path d="M135.993 3.69359C135.747 4.12452 140.302 4.3092 149.167 4.3092C157.847 4.3092 162.772 4.06296 162.772 3.69359C162.772 3.32422 157.97 3.07797 149.598 3.07797C141.41 3.07797 136.239 3.32422 135.993 3.69359Z" fill="#E61D2B"/>
<path d="M292.482 4.92478C291.559 5.66352 290.02 6.15601 288.727 6.15601C286.326 6.15601 285.526 6.77163 282.14 11.3272C279.985 14.2206 279.924 15.5749 281.894 17.5449C283.371 19.0839 287.127 19.6995 287.127 18.4683C287.127 18.0989 286.449 17.8527 285.587 17.8527C282.202 17.8527 280.724 13.7896 283.494 12.2506C284.172 11.9428 284.664 11.2656 284.664 10.7731C284.664 9.11096 287.311 7.26412 289.281 7.57193C290.574 7.75661 291.62 7.4488 292.852 6.40226C293.837 5.60196 295.314 4.92478 296.114 4.92478C298.146 4.92478 300.67 7.51037 300.67 9.60346C300.67 10.5884 301.286 11.8197 302.209 12.6815C304.056 14.4053 304.117 15.0209 302.517 16.6215C301.47 17.668 300.485 17.8527 296.361 17.8527C293.467 17.8527 291.436 18.0989 291.436 18.4683C291.436 18.8377 293.59 19.0839 296.669 19.0839C301.47 19.0839 302.086 18.9608 303.44 17.5449C305.41 15.6365 305.349 14.0974 303.44 11.8197C302.578 10.7731 301.901 9.35721 301.901 8.61847C301.901 7.87973 301.101 6.46382 300.116 5.47884C297.9 3.32418 294.822 3.07794 292.482 4.92478Z" fill="#E61D2B"/>
<path d="M240.832 5.66348C235.661 7.01783 233.075 12.9893 235.353 18.0989C236.892 21.6079 239.601 23.3932 243.479 23.3932C250.497 23.3932 255.053 15.4518 251.298 9.84966C248.589 5.90973 245.141 4.49381 240.832 5.66348ZM248.65 8.80312C252.406 12.5584 251.913 18.2836 247.604 20.9307C240.463 25.24 232.583 16.9908 237.138 9.97278C238.431 7.94126 240.832 6.83315 243.972 6.77159C246.188 6.77159 246.988 7.14096 248.65 8.80312Z" fill="#E61D2B"/>
<path d="M202.972 7.81823C202.91 9.54195 203.033 9.7882 203.772 9.17258C204.449 8.61853 204.819 8.61853 205.496 9.17258C206.235 9.7882 206.358 9.54195 206.296 7.81823C206.235 6.03295 206.05 5.72514 204.634 5.72514C203.218 5.72514 203.033 6.03295 202.972 7.81823Z" fill="#E61D2B"/>
<path d="M231.105 7.38728C231.105 8.18758 232.829 8.92631 233.445 8.37226C233.629 8.12601 233.445 7.69508 232.952 7.38728C231.721 6.58698 231.105 6.64854 231.105 7.38728Z" fill="#E61D2B"/>
<path d="M253.945 7.57156C253.575 8.06423 253.452 8.61847 253.698 8.80322C254.129 9.29588 255.731 8.12581 255.731 7.32523C255.731 6.52466 254.745 6.64783 253.945 7.57156Z" fill="#E61D2B"/>
<path d="M99.0559 8.55687C98.3172 8.86468 97.4553 9.4803 97.0244 9.97279C96.5935 10.5268 95.6701 10.7731 94.8082 10.65C92.9614 10.2806 89.6986 11.9428 89.2061 13.5434C88.9599 14.2205 88.1596 15.5133 87.2977 16.3136C85.5124 18.1605 85.4509 19.6379 87.113 21.7926C88.0364 22.9623 88.9599 23.3932 90.4989 23.3932C91.6686 23.3932 92.592 23.0854 92.592 22.7776C92.592 22.4082 91.7917 22.162 90.8067 22.162C87.4824 22.162 86.3127 18.653 89.0214 16.7445C89.637 16.3136 90.1295 15.5749 90.1295 15.0824C90.1295 13.4818 93.2692 11.6349 95.3623 12.0659C96.8397 12.3121 97.4553 12.189 97.7016 11.4503C98.3172 9.84966 101.149 9.04936 103.181 9.91123C105.274 10.7731 106.136 12.189 106.136 14.6515C106.136 15.8827 106.505 16.5599 107.244 16.8061C108.783 17.1755 109.275 19.3301 108.167 20.8692C107.428 21.9773 106.628 22.162 102.072 22.162C99.0559 22.162 96.9013 22.4082 96.9013 22.7776C96.9013 23.1469 99.1175 23.3932 102.38 23.3932C107.613 23.3932 107.982 23.3316 109.152 21.7926C110.876 19.6379 110.753 18.1605 108.906 16.2521C108.044 15.3902 107.367 14.0358 107.367 13.2355C107.367 9.84966 102.442 7.0794 99.0559 8.55687Z" fill="#E61D2B"/>
<path d="M35.5242 14.5899C35.4627 16.5599 36.1398 17.237 36.8786 16.0058C37.1864 15.5133 37.5558 15.5133 38.1098 16.0058C38.7254 16.5599 38.9101 16.252 38.9101 14.5899C38.9101 12.743 38.7254 12.4968 37.2479 12.4968C35.7705 12.4968 35.5858 12.743 35.5242 14.5899Z" fill="#E61D2B"/>
<path d="M176.685 14.4054C173.176 15.6981 171.329 17.2987 169.729 20.3153C168.19 23.2086 167.882 27.4564 168.928 30.5345C169.667 32.6276 179.394 46.2942 180.44 46.602C181.118 46.8483 189.982 35.1516 191.829 31.4579C193.43 28.3798 193.245 23.578 191.521 20.2537C188.813 15.2057 181.918 12.497 176.685 14.4054ZM185.55 16.3753C187.643 17.4219 190.29 20.2537 191.029 22.3468C191.891 24.6246 191.829 28.1951 190.906 30.2882C190.105 32.1351 181.118 44.8783 180.625 44.8783C180.071 44.9398 170.898 31.7657 170.221 29.9804C169.298 27.5795 169.359 24.3783 170.406 21.9774C171.391 19.515 175.146 16.1291 177.424 15.6366C178.347 15.4519 179.394 15.2057 179.702 15.0825C180.687 14.8363 183.888 15.5135 185.55 16.3753Z" fill="#E61D2B"/>
<path d="M176.931 21.8544C172.376 26.7177 179.024 33.6742 184.011 29.3649C186.227 27.4564 186.35 24.0706 184.318 21.8544C182.348 19.7613 178.901 19.7613 176.931 21.8544ZM183.21 22.5931C184.503 23.7628 184.688 26.4099 183.457 28.0105C182.348 29.5495 178.901 29.5495 177.793 28.0105C174.961 24.1321 179.701 19.3919 183.21 22.5931Z" fill="#E61D2B"/>
<path d="M229.259 14.1592C229.259 14.467 229.997 14.7748 230.859 14.7748C231.721 14.7748 232.275 14.5285 232.029 14.1592C231.844 13.7898 231.105 13.5436 230.428 13.5436C229.813 13.5436 229.259 13.7898 229.259 14.1592Z" fill="#E61D2B"/>
<path d="M255.114 14.1592C255.114 14.467 255.668 14.7748 256.345 14.7748C257.023 14.7748 257.577 14.467 257.577 14.1592C257.577 13.7898 257.023 13.5436 256.345 13.5436C255.668 13.5436 255.114 13.7898 255.114 14.1592Z" fill="#E61D2B"/>
<path d="M288.05 18.4682C288.234 18.7761 288.665 19.084 289.035 19.084C289.343 19.084 289.589 18.7761 289.589 18.4682C289.589 18.0987 289.158 17.8523 288.604 17.8523C288.111 17.8523 287.865 18.0987 288.05 18.4682Z" fill="#E61D2B"/>
<path d="M231.721 20.3153C231.229 20.6231 231.044 21.054 231.229 21.3002C231.844 21.8543 233.568 21.1156 233.568 20.3153C233.568 19.5765 232.952 19.515 231.721 20.3153Z" fill="#E61D2B"/>
<path d="M253.268 20.3152C253.268 20.623 253.822 21.177 254.499 21.5464C255.484 22.0389 255.73 22.0389 255.73 21.3002C255.73 20.8692 255.299 20.2536 254.745 20.0689C253.452 19.5764 253.268 19.5764 253.268 20.3152Z" fill="#E61D2B"/>
<path d="M93.2075 22.7774C93.2075 23.0853 93.6385 23.3932 94.1312 23.3932C94.6239 23.3932 95.0549 23.0853 95.0549 22.7774C95.0549 22.4079 94.6239 22.1615 94.1312 22.1615C93.6385 22.1615 93.2075 22.4079 93.2075 22.7774Z" fill="#E61D2B"/>
<path d="M236.646 24.9323C236.092 25.6095 236.03 26.102 236.461 26.5329C236.954 27.0254 237.261 26.8407 237.569 25.8557C238.123 24.132 237.692 23.7011 236.646 24.9323Z" fill="#E61D2B"/>
<path d="M248.958 25.1165C248.958 25.4244 249.389 26.1018 249.944 26.5329C250.806 27.2718 250.929 27.2103 250.744 26.2249C250.498 24.9933 248.958 24.0696 248.958 25.1165Z" fill="#E61D2B"/>
<path d="M242.802 27.0255C242.802 27.7026 243.11 28.4414 243.418 28.6261C243.787 28.8723 244.033 28.3182 244.033 27.4564C244.033 26.5945 243.787 25.8558 243.418 25.8558C243.11 25.8558 242.802 26.4098 242.802 27.0255Z" fill="#E61D2B"/>
<path d="M134.331 30.9039C133.038 32.012 132.668 33.3048 133.284 34.9054C133.715 36.0135 134.269 36.3213 135.993 36.3213C137.778 36.3213 138.27 36.0135 138.763 34.7207C139.933 31.6426 136.855 28.9339 134.331 30.9039ZM137.409 33.4895C137.286 34.2898 136.793 34.7823 135.993 34.7823C134.577 34.7823 133.961 32.6892 135.131 32.012C136.362 31.2117 137.593 32.0735 137.409 33.4895Z" fill="#E61D2B"/>
<path d="M334.959 31.2732C332.866 33.551 334.036 36.3213 336.991 36.3213C340.131 36.3213 341.239 32.9354 338.715 31.1501C336.929 29.8573 336.191 29.9189 334.959 31.2732ZM338.53 33.551C338.53 34.9054 336.622 35.5826 335.637 34.5976C334.59 33.551 335.575 31.8889 337.114 32.1351C338.037 32.2582 338.53 32.7507 338.53 33.551Z" fill="#E61D2B"/>
<path d="M43.9584 35.7057C43.9584 36.075 48.7602 36.3213 57.1941 36.3213C65.628 36.3213 70.4298 36.075 70.4298 35.7057C70.4298 35.3363 65.628 35.0901 57.1941 35.0901C48.7602 35.0901 43.9584 35.3363 43.9584 35.7057Z" fill="#E61D2B"/>
<path d="M74.1236 35.7057C74.1236 36.075 75.9088 36.3213 78.1866 36.3213C80.7106 36.3213 82.065 36.075 81.8188 35.7057C81.6341 35.3363 79.7872 35.0901 77.7557 35.0901C75.7242 35.0901 74.1236 35.3363 74.1236 35.7057Z" fill="#E61D2B"/>
<path d="M252.036 41.8618C252.036 42.2312 256.961 42.4774 265.641 42.4774C274.506 42.4774 279.062 42.2927 278.815 41.8618C278.569 41.4924 273.398 41.2462 265.21 41.2462C256.838 41.2462 252.036 41.4924 252.036 41.8618Z" fill="#E61D2B"/>
<path d="M282.817 41.8618C282.817 42.2312 284.479 42.4774 286.511 42.4774C288.542 42.4774 290.204 42.2312 290.204 41.8618C290.204 41.4924 288.542 41.2462 286.511 41.2462C284.479 41.2462 282.817 41.4924 282.817 41.8618Z" fill="#E61D2B"/>
<path d="M311.258 45.5554C310.52 46.2942 309.104 46.7867 307.872 46.7867C305.472 46.7867 304.363 47.5254 302.27 50.4803C299.808 53.8662 299.377 55.2206 300.177 56.9443C300.854 58.4833 304.425 60.1455 305.595 59.4068C306.58 58.7911 305.718 57.8677 304.117 57.8677C301.408 57.8677 300.177 54.4203 302.393 52.8197C302.948 52.3888 303.809 51.2806 304.179 50.3572C304.979 48.5719 307.195 47.6485 309.227 48.2026C309.966 48.3873 310.951 47.9563 311.812 47.0329C314.583 44.078 319.754 46.0479 319.754 50.111C319.754 51.1575 320.369 52.3272 321.416 53.1891C322.893 54.4818 323.017 54.7896 322.339 56.2671C321.662 57.8062 321.478 57.8677 316.06 57.8677C312.797 57.8677 310.52 58.114 310.52 58.4833C310.52 58.8527 312.859 59.099 316.306 59.099C321.662 59.099 322.216 58.9758 323.078 57.7446C324.494 55.7746 324.309 53.6815 322.524 52.0809C321.601 51.2191 320.985 49.9879 320.985 49.0029C320.985 48.0794 320.308 46.6635 319.446 45.8632C317.538 43.8933 313.228 43.7086 311.258 45.5554Z" fill="#E61D2B"/>
<path d="M118.325 45.4323C111.984 45.4939 107.982 45.8017 107.982 46.171C107.982 47.0329 129.529 46.7251 129.59 45.8632C129.652 45.1245 130.698 45.186 118.325 45.4323Z" fill="#E61D2B"/>
<path d="M132.976 45.3707C131.991 46.3557 132.853 46.7866 135.624 46.7866C138.825 46.7866 140.795 45.617 137.717 45.4938C136.793 45.4938 135.439 45.3707 134.7 45.2476C133.961 45.0629 133.223 45.1245 132.976 45.3707Z" fill="#E61D2B"/>
<path d="M102.504 52.204C98.8098 54.174 97.1477 59.0374 98.9329 62.8542C100.349 65.8707 105.828 73.2581 106.567 73.0734C106.997 73.0118 108.967 70.6109 110.999 67.7791C114.323 63.2235 114.754 62.2386 114.754 59.7761C114.754 53.0043 108.352 49.0644 102.504 52.204ZM109.829 53.2506C112.046 54.3587 113.523 57.0674 113.523 59.8377C113.523 61.3767 112.6 63.162 110.076 66.7325C108.167 69.3181 106.382 71.2881 106.136 70.9803C105.889 70.734 104.35 68.5794 102.688 66.1785C100.226 62.7311 99.6717 61.4383 99.6717 59.3452C99.6717 54.1124 105.151 50.8497 109.829 53.2506Z" fill="#E61D2B"/>
<path d="M104.042 56.3904C102.503 57.9294 102.811 60.7612 104.658 61.9309C108.044 64.1471 111.799 60.3303 109.583 56.9444C108.413 55.1591 105.52 54.8513 104.042 56.3904ZM108.598 57.8063C109.029 58.7297 108.906 59.2838 108.105 60.3303C107.12 61.5 106.751 61.6231 105.643 61.0075C104.165 60.2072 103.858 58.545 105.027 57.3754C106.135 56.2673 107.859 56.5135 108.598 57.8063Z" fill="#E61D2B"/>
<path d="M249.143 52.3272C246.68 53.8046 245.264 56.4518 245.264 59.653C245.264 61.9923 246.495 64.2701 251.974 71.8422C253.637 74.1815 253.575 74.3046 258.992 66.3016C261.332 62.9157 261.886 61.5614 261.886 59.5299C261.886 52.9428 254.745 48.8797 249.143 52.3272ZM258.685 55.0974C262.009 58.668 261.64 60.3302 255.545 68.8256L253.637 71.4728L252.528 70.0569C248.958 65.5629 246.495 61.2536 246.495 59.5914C246.495 55.4668 250.435 52.0194 254.498 52.5734C255.914 52.8197 257.33 53.62 258.685 55.0974Z" fill="#E61D2B"/>
<path d="M251.174 56.2056C248.897 57.8678 250.682 62.7927 253.575 62.7927C254.006 62.7927 254.991 62.3002 255.73 61.6846C258.377 59.53 256.961 55.4053 253.575 55.4053C252.836 55.4053 251.79 55.7747 251.174 56.2056ZM254.991 57.3753C256.838 59.2222 254.745 62.1155 252.467 60.8843C250.682 59.8378 251.544 56.6366 253.575 56.6366C253.945 56.6366 254.56 56.9444 254.991 57.3753Z" fill="#E61D2B"/>
<path d="M149.844 52.7582C147.628 53.5585 145.72 56.3287 141.41 64.9473L136.793 74.1816L137.039 79.2912C137.224 84.2161 137.286 84.5239 139.256 86.2476C140.364 87.2326 141.656 88.0329 142.149 88.0329C142.949 88.0329 143.072 90.68 143.072 107.117V126.201H137.224H131.314L131.622 114.32C131.807 107.856 132.053 99.2986 132.114 95.4203L132.299 88.3407L128.174 88.156L123.988 87.9713V82.8002V77.5674H106.443H88.8983V82.8002V87.9713L84.7736 88.156L80.5875 88.3407L80.7106 94.8047C80.8337 98.3752 81.0184 106.871 81.2031 113.766L81.5724 126.201L70.9223 126.078L60.2722 125.893L60.0875 118.567L59.9028 111.303L62.55 108.471C64.1506 106.686 64.8277 105.578 64.3352 105.393C63.9043 105.27 62.9193 105.701 62.1806 106.44C60.4569 108.04 59.9644 108.04 59.9644 106.501C59.9644 105.824 60.9494 104.162 62.1806 102.808C64.5815 100.161 64.643 98.6215 62.2421 100.838C61.4418 101.576 60.6415 102.192 60.3953 102.192C60.1491 102.192 59.9644 100.53 59.9644 98.4983C59.9644 96.4668 59.7181 94.8047 59.3488 94.8047C58.9794 94.8047 58.7331 96.4668 58.7331 98.6215V102.438L56.5785 100.345C53.5004 97.3287 53.0695 98.6215 56.1476 101.761C58.1791 103.793 58.7331 104.839 58.7331 106.501V108.533L57.3172 107.24C54.7932 104.901 54.0545 105.763 56.4554 108.225L58.7331 110.564V116.597C58.7331 121.215 58.5485 122.507 57.9944 122.261C57.5635 122.076 56.7632 121.707 56.2707 121.522C55.7782 121.338 54.7932 120.291 54.116 119.245C52.3923 116.474 49.1296 115.736 46.3593 117.398C45.1896 118.013 44.1431 119.121 44.0199 119.799C43.8353 120.907 43.8968 120.907 44.9434 119.983C48.2677 117.09 51.8383 117.398 53.562 120.722C54.0545 121.707 54.7932 122.507 55.2857 122.507C56.086 122.507 58.7331 125.031 58.7331 125.77C58.7331 126.016 55.7166 126.201 52.0229 126.201H45.3127L44.6356 124.354C44.3278 123.308 43.5275 122.323 42.9118 122.076C42.2962 121.83 41.3112 121.03 40.6956 120.23C39.095 118.198 36.2016 118.383 33.4929 120.722L31.3383 122.569L31.1536 117.829C30.9689 113.396 31.092 112.965 32.6311 111.365C34.5395 109.395 34.1701 108.163 32.2617 109.887C31.092 110.934 31.0305 110.934 31.0305 109.887C31.0305 109.21 31.7692 107.979 32.6926 106.994C34.5395 105.085 34.1701 103.854 32.3233 105.516C31.1536 106.624 31.092 106.563 30.9074 103.67C30.6611 100.099 29.553 99.9143 29.3068 103.423C29.1836 104.778 28.9989 105.886 28.8143 105.886C28.6296 105.886 27.8908 105.332 27.1521 104.654C24.9975 102.623 25.1206 104.531 27.2752 106.748C28.3218 107.856 29.1836 109.21 29.1836 109.764C29.1836 110.749 29.0605 110.749 27.6446 109.826C26.3518 108.964 26.1056 108.964 26.1056 109.703C26.1056 110.195 26.7827 111.242 27.6446 112.042C29.1221 113.396 29.1836 113.889 29.1836 119.86V126.201H14.7782C6.83681 126.201 0.188174 126.447 0.00348972 126.755C-0.489002 127.494 51.1611 127.986 145.535 128.048C250.374 128.109 361 127.432 361 126.755C361 126.447 352.32 126.201 341.608 126.201H322.216V118.752V111.242L324.802 108.471C326.402 106.686 327.08 105.578 326.587 105.393C326.156 105.27 325.171 105.701 324.432 106.44C322.709 108.102 322.216 108.04 322.216 106.378C322.216 105.639 323.263 103.977 324.494 102.685C326.895 100.222 326.895 98.6215 324.494 100.838C323.694 101.576 322.893 102.192 322.647 102.192C322.401 102.192 322.216 100.53 322.216 98.4983C322.216 96.4668 321.97 94.8047 321.601 94.8047C321.231 94.8047 320.985 96.4668 320.985 98.6215V102.438L318.954 100.468C317.845 99.3602 316.737 98.4983 316.491 98.4983C315.445 98.4983 316.245 100.037 318.523 102.254C320.369 104.1 320.985 105.209 320.985 106.624V108.533L319.508 107.179C316.984 104.839 316.368 106.009 318.769 108.533L320.985 110.872V116.782C320.985 121.215 320.8 122.507 320.246 122.261C319.815 122.076 319.015 121.707 318.461 121.522C317.907 121.338 317.168 120.537 316.799 119.737C315.875 117.706 312.674 116.166 310.335 116.597C308.119 117.028 306.21 118.629 306.21 119.922C306.21 120.722 306.333 120.722 307.318 119.922C310.396 117.213 314.029 117.398 315.629 120.353C315.999 121.153 317.291 122.446 318.461 123.246C322.278 125.832 321.724 126.201 314.336 126.201H307.565L306.826 124.354C306.395 123.369 305.841 122.507 305.533 122.507C305.225 122.507 304.24 121.645 303.317 120.66C301.101 118.198 298.515 118.198 295.745 120.66C294.637 121.645 293.529 122.507 293.344 122.507C293.159 122.507 293.036 120.353 293.159 117.767C293.344 113.581 293.59 112.719 295.006 111.303C296.73 109.395 296.422 108.163 294.637 109.764C292.113 112.042 292.421 109.764 295.006 106.994C296.791 105.085 296.422 103.854 294.575 105.516C293.405 106.624 293.344 106.563 293.159 103.67C292.913 100.099 291.805 99.9143 291.559 103.423C291.312 106.255 291.128 106.378 289.158 104.531C288.111 103.546 287.742 103.423 287.742 104.1C287.742 104.654 288.604 105.824 289.589 106.809C290.635 107.794 291.436 109.087 291.436 109.703C291.436 111.057 291.005 111.118 289.712 109.826C287.988 108.04 288.05 110.133 289.835 111.98C291.374 113.581 291.436 114.012 291.436 119.922V126.201H282.817H274.198V110.811V95.4203H276.353C278.446 95.4203 278.508 95.3587 278.508 92.9578C278.508 90.5569 278.446 90.4953 276.353 90.4953H274.198V84.3392V78.1831H253.575H233.014L232.829 84.1545L232.644 90.1875L228.458 90.4953C226.18 90.68 224.334 90.9878 224.334 91.2341C224.334 91.5419 224.334 92.5269 224.334 93.5119C224.334 95.2356 224.518 95.3587 226.981 95.5434L229.566 95.7281V110.811V125.893L223.903 126.078L218.177 126.263V107.302V88.3407L220.209 87.4173C222.979 86.1245 224.334 83.108 224.334 78.1831C224.272 74.4894 223.903 73.3813 219.778 64.6395C216.207 57.0675 214.915 54.7897 213.252 53.6816L211.221 52.3272L180.994 52.3888C164.373 52.3888 150.337 52.5735 149.844 52.7582ZM155.385 53.9894C155.385 54.2972 154.092 58.7296 152.491 63.8392L149.536 73.2581H144.488C141.656 73.2581 139.379 73.135 139.379 72.9503C139.379 72.2731 146.397 58.0525 147.566 56.4519C148.244 55.4669 149.352 54.4819 150.09 54.1741C151.691 53.4969 155.385 53.3738 155.385 53.9894ZM165.85 53.9894C165.85 54.2972 164.865 58.7296 163.634 63.8392L161.418 73.2581H156.247C153.415 73.2581 151.075 73.0734 151.075 72.8888C151.075 72.581 156.062 56.6365 156.924 54.2972C157.232 53.4969 165.85 53.1891 165.85 53.9894ZM175.146 53.8663C175.331 53.9894 175.084 57.9293 174.653 62.608C174.284 67.2867 173.915 71.596 173.853 72.15C173.853 73.135 173.176 73.2581 168.251 73.2581C163.265 73.2581 162.71 73.135 163.018 72.15C163.203 71.596 164.188 67.4714 165.234 63.1005C166.281 58.6681 167.204 54.7281 167.389 54.2972C167.635 53.62 174.469 53.1891 175.146 53.8663ZM184.565 55.8362C184.749 57.129 185.057 60.3918 185.242 63.1005C185.427 65.8092 185.734 69.1951 185.981 70.611L186.289 73.2581H180.625H174.961L175.331 70.9188C175.515 69.6876 175.823 66.4248 176.008 63.7161C176.192 61.0074 176.5 57.6215 176.746 56.144L177.054 53.5585H180.625H184.195L184.565 55.8362ZM195.831 62.1771C196.939 66.7326 197.985 71.1035 198.17 71.8422C198.478 73.2581 198.416 73.2581 192.937 73.2581C188.074 73.2581 187.397 73.135 187.397 72.15C187.335 71.596 186.966 67.2867 186.596 62.608C186.165 57.9293 185.919 53.9894 186.104 53.8047C186.289 53.62 188.074 53.5585 190.105 53.6816L193.799 53.8663L195.831 62.1771ZM207.219 63.1005C208.82 68.1485 210.174 72.5194 210.174 72.7656C210.174 73.0734 207.835 73.2581 205.003 73.2581H199.832L197.616 63.8392C196.385 58.7296 195.4 54.2356 195.4 53.9894C195.4 53.7431 197.37 53.5585 199.832 53.6816L204.264 53.8663L207.219 63.1005ZM212.021 54.4819C213.499 55.2206 214.668 57.1906 217.87 63.8392C220.086 68.4563 221.871 72.4578 221.871 72.7656C221.871 73.0734 219.593 73.2581 216.823 73.135L211.775 72.9503L208.82 64.0239C207.281 59.099 205.927 54.7281 205.927 54.2972C205.865 53.2507 209.805 53.3738 212.021 54.4819ZM149.105 78.9834C149.29 82.8617 149.167 83.2311 147.443 84.9548C145.165 87.2326 142.58 87.3557 140.241 85.3857C138.825 84.1545 138.517 83.2927 138.271 80.153C137.84 74.4278 137.901 74.4278 143.811 74.6125L148.921 74.7972L149.105 78.9834ZM160.925 79.1065C160.925 83.2311 160.741 83.9698 159.386 85.2626C157.293 87.4173 154.584 87.2942 152.245 85.0164C150.644 83.4158 150.46 82.8002 150.46 79.2296C150.46 77.0749 150.644 75.105 150.891 74.9203C151.075 74.674 153.476 74.4894 156.123 74.4894H160.925V79.1065ZM173.73 78.9834C173.915 82.8617 173.792 83.2311 172.068 84.9548C169.728 87.3557 166.466 87.4788 164.311 85.2626C162.957 83.9698 162.772 83.2311 162.772 79.1065V74.4278L168.189 74.6125L173.545 74.7972L173.73 78.9834ZM186.165 78.8602C186.165 82.8617 186.042 83.3542 184.38 85.0164C183.149 86.2476 181.979 86.8017 180.625 86.8017C179.271 86.8017 178.101 86.2476 176.87 85.0164C175.269 83.4158 175.084 82.8002 175.084 79.2296C175.084 77.0749 175.269 75.105 175.515 74.9203C175.7 74.674 178.224 74.4894 181.056 74.4894H186.165V78.8602ZM198.478 79.1065C198.478 83.2311 198.293 83.9698 196.939 85.2626C194.784 87.4788 191.521 87.3557 189.182 85.0164C187.581 83.4158 187.397 82.8002 187.397 79.2296C187.397 77.0749 187.581 75.105 187.828 74.9203C188.012 74.674 190.536 74.4894 193.368 74.4894H198.478V79.1065ZM210.667 78.9834C210.852 82.8617 210.728 83.2311 209.005 84.9548C206.665 87.2942 203.957 87.4173 201.864 85.2626C200.509 83.9698 200.325 83.2311 200.325 79.1065V74.4278L205.434 74.6125L210.482 74.7972L210.667 78.9834ZM222.979 78.1215C223.102 79.9683 222.856 82.2461 222.425 83.2311C220.825 87.1095 216.761 87.9713 213.807 85.0164C212.206 83.4158 212.021 82.8002 212.021 79.2296C212.021 77.0749 212.206 75.105 212.452 74.8587C212.698 74.6125 215.099 74.5509 217.87 74.6125L222.794 74.7972L222.979 78.1215ZM122.757 83.4158V88.0329H107.059C98.4403 88.0329 91.176 88.0945 90.9298 88.156C90.622 88.2791 90.3757 86.186 90.2526 83.5389L90.0679 78.7987H106.443H122.757V83.4158ZM237.877 82.1845C237.877 84.8317 237.815 84.9548 236.03 84.9548C234.245 84.9548 234.183 84.8317 234.183 82.1845C234.183 79.5374 234.245 79.4143 236.03 79.4143C237.815 79.4143 237.877 79.5374 237.877 82.1845ZM242.802 82.1845C242.802 84.8317 242.74 84.9548 240.955 84.9548C239.17 84.9548 239.108 84.8317 239.108 82.1845C239.108 79.5374 239.17 79.4143 240.955 79.4143C242.74 79.4143 242.802 79.5374 242.802 82.1845ZM247.727 82.1845C247.727 84.8317 247.665 84.9548 245.88 84.9548C244.095 84.9548 244.033 84.8317 244.033 82.1845C244.033 79.5374 244.095 79.4143 245.88 79.4143C247.665 79.4143 247.727 79.5374 247.727 82.1845ZM252.652 82.1845C252.652 84.8317 252.59 84.9548 250.805 84.9548C249.081 84.9548 248.958 84.8317 248.958 82.6155C248.958 79.8452 249.266 79.4143 251.236 79.4143C252.529 79.4143 252.652 79.7221 252.652 82.1845ZM258.069 82.3077C258.254 84.8933 258.192 84.9548 256.407 84.9548C254.56 84.9548 254.499 84.8933 254.499 82.123C254.499 79.4143 254.56 79.3527 256.222 79.5374C257.7 79.7221 257.885 79.9683 258.069 82.3077ZM263.117 82.1845C263.117 84.8317 263.056 84.9548 261.27 84.9548C259.485 84.9548 259.424 84.8317 259.424 82.1845C259.424 79.5374 259.485 79.4143 261.27 79.4143C263.056 79.4143 263.117 79.5374 263.117 82.1845ZM268.042 82.1845C268.042 84.8317 267.981 84.9548 266.195 84.9548C264.41 84.9548 264.348 84.8317 264.348 82.1845C264.348 79.5374 264.41 79.4143 266.195 79.4143C267.981 79.4143 268.042 79.5374 268.042 82.1845ZM272.967 82.1845C272.967 84.8317 272.906 84.9548 271.12 84.9548C269.335 84.9548 269.273 84.8317 269.273 82.1845C269.273 79.5374 269.335 79.4143 271.12 79.4143C272.906 79.4143 272.967 79.5374 272.967 82.1845ZM150.891 85.8167C152.43 88.3407 157.478 88.7716 160.125 86.5554L161.849 85.0779L163.572 86.5554C164.804 87.602 166.035 88.0329 167.759 88.0329C170.344 88.0329 173.545 86.7401 173.976 85.5089C174.099 85.0779 174.9 85.4473 175.946 86.4323C178.409 88.6485 182.78 88.7101 185.18 86.4939L186.904 84.9548L188.751 86.4939C191.213 88.5869 195.277 88.6485 197.677 86.5554L199.401 85.0779L201.125 86.5554C202.233 87.4788 203.649 88.0329 205.003 88.0329C207.343 88.0329 210.482 86.6785 211.036 85.4473C211.344 84.7701 211.467 84.7701 211.775 85.4473C211.96 85.8782 213.191 86.8017 214.545 87.4173L216.946 88.6485V107.425V126.201H212.329H207.712V111.734V97.2671H196.939H186.165V111.734V126.201H165.234H144.304V107.117C144.304 89.0179 144.365 88.0329 145.412 88.0329C146.089 88.0329 147.259 87.3557 148.059 86.5554C149.844 84.8317 150.214 84.7086 150.891 85.8167ZM272.844 88.4638L273.029 90.4953H253.637H234.183V88.3407V86.186L253.452 86.3092L272.659 86.4939L272.844 88.4638ZM88.7751 93.3887L88.5905 96.9593H85.2046C82.1265 96.9593 81.8187 96.8362 81.634 95.4818C81.5109 94.6815 81.5724 93.0809 81.8187 91.9728C82.1881 89.8797 82.1881 89.8797 85.5739 89.8797H88.9598L88.7751 93.3887ZM97.3937 93.3887L97.2091 96.9593H93.8232H90.4373L90.2526 93.3887L90.0679 89.8797H93.8232H97.5784L97.3937 93.3887ZM106.012 93.3887L105.828 96.9593H102.442H99.0559L98.8712 93.3887L98.6865 89.8797H102.442H106.197L106.012 93.3887ZM114.138 93.635V97.3287L110.937 97.144L107.675 96.9593L107.49 93.3887L107.305 89.8797H110.753H114.138V93.635ZM122.634 93.3887L122.449 96.9593H119.063H115.678L115.493 93.3887L115.308 89.8797H119.063H122.819L122.634 93.3887ZM131.253 93.3887L131.068 96.9593H127.682H124.296L124.111 93.3887L123.927 89.8797H127.682H131.437L131.253 93.3887ZM277.276 92.9578C277.276 94.189 276.845 94.189 251.421 94.189C225.996 94.189 225.565 94.189 225.565 92.9578C225.565 91.7266 225.996 91.7266 251.421 91.7266C276.845 91.7266 277.276 91.7266 277.276 92.9578ZM272.844 96.4668C272.721 97.0824 272.413 97.5134 272.167 97.3902C271.921 97.3287 262.625 97.2671 251.421 97.2671C233.752 97.2671 231.105 97.144 231.105 96.3437C231.105 95.5434 233.876 95.4203 252.098 95.4203C271.736 95.4203 273.029 95.4818 272.844 96.4668ZM88.8983 99.8527C88.8983 100.591 88.4673 101.7 87.8517 102.315C85.8202 104.593 82.1265 103.054 82.1265 99.9758C82.1265 98.6215 82.3112 98.4983 85.5124 98.4983C88.5905 98.4983 88.8983 98.6215 88.8983 99.8527ZM97.5169 99.6065C97.5169 101.576 95.7316 103.423 93.8232 103.423C91.9148 103.423 90.1295 101.576 90.1295 99.6065C90.1295 98.683 90.6835 98.4983 93.8232 98.4983C96.9628 98.4983 97.5169 98.683 97.5169 99.6065ZM106.135 99.6065C106.135 101.576 104.35 103.423 102.442 103.423C100.533 103.423 98.7481 101.576 98.7481 99.6065C98.7481 98.683 99.3022 98.4983 102.442 98.4983C105.581 98.4983 106.135 98.683 106.135 99.6065ZM114.138 99.9758C114.138 101.823 112.661 103.423 110.937 103.423C109.152 103.423 107.367 101.7 107.367 99.9143C107.367 98.6215 107.613 98.4983 110.753 98.4983C113.954 98.4983 114.138 98.6215 114.138 99.9758ZM122.757 99.8527C122.757 103.731 117.34 104.778 115.924 101.145C115.123 98.9293 115.678 98.4983 119.433 98.4983C122.449 98.4983 122.757 98.6215 122.757 99.8527ZM131.376 99.6065C131.376 101.576 129.59 103.423 127.682 103.423C125.774 103.423 123.988 101.576 123.988 99.6065C123.988 98.683 124.542 98.4983 127.682 98.4983C130.822 98.4983 131.376 98.683 131.376 99.6065ZM206.481 112.35V126.201H196.939H187.397V112.35V98.4983H196.939H206.481V112.35ZM272.967 112.657V126.201H271.428H269.889V113.889V101.515L262.686 101.7L255.422 101.884L255.237 114.012L255.114 126.201H243.11H231.105V112.657V99.114H252.036H272.967V112.657ZM90.7451 103.731C91.7917 104.962 95.6085 104.901 97.0244 103.608C98.0709 102.685 98.194 102.685 99.2406 103.608C100.657 104.901 104.473 104.962 105.52 103.731C106.197 102.931 106.443 102.931 107.551 103.731C108.29 104.224 109.706 104.654 110.753 104.654C111.799 104.654 113.215 104.224 113.954 103.731C115.062 102.931 115.308 102.931 115.985 103.731C117.032 104.962 121.156 104.901 122.449 103.67C123.373 102.746 123.496 102.746 124.542 103.67C125.158 104.224 126.635 104.654 127.867 104.654H130.144V115.428V126.201H127.066H123.988V117.582V108.902L117.093 109.087L110.137 109.272L109.952 117.706L109.768 126.201H96.2856H82.7421V115.428V104.654H85.2046C86.5589 104.654 87.9748 104.285 88.4058 103.731C89.4523 102.623 89.8217 102.623 90.7451 103.731ZM268.658 114.504V126.201H262.809H256.961V114.504V102.808H262.809H268.658V114.504ZM122.757 118.198V126.201H117.217H111.676V118.198V110.195H117.217H122.757V118.198ZM41.3112 122.815C42.7887 124.354 43.9584 125.77 43.9584 125.893C43.9584 126.078 41.065 126.201 37.4944 126.201C33.7392 126.201 31.0305 125.955 31.0305 125.585C31.0305 124.539 36.2016 120.045 37.4329 120.045C38.11 120.045 39.8338 121.276 41.3112 122.815ZM303.194 122.446C304.548 123.739 305.595 125.154 305.595 125.524C305.595 125.955 303.563 126.201 299.439 126.201C295.93 126.201 293.282 125.955 293.282 125.585C293.282 124.539 298.454 120.045 299.623 120.045C300.3 120.045 301.901 121.091 303.194 122.446Z" fill="#E61D2B"/>
<path d="M93.2075 83.7235C93.2075 84.0929 97.8246 84.3391 105.828 84.3391C113.831 84.3391 118.448 84.0929 118.448 83.7235C118.448 83.3541 113.831 83.1079 105.828 83.1079C97.8246 83.1079 93.2075 83.3541 93.2075 83.7235Z" fill="#E61D2B"/>
<path d="M149.967 106.317L150.152 115.428H164.927H179.701L179.886 106.317L180.071 97.2671H164.927H149.783L149.967 106.317ZM178.778 106.194V113.889H165.296H151.753L151.568 106.44C151.445 102.377 151.506 98.8677 151.629 98.7446C151.753 98.6214 157.97 98.4983 165.358 98.4983H178.778V106.194Z" fill="#E61D2B"/>
<path d="M156.924 103.423C155.631 104.778 154.769 106.07 154.954 106.317C155.2 106.563 156.554 105.639 157.909 104.224C159.325 102.869 160.186 101.576 159.879 101.392C159.571 101.145 158.216 102.13 156.924 103.423Z" fill="#E61D2B"/>
<path d="M159.386 105.886C156.739 108.594 154.708 110.995 154.954 111.242C155.446 111.672 165.235 102.315 165.235 101.453C165.235 100.284 164.003 101.269 159.386 105.886Z" fill="#E61D2B"/>
<path d="M149.044 119.799C147.874 121.03 150.768 121.276 165.296 121.276C177.855 121.276 181.302 121.091 181.118 120.476C180.871 119.922 177.054 119.675 165.173 119.552C156.493 119.491 149.29 119.614 149.044 119.799Z" fill="#E61D2B"/>
<path d="M201.556 112.411C201.556 114.504 201.802 115.674 202.171 115.428C202.541 115.243 202.787 113.704 202.787 111.98C202.787 110.318 202.541 108.964 202.171 108.964C201.864 108.964 201.556 110.503 201.556 112.411Z" fill="#E61D2B"/>
<path d="M234.799 109.58V116.967H243.418H252.036V109.58V102.192H243.418H234.799V109.58ZM250.682 109.395L250.497 115.428H243.418H236.338L236.153 109.395L235.969 103.423H243.418H250.866L250.682 109.395Z" fill="#E61D2B"/>
<path d="M233.876 119.429C233.629 119.86 236.831 120.045 243.048 120.045C249.02 120.045 252.652 119.799 252.652 119.429C252.652 119.06 249.204 118.814 243.479 118.814C238 118.814 234.122 119.06 233.876 119.429Z" fill="#E61D2B"/>
<path d="M86.4357 114.504V120.045H96.2856H106.135V114.504V108.964H96.2856H86.4357V114.504ZM104.904 114.504V118.814H96.2856H87.667V114.504V110.195H96.2856H104.904V114.504Z" fill="#E61D2B"/>
<path d="M86.4357 123.739C86.4357 124.108 90.1294 124.354 96.2856 124.354C102.442 124.354 106.135 124.108 106.135 123.739C106.135 123.369 102.442 123.123 96.2856 123.123C90.1294 123.123 86.4357 123.369 86.4357 123.739Z" fill="#E61D2B"/>
<path d="M258.192 113.212C258.192 114.627 258.5 115.736 258.808 115.736C259.177 115.736 259.424 114.812 259.424 113.643C259.424 112.473 259.177 111.303 258.808 111.118C258.439 110.872 258.192 111.734 258.192 113.212Z" fill="#E61D2B"/>
<path d="M118.448 119.121C118.448 120.291 118.756 121.276 119.064 121.276C119.433 121.276 119.679 120.291 119.679 119.121C119.679 117.952 119.433 116.967 119.064 116.967C118.756 116.967 118.448 117.952 118.448 119.121Z" fill="#E61D2B"/>
<path d="M34.8473 56.021C34.047 56.7597 32.6926 57.2522 31.3383 57.2522C29.0605 57.2522 28.1371 57.9909 24.9359 62.1771C22.2272 65.8093 23.3353 69.5645 27.2137 69.7492C29.4299 69.8723 29.9224 68.7642 27.8293 68.4564C27.029 68.3333 26.044 67.9023 25.6746 67.5945C24.5665 66.6711 24.6896 64.0855 25.7977 63.593C26.3518 63.4084 27.1521 62.3618 27.6446 61.1921C28.5064 59.0375 30.5995 58.0525 32.8157 58.6681C33.5545 58.8528 34.5395 58.4219 35.4013 57.4985C38.1716 54.5435 43.3428 56.5135 43.3428 60.5765C43.3428 61.6231 43.9584 62.7927 45.0049 63.6546C46.4824 64.9474 46.6055 65.2552 45.9283 66.7327C45.2512 68.2717 45.0665 68.3333 39.5875 68.3333C35.4013 68.3333 34.047 68.518 34.2932 69.072C34.4779 69.6261 36.1401 69.8723 39.8953 69.8723C44.8202 69.8723 45.3743 69.7492 46.4824 68.3948C48.0214 66.4864 47.9599 64.3318 46.2977 62.6081C44.8202 61.1921 44.7587 61.069 44.6356 59.1606C44.6356 58.545 43.8353 57.3138 42.9734 56.3904C40.8803 54.3588 36.8788 54.1741 34.8473 56.021Z" fill="#E61D2B"/>
<path d="M307.134 58.4216C306.764 59.099 307.688 59.838 308.304 59.2837C308.858 58.7295 308.735 57.8673 308.119 57.8673C307.75 57.8673 307.38 58.1137 307.134 58.4216Z" fill="#E61D2B"/>
<path d="M64.8893 59.7146C63.3503 62.5464 65.5665 65.2551 68.583 64.3317C70.0605 63.9008 70.8608 61.1921 69.9989 59.7762C69.0139 58.1756 65.7512 58.1756 64.8893 59.7146ZM68.8292 60.7611C69.0755 61.3152 68.8292 62.1771 68.2752 62.7311C67.4749 63.593 67.2286 63.593 66.3052 62.6695C65.5049 61.8077 65.4433 61.4383 66.1205 60.6996C67.1055 59.4068 68.3367 59.4683 68.8292 60.7611Z" fill="#E61D2B"/>
<path d="M30.846 68.7022C30.3534 69.1949 30.9076 70.1802 31.7082 70.1802C32.0161 70.1802 32.2624 69.7491 32.2624 69.2564C32.2624 68.3327 31.5234 68.0248 30.846 68.7022Z" fill="#E61D2B"/>
<path d="M286.88 70.7341C286.634 71.0419 286.757 71.5344 287.126 71.7191C287.495 71.9654 287.619 72.6425 287.434 73.1966C287.188 74.0584 287.495 74.3047 288.85 74.3047C290.389 74.3047 290.574 74.0584 290.635 72.2116C290.697 70.4879 290.574 70.2416 289.835 70.8572C289.158 71.4113 288.788 71.4113 288.111 70.8572C287.557 70.3648 287.126 70.3648 286.88 70.7341Z" fill="#E61D2B"/>
<path d="M308.057 73.8738C308.057 74.2431 312.182 74.4894 319.138 74.4894C326.095 74.4894 330.219 74.2431 330.219 73.8738C330.219 73.5044 326.095 73.2582 319.138 73.2582C312.182 73.2582 308.057 73.5044 308.057 73.8738Z" fill="#E61D2B"/>
<path d="M332.682 73.8738C332.682 74.1816 334.221 74.4894 336.068 74.4894C337.914 74.4894 339.454 74.1816 339.454 73.8738C339.454 73.5044 337.914 73.2582 336.068 73.2582C334.221 73.2582 332.682 73.5044 332.682 73.8738Z" fill="#E61D2B"/>
<path d="M12.993 81.6921C12.7468 81.8768 12.8699 82.4308 13.2393 82.8618C13.6702 83.3543 13.6702 83.7236 13.1777 84.0314C11.9465 84.7702 12.5621 85.3242 14.7167 85.3242C16.8714 85.3242 17.487 84.7702 16.2558 84.0314C15.7633 83.7236 15.7633 83.3543 16.2558 82.8002C16.6867 82.3077 16.6867 81.8768 16.3173 81.6305C16.0095 81.3843 15.517 81.5074 15.3323 81.8768C15.0245 82.3693 14.6552 82.3693 14.1627 81.9383C13.7317 81.569 13.1777 81.4458 12.993 81.6921Z" fill="#E61D2B"/>
<path d="M57.0711 84.4007C54.978 85.0163 51.3459 88.2791 51.3459 89.5103C51.3459 89.9413 50.6687 90.68 49.8069 91.1109C47.3444 92.4037 45.6823 95.6665 45.436 99.6064C45.3129 101.515 45.0666 104.1 44.8204 105.332C43.9585 110.441 48.0216 114.689 53.5006 114.381C55.2243 114.258 56.4555 113.95 56.2708 113.642C56.0861 113.273 54.7934 113.088 53.439 113.211C51.3459 113.335 50.484 113.027 48.6988 111.426C46.1747 109.272 45.436 106.871 46.4826 104.285C46.8519 103.3 47.1597 101.022 47.0982 99.1755C46.975 96.0358 47.0982 95.7896 49.7453 93.204C51.2843 91.7265 52.5771 90.2491 52.5771 89.9413C52.5771 89.6334 53.5621 88.5253 54.7318 87.4788C58.5486 84.1545 64.0891 85.1395 66.4285 89.5103C67.1056 90.7416 68.1522 91.9112 68.7678 92.0959C70.3068 92.5884 72.2768 95.9743 72.2768 98.1905C72.3384 99.1755 72.7077 100.715 73.2002 101.576C76.0936 106.686 71.1687 114.504 65.0741 114.504C62.981 114.504 61.8729 115.366 63.2888 115.92C64.6432 116.474 69.1987 115.181 71.2303 113.766C74.8008 111.242 76.4014 104.593 74.4315 100.715C73.939 99.7911 73.508 98.3136 73.508 97.4518C73.508 95.4202 72.0306 92.7115 69.999 91.1109C69.0756 90.4337 67.8444 89.0178 67.2903 88.0328C65.3819 85.0163 60.7648 83.2926 57.0711 84.4007Z" fill="#E61D2B"/>
<path d="M318.83 84.647C317.476 85.1395 315.814 86.3091 315.137 87.2325C314.46 88.156 312.92 89.9412 311.689 91.1109C308.734 94.0043 307.934 95.6665 307.688 99.3602C307.626 101.084 307.318 103.608 307.072 105.024C306.58 108.225 308.119 111.734 310.766 113.335C312.797 114.627 319.138 114.812 318.523 113.581C318.338 113.211 317.045 113.027 315.691 113.15C313.536 113.335 312.797 113.027 310.951 111.426C308.427 109.21 307.503 106.193 308.734 103.977C309.165 103.177 309.411 101.022 309.35 99.1755C309.227 96.0358 309.288 95.7896 311.997 93.204C313.536 91.7265 314.829 90.2491 314.829 89.9412C314.829 89.6334 315.814 88.5253 316.984 87.4788C320.8 84.1545 326.402 85.201 328.803 89.695C329.419 90.8031 330.404 91.9112 331.02 92.0959C332.435 92.5268 334.529 95.9127 334.529 97.8211C334.529 98.6214 335.021 100.591 335.575 102.192C336.929 105.947 336.129 109.025 333.051 111.98C331.327 113.642 330.281 114.135 327.818 114.381C324.679 114.689 323.817 115.305 325.664 115.982C327.018 116.536 331.389 115.243 333.544 113.704C335.637 112.227 337.545 108.225 337.607 105.393C337.607 104.285 337.176 102.377 336.683 101.145C336.191 99.9758 335.76 98.252 335.76 97.3286C335.76 95.4202 333.79 92.0343 332.189 91.1725C331.512 90.8031 330.404 89.5719 329.727 88.4022C327.572 84.7701 322.955 83.1695 318.83 84.647Z" fill="#E61D2B"/>
<path d="M26.9674 92.7116C26.598 92.8963 24.6896 94.8663 22.6581 97.0825C19.6416 100.53 19.0259 101.576 18.9644 103.67C18.9028 105.085 18.6566 107.179 18.4103 108.471C17.6716 112.35 20.3187 116.167 23.9509 116.474C26.2902 116.659 27.9524 116.351 27.9524 115.736C27.9524 115.366 26.7827 115.12 25.3052 115.12C22.104 115.12 19.7647 113.088 19.8262 110.38C19.8878 108.718 20.2572 103.977 20.4419 102.315C20.5034 101.823 21.55 100.468 22.7196 99.2372C23.8277 98.0059 25.4899 96.2206 26.3518 95.2357C28.568 92.8348 31.7692 92.8963 34.1085 95.4819C36.571 98.129 36.6941 98.3137 38.2331 99.6681C38.9719 100.345 39.7722 101.7 39.9568 102.623C40.1415 103.608 40.5725 105.27 40.9418 106.378C41.9268 109.518 41.1265 112.288 38.6641 114.443C37.1866 115.797 35.8938 116.351 34.4163 116.351C33.2466 116.351 32.2617 116.597 32.2617 116.967C32.2617 118.075 36.6941 117.644 38.7256 116.351C42.1115 114.258 43.4659 109.949 42.1115 105.64C41.8037 104.593 41.3728 102.992 41.1881 102.007C41.0034 101.084 39.7722 99.1756 38.4178 97.8212C37.0635 96.4053 35.9554 95.1125 35.9554 94.8663C35.9554 93.2657 29.4298 91.7267 26.9674 92.7116Z" fill="#E61D2B"/>
<path d="M289.219 92.7116C288.85 92.8963 286.942 94.8663 284.91 97.0825C281.894 100.53 281.278 101.576 281.216 103.67C281.155 105.085 280.909 107.179 280.662 108.471C279.924 112.35 282.571 116.167 286.203 116.474C288.542 116.659 290.204 116.351 290.204 115.736C290.204 115.366 289.035 115.12 287.557 115.12C284.356 115.12 282.017 113.088 282.078 110.38C282.263 103.116 282.632 101.453 284.479 99.545C285.526 98.4369 287.249 96.6516 288.234 95.5435C290.82 92.8348 293.898 92.7732 296.36 95.4819C298.823 98.129 298.946 98.3137 300.485 99.6681C301.224 100.345 302.024 101.7 302.209 102.623C302.393 103.608 302.886 105.332 303.255 106.625C304.117 109.579 303.502 111.796 300.978 114.32C299.439 115.859 298.392 116.351 296.73 116.351C295.499 116.351 294.514 116.597 294.514 116.967C294.514 118.075 298.946 117.644 300.978 116.351C303.071 115.058 304.979 111.857 304.979 109.641C304.979 108.164 303.871 103.3 302.948 100.776C302.64 99.8528 301.593 98.4984 300.608 97.8212C299.685 97.1441 298.761 96.1591 298.577 95.5435C297.838 93.2041 292.113 91.542 289.219 92.7116Z" fill="#E61D2B"/>
<path d="M66.1821 96.8973C65.751 97.39 65.6894 97.9442 65.9973 98.129C66.3668 98.3137 66.9211 98.0674 67.2906 97.6363C67.7216 97.1437 67.7832 96.5894 67.4753 96.4047C67.1058 96.2199 66.5516 96.4662 66.1821 96.8973Z" fill="#E61D2B"/>
<path d="M328.373 96.9589C327.264 98.2521 328.188 98.9295 329.358 97.7595C329.974 97.2052 330.097 96.651 329.727 96.4046C329.419 96.2199 328.804 96.4662 328.373 96.9589Z" fill="#E61D2B"/>
<path d="M35.0321 102.746C34.6626 103.423 35.5863 104.162 36.2021 103.608C36.7564 103.054 36.6332 102.191 36.0174 102.191C35.6479 102.191 35.2784 102.438 35.0321 102.746Z" fill="#E61D2B"/>
<path d="M297.284 102.746C296.914 103.423 297.838 104.162 298.454 103.608C299.008 103.054 298.885 102.191 298.269 102.191C297.9 102.191 297.53 102.438 297.284 102.746Z" fill="#E61D2B"/>
<path d="M15.0245 136.051C15.0245 136.482 32.8774 136.666 67.3518 136.666C101.826 136.666 119.679 136.482 119.679 136.051C119.679 135.62 101.826 135.435 67.3518 135.435C32.8774 135.435 15.0245 135.62 15.0245 136.051Z" fill="#E61D2B"/>
<path d="M135.377 136.051C135.131 136.42 136.731 136.666 139.625 136.666C142.334 136.666 144.304 136.42 144.304 136.051C144.304 135.681 142.457 135.435 140.056 135.435C137.655 135.435 135.562 135.681 135.377 136.051Z" fill="#E61D2B"/>
<path d="M187.396 137.898C187.396 138.267 191.213 138.513 197.554 138.513C203.895 138.513 207.712 138.267 207.712 137.898C207.712 137.528 203.895 137.282 197.554 137.282C191.213 137.282 187.396 137.528 187.396 137.898Z" fill="#E61D2B"/>
<path d="M223.102 137.898C223.102 138.329 242.987 138.513 281.586 138.513C320.185 138.513 340.069 138.329 340.069 137.898C340.069 137.467 320.185 137.282 281.586 137.282C242.987 137.282 223.102 137.467 223.102 137.898Z" fill="#E61D2B"/>
</svg>
