<svg width="260" height="270" viewBox="0 0 260 270" fill="none" xmlns="http://www.w3.org/2000/svg">
<path d="M128.235 0.946867C127.127 1.50093 125.588 2.60906 124.849 3.53251C123.803 4.7022 123.741 4.88689 124.603 4.14814C125.28 3.59407 127.066 2.42438 128.605 1.5625C131.621 -0.161264 131.314 -0.592205 128.235 0.946867Z" fill="#E61D2B"/>
<path d="M130.452 4.14813C126.635 6.67221 124.726 8.39597 123.618 10.2429C122.941 11.2894 120.909 13.0132 119.124 14.0597C112.722 17.6304 109.643 23.4173 110.382 30.4355L110.752 34.2524L102.564 37.3921C98.0696 39.1158 93.637 40.7165 92.7136 40.9012C91.7901 41.1474 91.0514 41.5783 91.0514 41.8246C91.0514 42.0708 93.2061 42.8712 95.8533 43.6099C98.4389 44.3487 102.441 45.5184 104.718 46.1956L108.843 47.3652L108.474 50.3818C108.289 52.044 108.351 54.445 108.535 55.6762C108.905 57.5847 109.397 58.1387 111.552 59.0622C114.999 60.6013 126.635 62.756 130.636 62.6944C133.407 62.6328 133.222 62.5097 128.913 62.0788C123.864 61.5247 114.876 59.6778 111.86 58.5081C109.705 57.7078 109.643 56.1072 111.737 55.6147C114.137 54.999 123.988 55.7378 128.913 56.9075C134.576 58.2003 138.763 60.2934 138.701 61.6478C138.516 63.9872 139.686 62.5713 141.164 58.5081L142.826 54.3219L151.26 52.9059C155.877 52.1672 160.063 51.3668 160.494 51.1206C161.602 50.505 158.894 48.1656 152.614 44.2871C149.721 42.5633 143.934 38.6849 139.686 35.6683C135.438 32.7133 131.067 29.8198 129.898 29.2042C127.373 27.9114 125.896 28.1576 117.893 31.3589C114.507 32.7133 111.613 33.6367 111.429 33.5136C111.306 33.3289 111.182 31.1742 111.182 28.7117C111.182 25.3873 111.49 23.602 112.475 21.7551C113.953 18.9232 118.816 14.306 120.971 13.7519C121.833 13.5057 124.357 14.2444 127.681 15.6604C132.545 17.7535 133.099 17.8766 134.022 17.0148C134.823 16.1529 134.823 15.9066 134.145 15.0448C133.345 14.1213 133.468 13.9982 134.761 14.2444C136.854 14.4907 136.916 13.3826 135.192 7.90346C133.653 3.04 132.976 2.48593 130.452 4.14813ZM134.699 8.08815C135.377 10.5507 135.992 12.7669 135.992 13.0132C135.992 13.321 135.007 13.5057 133.838 13.5057C131.375 13.5057 131.129 14.0597 132.976 15.2294C133.838 15.7835 134.084 16.276 133.714 16.6454C133.099 17.261 123.618 13.5672 123.249 12.5207C122.756 11.1047 130.883 3.65563 132.976 3.65563C133.16 3.65563 133.961 5.6872 134.699 8.08815ZM129.405 29.8814C130.513 30.4355 134.823 33.3289 139.07 36.2224C143.318 39.1774 148.551 42.6865 150.767 43.9793C157.416 47.9193 160.125 49.9509 159.571 50.505C158.955 51.1206 143.872 53.5831 143.441 53.1522C143.257 53.029 143.503 51.9825 143.872 50.8743C145.042 47.6115 144.796 47.0574 141.594 45.2721C136.546 42.5633 129.898 41.1474 120.602 40.8396C110.936 40.4702 109.336 40.9627 109.028 44.164C108.905 45.3952 108.474 46.134 107.92 46.134C106.381 46.134 93.5139 42.3171 93.5139 41.8246C93.5139 41.5168 99.1777 39.239 124.48 29.6967C127.066 28.7117 127.127 28.7117 129.405 29.8814ZM131.683 42.6865C136.239 43.9177 141.656 45.9493 143.01 46.9343C144.119 47.7346 144.057 48.0424 142.149 53.5831C141.04 56.7844 139.932 59.5547 139.748 59.8009C139.501 60.0472 137.962 59.5547 136.3 58.7544C130.759 56.0456 125.896 55.1222 117.031 55.0606H108.781L109.212 49.2121C109.643 42.9943 110.013 42.0708 112.167 41.5783C114.753 41.0243 128.358 41.763 131.683 42.6865Z" fill="#E61D2B"/>
<path d="M33.798 51.7362C32.9977 52.1055 32.1974 52.4749 32.0743 52.598C31.9511 52.7212 33.1208 55.5531 34.6599 58.8159C37.3687 64.5412 37.5534 65.1569 37.6765 70.6975L37.7996 76.4844L26.7183 84.1182C20.6236 88.3045 15.3907 92.0598 15.0214 92.4292C14.5904 92.8601 15.1445 92.9217 16.8682 92.737C18.2226 92.4908 21.4239 92.183 23.948 91.9983L28.5652 91.6289L29.6733 94.3376C30.2889 95.8152 31.6433 98.2161 32.6899 99.6936L34.6599 102.341L40.2006 101.971C46.5415 101.541 51.8975 100.248 55.9607 98.2777L58.731 96.9233L59.1619 90.5208C59.4697 86.4576 59.9622 83.872 60.3932 83.5641C60.8241 83.3179 62.7326 82.5176 64.5795 81.8404C66.4263 81.1016 68.3963 80.4244 68.8889 80.1782C69.566 79.9319 69.3814 79.7473 68.2732 79.3779C66.2416 78.8238 49.1887 77.3463 48.8194 77.7157C48.6347 77.8388 52.5747 78.3313 57.4997 78.7622C62.4248 79.1932 66.4263 79.8088 66.4263 80.1166C66.4263 80.3629 66.1185 80.6091 65.7491 80.6091C64.5795 80.6091 54.1138 85.7804 49.5581 88.5507L45.3103 91.1979L31.5818 91.2595C24.0095 91.3211 18.0379 91.1979 18.2842 91.0133C19.4539 89.9051 37.6765 77.531 38.1074 77.531C38.3537 77.531 39.0309 78.8238 39.6465 80.3629C40.2006 81.902 40.8162 83.0101 40.9393 82.887C41.0624 82.7638 40.7546 81.6557 40.2621 80.4244C38.8462 76.9769 38.9077 76.8538 43.8328 77.2232L48.2653 77.4694L43.6481 76.7307L39.0309 75.9919L38.5384 73.2216C37.4918 67.4962 39.0309 62.9406 44.0175 56.5381C45.495 54.6296 46.48 52.9058 46.2953 52.6596C45.6181 51.9824 42.109 52.2287 41.3087 53.029C40.7546 53.583 40.5699 53.4599 40.5699 52.4133C40.5699 51.2437 40.2621 51.059 37.9843 51.1205C36.5068 51.1205 34.6599 51.4283 33.798 51.7362ZM39.9543 53.6446V55.5531L41.3703 54.2602C42.7246 52.9674 45.495 52.3518 45.495 53.3368C45.495 53.583 44.8178 54.4449 44.0175 55.3068C43.1556 56.2302 41.5549 58.5081 40.3237 60.4781L38.169 64.1103L36.0759 59.8625C32.9361 53.7062 32.813 53.029 34.5368 52.3518C35.3371 51.9824 36.8762 51.7362 37.9843 51.7362C39.7696 51.6746 39.9543 51.7977 39.9543 53.6446ZM58.6079 89.9667C58.4232 93.1064 57.9922 96.0614 57.6229 96.4923C56.0222 98.5239 44.4484 101.541 38.2921 101.541C35.3371 101.541 35.0293 101.356 33.244 99.1396C31.5202 96.9849 29.4886 93.0448 29.4886 91.9367C29.4886 91.6904 32.9361 91.6904 37.184 91.8751L44.8178 92.3061L50.2353 89.1048C53.1903 87.381 56.2069 85.5957 56.8841 85.1648C57.5613 84.7338 58.3 84.3645 58.5463 84.3645C58.7925 84.3029 58.7925 86.8885 58.6079 89.9667Z" fill="#E61D2B"/>
<path d="M142.641 63.4946C141.779 64.1718 139.686 65.1568 138.024 65.5877C136.423 66.0187 135.623 66.388 136.3 66.388C138.64 66.4496 141.964 65.2184 143.38 63.6793C145.104 61.8324 144.857 61.7708 142.641 63.4946Z" fill="#E61D2B"/>
<path d="M136.485 63.1868C136.916 63.3715 137.47 63.31 137.654 63.1253C137.901 62.9406 137.531 62.7559 136.854 62.8174C136.177 62.8174 135.992 63.0021 136.485 63.1868Z" fill="#E61D2B"/>
<path d="M189.552 83.9335C189.552 84.0566 190.291 84.6723 191.276 85.2263L192.938 86.3345L191.768 85.0417C190.722 83.8104 189.552 83.2563 189.552 83.9335Z" fill="#E61D2B"/>
<path d="M186.72 88.8585C185.797 89.5973 185.735 89.8435 186.412 90.7054C187.151 91.5673 187.028 91.6904 185.797 91.6904C182.595 91.6904 182.349 92.5523 184.319 96.3692C185.366 98.2777 186.474 99.9399 186.843 100.125C187.274 100.248 189.06 99.2627 190.845 97.9083C192.876 96.3692 194.6 95.5073 195.401 95.692C196.078 95.8151 198.109 96.123 199.895 96.3077C203.281 96.677 209.622 98.7702 210.176 99.6936C210.299 99.9399 206.543 102.772 201.68 106.035C196.878 109.236 191.83 112.745 190.476 113.853L188.013 115.885L189.86 115.515C195.647 114.346 203.219 113.237 203.712 113.545C203.958 113.73 205.374 116.008 206.79 118.655C210.668 125.796 210.607 125.735 216.024 125.365C220.58 125.058 231.415 121.979 233.693 120.317C234.555 119.702 234.924 118.039 235.416 112.806L236.032 106.158L240.834 104.619C243.42 103.757 245.513 102.833 245.39 102.464C245.02 101.356 237.386 99.2011 230.307 98.2161C221.38 96.9233 216.64 96.9848 213.931 98.2777C211.899 99.2011 211.653 99.2011 208.821 97.9698C207.159 97.2927 203.896 96.3692 201.557 95.9998C199.156 95.5689 196.693 95.138 196.016 95.0148C195.339 94.8917 194.046 93.722 193.123 92.4908C192.261 91.1979 190.722 89.6589 189.675 89.1048C188.136 88.1814 187.705 88.1814 186.72 88.8585ZM191.584 91.6904L194.046 94.2145L191.03 96.9233C189.367 98.4008 187.828 99.632 187.582 99.6936C187.028 99.6936 184.011 94.2145 184.011 93.1679C184.011 92.5523 184.812 92.3061 186.597 92.3061C188.998 92.3061 189.06 92.2445 188.136 91.1979C185.366 88.1198 188.506 88.6123 191.584 91.6904ZM234.308 99.632C244.466 101.602 245.636 102.525 239.849 103.941C238.248 104.311 233.446 106.219 229.075 108.128L221.257 111.637L211.53 112.068C206.236 112.314 199.772 112.868 197.186 113.237C194.6 113.607 192.384 113.853 192.261 113.668C192.076 113.484 196.386 110.406 201.803 106.773L211.653 100.186L213.869 101.54C215.101 102.279 216.209 102.772 216.393 102.587C216.578 102.402 215.901 101.787 214.854 101.233C213.808 100.74 212.946 100.125 212.946 100.001C212.946 99.8783 213.685 99.3242 214.67 98.7702C216.763 97.5389 225.566 97.9083 234.308 99.632ZM234.862 111.821C234.616 114.838 234.308 117.67 234.124 118.224C233.816 119.332 227.105 122.595 223.104 123.642C221.749 124.011 218.794 124.442 216.455 124.688C212.946 125.058 212.146 124.934 211.099 124.011C209.622 122.657 204.697 113.853 205.189 113.422C205.374 113.176 209.067 112.93 213.377 112.745C218.794 112.56 221.811 112.191 223.104 111.514C224.828 110.652 234.493 106.527 235.047 106.466C235.17 106.466 235.047 108.866 234.862 111.821Z" fill="#E61D2B"/>
<path d="M122.141 90.2745C119.247 91.0132 116.846 92.5523 115.615 94.5838C113.029 98.7086 114.445 106.096 118.201 108.066C120.355 109.174 120.417 109.421 118.447 110.159C114.569 111.637 108.658 112.068 103.733 111.329L98.87 110.529L97.454 112.252C94.499 115.638 96.0997 118.716 101.456 120.256C105.396 121.425 111.552 121.548 114.445 120.563C115.923 120.009 116.539 120.009 116.846 120.563C117.093 120.933 117.77 129.49 118.385 139.586C119.001 149.621 119.74 159.656 119.986 161.872C120.294 164.027 120.479 165.935 120.355 166.058C120.232 166.12 111.983 167.597 102.071 169.321C80.7705 172.892 81.5093 172.522 81.5093 179.294C81.5093 182.865 81.8171 184.158 82.9252 186.005C84.0333 187.79 84.1565 188.344 83.4793 188.344C81.8786 188.344 79.4161 190.868 78.6774 193.269C78.0617 195.239 78.1233 195.978 79.1083 198.009C80.0317 199.918 80.7089 200.41 82.4327 200.657C83.9102 200.903 84.5258 201.272 84.3411 201.888C84.218 202.38 83.8486 204.597 83.4793 206.813L82.8021 210.815H44.3253H5.84851L4.98663 213.092C4.18631 215.124 4.24788 215.616 5.23288 217.71C6.15632 219.495 6.89508 220.172 8.61884 220.603L10.7735 221.157L10.6504 224.605C10.4657 227.867 10.6504 227.56 11.3892 223.004L11.697 220.972L39.2156 220.788L66.7342 220.665L37.7381 220.48C9.41916 220.357 8.6804 220.295 7.07977 219.064C5.78695 218.079 5.47913 217.279 5.47913 215.124C5.47913 213.646 5.84851 212.169 6.34101 211.8C6.89508 211.307 16.6836 211.184 41.555 211.245C71.7823 211.43 75.907 211.553 75.6608 212.354C75.5377 212.846 75.4145 215.001 75.4145 217.094L75.353 220.972L71.6592 221.034C69.6276 221.034 68.3348 221.219 68.7657 221.403C69.2582 221.588 69.5045 223.62 69.5045 228.237C69.5045 233.716 69.7507 235.44 70.982 238.333L72.4595 241.904H43.0325C10.0348 241.904 12.682 242.273 11.266 237.102C10.8351 235.501 10.4657 234.824 10.4657 235.624C10.4042 236.363 10.8351 237.964 11.266 239.133L12.1895 241.288H9.48072C6.89508 241.288 6.64883 241.411 5.35601 243.874C2.83193 248.676 3.63225 261.358 6.5257 262.527C8.55727 263.266 73.937 263.635 80.278 262.897C87.8502 262.096 92.6521 260.865 92.4674 259.88C92.2828 259.141 104.041 259.203 139.932 260.065C146.704 260.249 151.999 260.188 151.752 259.942C151.506 259.695 138.27 259.264 122.387 259.08C101.086 258.772 93.2062 258.464 92.5906 257.91C91.7903 257.294 91.6671 257.418 91.6671 258.71C91.6671 260.065 91.2978 260.373 88.7737 260.927C87.1115 261.358 84.1565 261.727 82.1249 261.789L78.4927 261.912L77.0767 258.526C75.907 255.817 75.6608 254.216 75.7839 250.399C76.0302 243.381 76.7074 242.889 85.8187 242.581C93.8834 242.335 93.6371 242.15 91.9749 247.691C91.4824 249.353 91.1131 252.123 91.1131 253.847C91.2362 256.987 91.2362 256.987 91.6671 252.985C91.8518 250.769 92.4059 247.998 92.7753 246.767L93.514 244.613L105.088 244.736L116.6 244.859L105.827 244.366C93.0215 243.812 94.1296 243.935 94.1296 242.827C94.1296 242.212 93.514 241.904 92.0365 241.904C90.3127 241.904 89.8202 241.596 89.2662 240.18L88.589 238.518L88.8968 240.18L89.2046 241.904H81.6324C73.0136 241.904 72.7058 241.781 71.0436 237.04C70.1201 234.393 69.7507 224.543 70.4895 222.573C70.7973 221.711 72.2133 221.588 79.7855 221.588H88.7121L88.3427 223.866L87.9734 226.205L88.8968 224.174C89.7587 222.204 89.9434 222.142 92.0981 222.45C93.3909 222.635 102.071 222.881 111.367 223.066C123.31 223.25 125.958 223.189 120.294 222.819C115.923 222.573 108.782 222.327 104.534 222.265C100.224 222.265 95.915 222.019 94.93 221.834L93.0831 221.465L93.6371 218.387C94.5606 213.523 94.4375 213.4 88.8968 212.354L83.9718 211.369L84.1565 207.798C84.3411 203.242 85.634 200.164 87.4809 199.733C88.2812 199.61 94.1912 199.179 100.594 198.933C110.136 198.502 110.998 198.379 105.211 198.379C98.5006 198.317 89.3893 198.933 83.9102 199.795C81.6939 200.103 81.2014 199.979 80.3396 198.748C79.1699 197.086 79.0467 192.777 80.1549 191.361C80.5858 190.807 81.4477 190.068 82.1249 189.698C83.6024 188.96 96.3459 187.975 119.986 186.805L136.916 185.943L123.372 186.251C115.923 186.436 104.411 186.928 97.8234 187.421C84.218 188.344 84.4643 188.406 82.6789 183.665C81.5093 180.649 81.8171 175.108 83.1715 173.815C83.9102 173.138 97.7003 170.614 137.778 163.965C146.212 162.549 151.137 161.995 151.506 162.365C151.876 162.734 151.752 163.473 151.198 164.396C149.721 166.736 148.305 172.276 148.305 175.662C148.305 177.694 148.859 179.972 149.782 182.003L151.322 185.204L144.426 185.451C138.393 185.574 138.763 185.635 147.258 185.758C156.616 185.882 156.924 185.943 156.308 187.051C155.385 188.837 155.569 193.084 156.616 195.116L157.601 196.963L151.26 197.086C147.751 197.148 146.397 197.271 148.182 197.394C149.906 197.517 151.383 197.763 151.383 197.825C151.383 197.948 150.644 199.672 149.721 201.642C148.305 204.72 148.059 206.136 147.997 210.815C147.997 215.863 148.182 216.786 149.906 220.295L151.876 224.174L140.363 223.866C132.36 223.681 130.883 223.743 135.377 224.051C138.947 224.297 144.611 224.543 148.059 224.605C151.445 224.605 154.4 224.789 154.584 224.974C154.769 225.159 154.338 226.513 153.599 227.929C151.814 231.561 151.814 238.702 153.599 242.335L154.892 244.982L137.593 245.167L120.294 245.29L138.024 245.474C150.891 245.536 155.631 245.782 155.323 246.275C153.599 249.168 154.153 255.324 156.431 257.787L157.724 259.141L155.015 259.203C153.045 259.326 152.799 259.388 154.092 259.572C155.693 259.819 165.112 259.018 170.468 258.156C172.684 257.787 172.807 257.91 173.176 259.572C173.423 260.557 174.1 262.22 174.777 263.328C175.824 264.99 176.316 265.298 178.286 265.236L180.625 265.175L178.717 264.744C176.008 264.066 175.393 263.574 174.408 261.234C172.869 257.541 173.73 249.784 175.824 248.491C176.131 248.306 178.225 248.429 180.502 248.86L184.627 249.538L184.258 252.985C184.011 254.832 183.457 257.294 183.026 258.464C182.534 259.634 182.226 260.68 182.411 260.804C182.534 260.927 183.519 260.311 184.627 259.388C186.228 258.033 186.659 257.849 187.151 258.587C187.459 259.08 187.705 259.141 187.705 258.772C187.705 258.403 187.336 257.725 186.843 257.294C186.105 256.74 185.797 256.864 185.12 257.849C184.011 259.695 183.334 259.449 184.011 257.418C184.319 256.494 184.873 253.293 185.181 250.338C185.981 243.381 187.582 239.687 190.291 238.518C192.015 237.779 192.138 237.656 190.906 237.594C188.998 237.594 187.09 239.872 185.797 243.566C185.058 245.844 184.565 246.459 183.642 246.336C181.118 245.967 180.933 245.721 181.549 244.058C182.349 241.904 182.349 235.994 181.487 234.393C180.995 233.47 180.995 233.039 181.549 232.669C182.103 232.3 182.041 232.115 181.18 231.869C180.256 231.623 187.213 231.192 190.537 231.253C190.906 231.253 191.091 230.761 190.968 230.145C190.783 229.468 191.091 228.298 191.645 227.436C192.199 226.636 192.63 225.651 192.63 225.343C192.63 224.974 190.968 224.543 188.936 224.297L185.243 223.866L183.704 220.726C180.749 214.57 180.256 207.429 182.534 202.996C183.334 201.395 183.704 201.272 187.151 201.272C190.599 201.272 190.783 201.211 190.168 200.103C189.06 197.948 189.429 194.562 191.03 192.961C192.63 191.361 192.507 190.807 190.537 190.868C189.798 190.868 189.614 191.053 189.983 191.238C190.599 191.422 190.537 191.915 189.86 193.269C189.367 194.254 188.936 196.286 188.936 197.825C188.936 200.534 188.875 200.595 187.274 200.349C185.243 199.979 161.479 197.578 159.94 197.578C157.047 197.578 155.2 189.883 157.416 187.174C158.463 185.882 158.586 185.882 162.772 186.743C169.975 188.221 187.644 190.93 188.506 190.622C188.875 190.499 187.582 190.191 185.55 189.945C181.487 189.391 180.933 188.96 180.933 186.005C180.933 183.111 182.534 179.664 184.75 177.817C185.797 176.955 186.474 175.908 186.289 175.601C186.043 175.231 184.135 174.369 182.041 173.569C179.887 172.83 174.284 170.429 169.544 168.336C164.804 166.181 158.771 163.719 156.123 162.795L151.322 161.072L141.348 162.734C135.869 163.596 130.883 164.335 130.329 164.335C129.282 164.335 129.22 163.35 129.22 152.884C129.22 139.956 129.59 139.155 132.483 146.174C133.407 148.451 134.453 150.729 134.823 151.222C135.685 152.207 147.812 152.33 150.583 151.406C155.385 149.683 154.646 142.788 149.659 142.788C146.52 142.726 142.703 141.803 142.149 140.879C141.656 140.14 138.763 125.612 138.086 120.44L137.716 117.731L141.595 114.838C146.643 111.206 147.874 109.297 149.906 102.279C151.752 95.8151 151.445 94.0298 148.613 92.9217C145.842 91.8751 143.626 93.5373 142.456 97.6004C140.733 103.51 139.563 104.742 134.084 106.158L131.129 106.958L132.422 104.495C135.746 98.1545 132.36 91.2595 125.527 90.2745C124.357 90.0898 122.818 90.0898 122.141 90.2745ZM129.097 92.2445C133.037 94.3376 134.207 100.617 131.437 104.68C127.743 110.036 119.494 110.282 116.292 105.111C113.83 101.048 115.184 94.2145 118.878 92.2445C122.018 90.5207 125.896 90.5207 129.097 92.2445ZM149.782 94.707C150.767 95.8151 150.767 96.1845 149.967 99.5089C147.566 108.743 146.212 110.898 139.809 115.392C136.67 117.67 136.67 117.547 139.255 131.706L141.225 142.48L144.611 142.972C146.458 143.28 148.921 143.588 149.967 143.773C151.075 143.957 152.245 144.573 152.491 145.127C153.23 146.543 152.245 149.929 150.891 150.483C149.044 151.283 137.531 151.591 136.239 150.914C135.561 150.544 134.207 148.267 133.222 145.866C131.129 140.694 130.082 139.525 128.851 141.187C128.235 142.11 128.112 144.634 128.42 153.561L128.79 164.827L125.465 165.381C123.618 165.689 121.956 165.812 121.71 165.566C120.909 164.95 120.109 156.516 119.001 138.17C118.447 128.32 117.77 120.071 117.462 119.763C117.154 119.394 115.615 119.517 113.584 120.009C106.504 121.672 96.5922 118.963 96.5922 115.392C96.5922 114.838 97.3309 113.73 98.1928 112.806C99.3625 111.637 100.101 111.329 101.394 111.637C106.442 112.868 111.121 112.683 117.216 111.144C120.602 110.282 123.865 109.544 124.542 109.544C125.219 109.544 127.435 108.99 129.467 108.312C131.56 107.635 134.453 106.835 135.931 106.465C139.501 105.542 141.102 103.818 142.703 98.8932C143.503 96.6154 144.55 94.5223 145.104 94.1529C146.766 93.2295 148.613 93.4142 149.782 94.707ZM157.663 164.088C160.125 165.012 166.035 167.413 170.775 169.567C175.516 171.661 180.687 173.815 182.349 174.431C183.95 175.046 185.243 175.662 185.243 175.847C185.243 176.032 184.319 177.263 183.15 178.556C180.933 180.957 180.01 183.973 180.441 187.113C180.81 189.391 181.056 189.391 170.468 187.298C165.912 186.436 159.879 185.574 157.108 185.451L152.06 185.143L150.644 182.249C148.49 177.94 148.674 171.476 151.014 166.305C151.999 164.211 152.861 162.488 152.984 162.488C153.045 162.488 155.2 163.226 157.663 164.088ZM168.005 198.871C175.269 199.549 181.549 200.226 181.98 200.349C182.472 200.534 182.349 201.457 181.487 203.735C179.456 209.091 180.256 217.648 183.15 221.896C183.95 223.127 184.627 224.174 184.627 224.235C184.627 224.358 158.709 224.235 154.338 224.112C152.922 224.051 152.368 223.435 150.767 220.111C149.044 216.601 148.797 215.555 148.797 211.184C148.859 208.475 149.167 205.151 149.536 203.796C150.213 201.211 152.861 197.578 154.03 197.578C154.461 197.578 160.741 198.133 168.005 198.871ZM87.6655 212.846L93.2062 213.954L93.0215 216.663C92.7753 221.157 93.0831 220.972 85.1415 220.972C79.293 220.972 77.6924 220.788 76.7689 219.926C75.5377 218.818 75.2914 215.801 76.2764 213.339C76.7689 211.984 77.1999 211.738 79.4777 211.738C80.9552 211.8 84.649 212.292 87.6655 212.846ZM191.276 225.59C191.337 225.651 191.03 226.759 190.599 228.114L189.737 230.515L185.181 230.699C178.963 230.884 178.963 230.946 180.379 233.716C181.734 236.363 181.918 241.596 180.81 244.058L180.071 245.721L168.374 245.29C161.91 245.043 156.431 244.736 156.247 244.613C156 244.489 155.385 243.443 154.831 242.273C151.383 235.009 153.107 225.897 158.093 225.097C159.571 224.789 190.906 225.282 191.276 225.59ZM76.3995 242.889C76.5842 243.073 76.338 244.058 75.8455 245.105C74.4911 247.814 74.9836 256.125 76.7689 259.572C77.5077 260.988 78.1233 262.343 78.1233 262.527C78.1233 262.958 43.5865 262.897 23.3939 262.404L6.58726 262.035L5.60226 260.434C4.12475 258.218 4.18631 248.06 5.66382 244.797L6.71039 242.519H41.3703C60.4548 242.519 76.2149 242.704 76.3995 242.889ZM176.809 246.459C183.519 246.767 184.627 247.013 184.627 248.183C184.627 249.045 178.348 248.245 177.794 247.321C177.486 246.829 176.87 246.89 175.885 247.568C174.346 248.553 172.93 252.185 172.93 255.078C172.93 256.002 172.561 256.864 172.191 256.987C170.037 257.787 158.709 258.895 157.847 258.341C155.077 256.802 154.092 249.045 156.308 246.829C157.478 245.659 158.093 245.598 163.88 245.905C167.328 246.09 173.115 246.336 176.809 246.459Z" fill="#E61D2B"/>
<path d="M160.31 168.275C162.033 169.136 163.696 169.814 164.003 169.814C164.927 169.814 160.556 167.597 158.771 167.166C157.909 166.982 158.648 167.474 160.31 168.275Z" fill="#E61D2B"/>
<path d="M166.158 170.799C167.02 171.291 168.005 171.661 168.313 171.661C168.682 171.661 168.251 171.291 167.389 170.799C166.528 170.306 165.604 169.937 165.235 169.937C164.927 169.937 165.296 170.306 166.158 170.799Z" fill="#E61D2B"/>
<path d="M162.157 182.188C162.834 182.496 163.942 182.68 164.619 182.68C165.604 182.68 165.543 182.557 164.311 182.188C162.218 181.511 160.618 181.511 162.157 182.188Z" fill="#E61D2B"/>
<path d="M159.571 200.472C160.494 200.595 161.849 200.595 162.649 200.472C163.388 200.349 162.649 200.226 160.925 200.226C159.263 200.226 158.586 200.349 159.571 200.472Z" fill="#E61D2B"/>
<path d="M154.954 219.556C155.692 219.68 156.924 219.68 157.724 219.556C158.463 219.433 157.847 219.31 156.308 219.31C154.769 219.31 154.153 219.433 154.954 219.556Z" fill="#E61D2B"/>
<path d="M168.497 227.56C169.236 227.683 170.467 227.683 171.268 227.56C172.006 227.437 171.391 227.314 169.852 227.314C168.313 227.314 167.697 227.437 168.497 227.56Z" fill="#E61D2B"/>
<path d="M165.666 241.103C167.943 241.227 171.822 241.227 174.284 241.103C176.747 241.042 174.9 240.919 170.16 240.919C165.419 240.919 163.388 240.98 165.666 241.103Z" fill="#E61D2B"/>
<path d="M154.584 95.6921C154.584 96.6771 154.707 97.0465 154.892 96.4308C155.015 95.8768 155.015 95.0149 154.892 94.584C154.707 94.2146 154.584 94.6455 154.584 95.6921Z" fill="#E61D2B"/>
<path d="M62.7325 99.8783C61.0088 101.787 60.4547 102.71 61.3166 102.218C62.671 101.54 66.1801 97.3542 65.7491 97.0464C65.626 96.9233 64.2716 98.2161 62.7325 99.8783Z" fill="#E61D2B"/>
<path d="M44.4484 108.005C44.4484 109.359 44.5715 109.852 44.6946 109.051C44.8178 108.312 44.8178 107.204 44.6946 106.589C44.51 106.035 44.3868 106.65 44.4484 108.005Z" fill="#E61D2B"/>
<path d="M54.0522 115.762C52.9441 116.87 52.7594 117.547 53.0672 120.256C53.3134 121.979 53.6213 124.073 53.8675 124.873C54.2985 126.35 54.2985 126.35 51.9591 124.565C49.9275 123.026 49.0656 122.78 45.7412 122.78C41.6165 122.78 39.7081 123.703 37.3071 126.904C35.4602 129.367 35.214 134.046 36.8146 137.124C37.5534 138.54 38.6615 139.956 39.3387 140.325C41.3703 141.372 40.8162 142.11 36.4452 144.204C32.6283 145.989 31.7049 146.174 26.2258 146.174C21.547 146.174 20.0695 146.358 19.6386 147.097C18.8383 148.267 18.8383 150.606 19.6386 151.961C21.1776 154.854 29.9196 156.024 36.199 154.115C37.9843 153.623 39.6465 153.315 39.8312 153.5C40.2621 153.931 37.738 164.458 36.5684 167.228C35.214 170.245 32.0743 172.276 26.9645 173.261C22.2858 174.123 20.8698 175.17 20.8698 177.509C20.9314 180.957 25.3639 182.68 31.2124 181.572C35.6449 180.772 38.9077 178.802 42.9093 174.554C44.6946 172.646 46.4184 171.107 46.7262 171.107C47.034 171.107 47.1572 172.953 46.9725 175.231C46.6647 178.617 46.049 180.587 43.5865 185.389C41.9243 188.652 40.5699 191.853 40.5699 192.469C40.5699 194.439 42.3553 196.286 44.6331 196.717C47.5265 197.271 48.6962 196.101 53.375 187.852C58.4847 178.864 59.1004 176.216 60.8857 154.177C61.2551 149.744 62.2401 143.28 63.1019 139.71C64.2716 134.969 64.641 132.26 64.3948 129.552C64.0254 125.119 60.6394 115.946 59.0388 115.084C57.2535 114.099 55.4681 114.346 54.0522 115.762ZM58.1153 115.454C59.4082 115.946 61.0088 119.209 62.671 124.565C64.3332 129.983 64.2716 132.014 62.4247 139.155C61.3782 143.157 60.5163 149.252 59.6544 159.102C58.9772 166.859 57.9922 174.923 57.4997 176.955C56.2685 181.572 48.8194 194.993 47.034 195.855C46.049 196.286 45.1872 196.224 43.7712 195.485C40.6931 193.885 40.7546 192.654 44.2637 186.128C47.1572 180.834 47.465 179.849 47.7728 175.108C48.0806 170.983 47.9575 169.875 47.3419 169.875C46.8493 169.875 44.51 171.845 42.0474 174.185C36.6299 179.418 33.6133 180.895 28.3805 180.957C23.3939 180.957 22.1011 180.279 22.1011 177.632C22.1011 175.354 23.2092 174.677 27.9496 173.877C31.0893 173.323 33.0593 172.276 35.4602 169.752C37.1224 168.028 37.738 166.366 39.5849 158.979C41.9243 149.683 42.2321 147.713 41.0009 150.175C38.169 155.716 19.6386 155.593 19.6386 149.991C19.6386 147.159 21.3623 146.42 27.0877 146.851L32.259 147.22L37.0609 144.696C40.8162 142.726 42.5399 142.172 44.9409 142.172C48.45 142.172 50.6047 141.249 53.1903 138.478C54.8525 136.755 55.0372 136.077 55.2219 131.891C55.4066 128.751 55.1603 125.981 54.4216 123.334C52.9441 117.916 53.4366 116.439 57.0072 115.146C57.0688 115.084 57.5613 115.269 58.1153 115.454ZM49.6197 124.319C53.3134 125.981 54.8525 128.69 54.5447 132.815C53.8675 142.418 40.5699 144.696 37.184 135.708C35.8296 132.199 36.3221 129.305 38.8462 126.474C41.7396 123.088 45.4334 122.41 49.6197 124.319Z" fill="#E61D2B"/>
<path d="M222.365 130.475C222.365 132.691 222.488 133.553 222.611 132.445C222.734 131.399 222.734 129.552 222.611 128.444C222.488 127.397 222.365 128.259 222.365 130.475Z" fill="#E61D2B"/>
<path d="M205.189 143.157C204.081 144.019 204.081 144.08 205.435 143.403C206.174 143.034 206.79 142.603 206.79 142.48C206.79 141.987 206.482 142.11 205.189 143.157Z" fill="#E61D2B"/>
<path d="M17.4839 144.635C16.8683 145.312 16.4989 145.989 16.622 146.112C16.7452 146.235 17.3608 145.681 17.9764 144.881C19.3308 143.095 19.023 142.911 17.4839 144.635Z" fill="#E61D2B"/>
<path d="M207.775 145.373C206.605 146.481 205.928 148.39 204.696 153.746C203.835 157.563 203.096 161.379 203.096 162.241C203.096 163.103 204.081 166.674 205.251 170.183L207.405 176.524L205.558 188.898C203.342 203.919 203.281 206.259 205.251 214.693C208.206 227.129 208.883 228.36 212.884 228.36C217.255 228.36 218.179 224.851 216.024 216.663C215.347 214.139 214.793 210.753 214.793 209.152C214.793 205.951 216.455 201.088 217.378 201.395C217.748 201.518 218.548 203.612 219.164 206.074C219.779 208.537 220.641 211.307 221.072 212.23C222.057 214.324 227.29 216.971 232.584 218.017C236.401 218.756 236.524 218.756 237.633 217.34C239.233 215.432 239.11 212.846 237.448 211.307C236.648 210.63 234.493 209.091 232.584 207.859L229.075 205.705L228.644 198.379C228.46 194.377 228.213 189.329 228.152 187.113L228.029 183.111L232.03 182.742C236.894 182.311 239.603 181.203 244.712 177.571C249.083 174.431 250.007 172.522 248.591 169.937C247.236 167.536 245.082 167.659 240.403 170.245C236.524 172.338 236.032 172.461 232.523 172.091C228.583 171.722 227.598 171.353 228.768 170.614C230.43 169.506 232.03 165.75 232.03 162.795C232.03 158.363 230.06 155.162 226.367 153.623C223.781 152.576 223.104 152.514 220.087 153.192C218.179 153.623 216.024 154.608 215.101 155.469C214.177 156.331 213.315 156.947 213.254 156.824C213.131 156.701 213.5 154.423 214.054 151.776L214.977 146.912L213.315 145.435C211.222 143.649 209.745 143.649 207.775 145.373ZM213.192 146.235C214.362 147.405 214.362 147.035 213.192 152.576C212.7 155.1 212.207 159.286 212.146 161.934C212.022 165.874 212.207 166.982 213.315 168.398C216.209 172.338 217.009 172.584 227.536 172.707L237.263 172.892L241.08 170.737C245.39 168.336 245.944 168.275 247.544 169.69C249.514 171.476 248.899 173.323 245.451 176.093C240.588 179.91 236.894 181.572 231.846 182.065L227.413 182.496L227.475 186.497C227.475 188.713 227.721 194.069 227.967 198.379L228.46 206.32L231.969 208.475C238.248 212.477 239.418 214.262 237.14 216.786C235.847 218.264 234.678 218.202 229.075 216.294C223.35 214.385 221.996 213.215 220.764 209.091C220.272 207.305 219.472 204.658 218.979 203.181C217.871 199.425 216.886 199.364 215.408 202.811C213.315 207.675 213.254 209.829 215.039 215.924C217.071 222.942 217.132 225.528 215.285 226.759C213.315 228.175 211.53 227.99 209.868 226.205C208.883 225.159 207.898 222.265 206.359 215.924C203.896 205.766 203.896 204.166 206.605 187.113L208.206 176.955L205.805 169.752L203.465 162.488L205.127 155.346C206.051 151.345 207.221 147.466 207.713 146.666C208.821 145.004 211.715 144.758 213.192 146.235ZM226.921 154.915C232.769 157.686 232.892 166.489 227.167 170.306C225.689 171.353 224.15 171.722 221.872 171.722C216.209 171.722 211.899 167.413 212.577 162.241C213.377 155.716 220.703 151.96 226.921 154.915Z" fill="#E61D2B"/>
<path d="M156.8 148.328C156.246 149.683 155.877 150.791 156 150.791C156.493 150.791 158.216 147.035 158.032 146.481C157.909 146.174 157.355 147.035 156.8 148.328Z" fill="#E61D2B"/>
<path d="M19.3308 171.414C18.4689 172.215 17.8533 173.507 17.8533 174.308C17.9148 175.539 17.9764 175.601 18.2226 174.492C18.4073 173.815 19.2692 172.522 20.1311 171.537C22.1011 169.444 21.3624 169.321 19.3308 171.414Z" fill="#E61D2B"/>
<path d="M248.283 179.233L247.113 180.649L248.529 179.479C249.268 178.802 249.884 178.186 249.884 178.063C249.884 177.571 249.391 177.94 248.283 179.233Z" fill="#E61D2B"/>
<path d="M83.1099 192.53C82.8021 193.146 82.6789 194.377 82.9252 195.178C83.233 196.47 83.3561 196.347 83.7255 194.193C84.218 191.361 84.0333 190.807 83.1099 192.53Z" fill="#E61D2B"/>
<path d="M122.018 198.01C125.958 198.133 132.483 198.133 136.485 198.01C140.425 197.948 137.162 197.825 129.22 197.825C121.279 197.825 118.016 197.948 122.018 198.01Z" fill="#E61D2B"/>
<path d="M142.764 202.196C140.979 205.089 140.548 210.507 141.779 214.201C142.333 215.74 142.579 216.294 142.395 215.432C142.21 214.57 141.964 212.231 141.779 210.199C141.471 207.059 141.656 206.074 143.01 203.427C144.857 199.856 144.734 199.056 142.764 202.196Z" fill="#E61D2B"/>
<path d="M241.634 213.954C241.388 214.816 241.326 215.678 241.45 215.863C241.634 215.986 241.942 215.37 242.127 214.447C242.373 213.585 242.435 212.723 242.311 212.538C242.127 212.415 241.819 213.031 241.634 213.954Z" fill="#E61D2B"/>
<path d="M87.4808 231.13C87.4808 233.839 87.6655 236.609 87.9118 237.287C88.158 237.964 88.2812 236.179 88.158 233.285C87.7886 226.144 87.4808 225.22 87.4808 231.13Z" fill="#E61D2B"/>
<path d="M9.97327 231.13C9.97327 232.792 10.0964 233.47 10.2195 232.485C10.3426 231.561 10.3426 230.207 10.2195 229.407C10.0964 228.668 9.97327 229.407 9.97327 231.13Z" fill="#E61D2B"/>
<path d="M224.335 230.884C232.831 231.13 240.711 231.5 241.88 231.684C243.05 231.869 242.496 231.623 240.649 231.13C238.125 230.453 233.754 230.268 223.104 230.33L208.944 230.453L224.335 230.884Z" fill="#E61D2B"/>
<path d="M244.343 232.546C244.343 232.793 245.205 233.285 246.313 233.593C248.837 234.393 250.068 237.718 249.699 242.704C249.329 246.644 248.529 248.06 246.621 248.06C245.944 248.06 245.513 248.183 245.636 248.368C245.82 248.491 247.729 248.368 249.884 248.122C252.715 247.752 253.208 247.568 251.607 247.506C249.391 247.445 249.329 247.383 249.884 245.844C251.115 242.581 250.253 234.824 248.468 233.408C247.421 232.608 244.343 231.931 244.343 232.546Z" fill="#E61D2B"/>
<path d="M251.669 233.47C252.469 234.393 253.516 236.425 253.947 238.025C254.439 239.995 254.747 240.426 254.747 239.441C254.809 237.471 252.346 232.485 251.115 232.177C250.561 231.992 250.746 232.485 251.669 233.47Z" fill="#E61D2B"/>
<path d="M188.013 233.901C191.091 234.516 194.231 235.07 195.093 235.009C196.939 234.947 189.86 233.531 185.55 233.039C183.765 232.854 184.812 233.223 188.013 233.901Z" fill="#E61D2B"/>
<path d="M230.984 233.716C232.892 233.839 236.094 233.839 238.064 233.716C239.972 233.593 238.371 233.531 234.493 233.531C230.614 233.531 229.014 233.593 230.984 233.716Z" fill="#E61D2B"/>
<path d="M206.79 234.516L199.71 234.886L205.558 234.947C208.76 234.947 215.039 234.762 219.41 234.578L227.413 234.085L220.641 234.147C216.947 234.147 210.668 234.332 206.79 234.516Z" fill="#E61D2B"/>
<path d="M198.171 237.102C199.648 239.564 199.771 244.12 198.479 247.198C197.801 248.799 197.309 249.291 196.57 249.045C196.078 248.86 194.908 248.676 194.108 248.676C192.999 248.676 192.63 248.368 192.63 247.26C192.63 245.474 194.785 241.227 196.016 240.488C197.247 239.811 197.186 238.826 195.955 238.826C195.462 238.826 195.154 239.072 195.4 239.38C195.585 239.688 195.4 240.18 195.031 240.426C193.861 241.103 192.138 245.659 191.399 249.907C190.414 255.817 188.998 260.496 188.321 260.065C187.951 259.819 187.705 260.188 187.705 260.804C187.767 263.081 190.044 259.203 190.845 255.571C191.276 253.662 191.83 251.815 192.076 251.508C192.322 251.2 195.77 251.446 199.956 252.062C204.019 252.616 207.651 252.985 208.082 252.862C208.452 252.739 205.004 252.123 200.387 251.508C195.77 250.892 192.014 250.092 192.014 249.722C192.014 249.353 193.246 249.291 195.277 249.538C199.71 250.03 209.067 250.584 208.329 250.276C208.021 250.092 205.62 249.845 202.973 249.599L198.294 249.168L199.156 247.137C200.756 243.258 199.771 235.132 197.74 235.132C197.186 235.132 197.309 235.747 198.171 237.102Z" fill="#E61D2B"/>
<path d="M80.4628 244.797C81.5093 244.92 83.3562 244.92 84.4644 244.797C85.5109 244.674 84.649 244.551 82.4328 244.551C80.2165 244.551 79.3546 244.674 80.4628 244.797Z" fill="#E61D2B"/>
<path d="M148.674 248.429C148.182 249.784 148.305 252.431 148.921 253.908C149.29 254.77 149.352 254.339 149.105 252.616C148.921 251.2 149.105 249.476 149.475 248.737C149.906 248.06 149.967 247.444 149.598 247.444C149.29 247.444 148.859 247.875 148.674 248.429Z" fill="#E61D2B"/>
<path d="M256.348 248.676C256.594 249.045 257.209 249.168 257.763 249.045C258.687 248.737 258.81 249.291 258.687 254.032C258.625 258.341 258.379 259.572 257.517 260.188C256.286 261.05 257.086 261.296 258.379 260.434C258.995 260.065 259.241 258.218 259.303 253.97L259.426 248.06H257.702C256.655 248.06 256.101 248.306 256.348 248.676Z" fill="#E61D2B"/>
<path d="M234.985 249.107C236.709 249.23 239.664 249.23 241.449 249.107C243.173 248.984 241.757 248.922 238.187 248.922C234.616 248.922 233.2 248.984 234.985 249.107Z" fill="#E61D2B"/>
<path d="M0 253.724C0 256.371 0.123126 258.526 0.43094 258.526C0.677191 258.526 0.800317 257.048 0.677191 255.325C0.369377 249.476 0.123126 248.922 0 253.724Z" fill="#E61D2B"/>
<path d="M214.362 249.722C216.948 249.845 221.257 249.845 223.904 249.722C226.49 249.661 224.335 249.538 219.102 249.538C213.869 249.538 211.715 249.661 214.362 249.722Z" fill="#E61D2B"/>
<path d="M252.839 250.338C253.269 250.523 253.824 250.461 254.008 250.276C254.255 250.092 253.885 249.907 253.208 249.969C252.531 249.969 252.346 250.153 252.839 250.338Z" fill="#E61D2B"/>
<path d="M250.376 250.954C250.807 251.138 251.361 251.077 251.546 250.892C251.792 250.707 251.423 250.523 250.745 250.584C250.068 250.584 249.884 250.769 250.376 250.954Z" fill="#E61D2B"/>
<path d="M247.914 251.569C248.344 251.754 248.899 251.692 249.083 251.508C249.329 251.323 248.96 251.138 248.283 251.2C247.606 251.2 247.421 251.385 247.914 251.569Z" fill="#E61D2B"/>
<path d="M245.451 252.185C245.882 252.37 246.436 252.308 246.621 252.123C246.867 251.939 246.498 251.754 245.82 251.815C245.143 251.815 244.959 252 245.451 252.185Z" fill="#E61D2B"/>
<path d="M242.989 252.8C243.42 252.985 243.974 252.924 244.158 252.739C244.405 252.554 244.035 252.37 243.358 252.431C242.681 252.431 242.496 252.616 242.989 252.8Z" fill="#E61D2B"/>
<path d="M210.052 253.416C210.606 253.539 211.591 253.539 212.207 253.416C212.761 253.232 212.269 253.108 211.099 253.108C209.929 253.108 209.437 253.232 210.052 253.416Z" fill="#E61D2B"/>
<path d="M240.526 253.416C240.957 253.601 241.511 253.539 241.696 253.355C241.942 253.17 241.573 252.985 240.895 253.047C240.218 253.047 240.033 253.231 240.526 253.416Z" fill="#E61D2B"/>
<path d="M214.977 254.032C215.531 254.155 216.516 254.155 217.132 254.032C217.686 253.847 217.194 253.724 216.024 253.724C214.854 253.724 214.362 253.847 214.977 254.032Z" fill="#E61D2B"/>
<path d="M237.448 254.032C237.879 254.216 238.433 254.155 238.618 253.97C238.864 253.786 238.494 253.601 237.817 253.662C237.14 253.662 236.955 253.847 237.448 254.032Z" fill="#E61D2B"/>
<path d="M219.902 254.647C220.456 254.77 221.318 254.77 221.749 254.647C222.119 254.463 221.688 254.339 220.641 254.339C219.656 254.339 219.287 254.463 219.902 254.647Z" fill="#E61D2B"/>
<path d="M234.985 254.647C235.416 254.832 235.97 254.77 236.155 254.586C236.401 254.401 236.032 254.216 235.355 254.278C234.677 254.278 234.493 254.462 234.985 254.647Z" fill="#E61D2B"/>
<path d="M225.443 255.263C225.997 255.386 226.982 255.386 227.598 255.263C228.152 255.078 227.659 254.955 226.49 254.955C225.32 254.955 224.827 255.078 225.443 255.263Z" fill="#E61D2B"/>
<path d="M230.738 255.324C230.06 255.632 229.876 256.125 230.183 256.925C230.553 258.033 230.614 258.033 230.984 257.11C231.23 256.494 232.03 255.755 232.769 255.448C234.062 254.955 234.062 254.894 232.954 254.894C232.277 254.894 231.292 255.078 230.738 255.324Z" fill="#E61D2B"/>
<path d="M237.079 257.11C235.601 257.602 234.554 258.156 234.678 258.28C234.801 258.403 236.401 257.972 238.248 257.356C240.095 256.679 241.142 256.125 240.649 256.186C240.157 256.186 238.556 256.556 237.079 257.11Z" fill="#E61D2B"/>
<path d="M229.322 261.05C229.075 262.404 229.075 264.867 229.322 266.467L229.691 269.361L222.427 269.238L215.101 269.115L223.35 269.669C228.829 270.1 232.092 270.1 232.892 269.73C234.062 269.176 234 269.115 232.4 269.176C230.799 269.299 230.491 269.053 230.06 267.145C229.814 265.975 229.753 263.512 229.937 261.727C230.368 257.972 229.876 257.418 229.322 261.05Z" fill="#E61D2B"/>
<path d="M252.038 262.527C250.376 263.328 249.268 263.943 249.576 264.005C249.945 264.005 251.607 263.328 253.27 262.527C254.993 261.727 256.101 261.111 255.732 261.05C255.424 261.05 253.762 261.727 252.038 262.527Z" fill="#E61D2B"/>
<path d="M94.622 262.035C94.9914 262.158 95.7301 262.158 96.161 262.035C96.5304 261.85 96.2226 261.727 95.3607 261.727C94.4989 261.727 94.191 261.85 94.622 262.035Z" fill="#E61D2B"/>
<path d="M168.005 264.682C168.005 265.421 168.498 265.421 170.16 264.682C171.268 264.19 171.206 264.128 169.729 264.128C168.744 264.066 168.005 264.313 168.005 264.682Z" fill="#E61D2B"/>
<path d="M246.805 264.682C246.313 264.99 246.19 265.298 246.498 265.298C246.867 265.298 247.544 264.99 248.037 264.682C248.529 264.374 248.714 264.066 248.345 264.066C248.037 264.066 247.298 264.374 246.805 264.682Z" fill="#E61D2B"/>
<path d="M182.041 265.729C182.78 265.852 184.011 265.852 184.812 265.729C185.55 265.605 184.935 265.482 183.396 265.482C181.857 265.482 181.241 265.605 182.041 265.729Z" fill="#E61D2B"/>
<path d="M192.014 266.898C195.216 267.329 199.833 267.822 202.172 268.006C204.758 268.191 203.219 267.883 198.479 267.144C194.108 266.529 189.49 265.975 188.321 266.036C187.151 266.036 188.813 266.406 192.014 266.898Z" fill="#E61D2B"/>
<path d="M237.263 267.76C236.463 268.068 236.401 268.314 236.955 268.314C237.448 268.314 238.433 268.068 239.11 267.76C239.91 267.453 239.972 267.206 239.418 267.206C238.925 267.206 237.94 267.453 237.263 267.76Z" fill="#E61D2B"/>
<path d="M209.129 268.807C210.176 268.93 212.022 268.93 213.131 268.807C214.177 268.684 213.315 268.561 211.099 268.561C208.883 268.561 208.021 268.684 209.129 268.807Z" fill="#E61D2B"/>
</svg>
